%TF.GenerationSoftware,KiCad,Pcbnew,9.0.1*%
%TF.CreationDate,2025-07-26T11:45:23+03:00*%
%TF.ProjectId,VGA_Debug_Board,5647415f-4465-4627-9567-5f426f617264,rev?*%
%TF.SameCoordinates,Original*%
%TF.FileFunction,Soldermask,Top*%
%TF.FilePolarity,Negative*%
%FSLAX46Y46*%
G04 Gerber Fmt 4.6, Leading zero omitted, Abs format (unit mm)*
G04 Created by KiCad (PCBNEW 9.0.1) date 2025-07-26 11:45:23*
%MOMM*%
%LPD*%
G01*
G04 APERTURE LIST*
%ADD10R,1.700000X1.700000*%
%ADD11O,1.700000X1.700000*%
%ADD12C,4.000000*%
%ADD13R,1.600000X1.600000*%
%ADD14C,1.600000*%
G04 APERTURE END LIST*
D10*
%TO.C,J2*%
X163240000Y-82093113D03*
D11*
X160700000Y-82093113D03*
X158160000Y-82093113D03*
X155620000Y-82093113D03*
X153080000Y-82093113D03*
X150540000Y-82093113D03*
X148000000Y-82093113D03*
X145460000Y-82093113D03*
X142920000Y-82093113D03*
X140380000Y-82093113D03*
X137840000Y-82093113D03*
%TD*%
D12*
%TO.C,J1*%
X163055000Y-63930000D03*
X138055000Y-63930000D03*
D13*
X146240000Y-65980000D03*
D14*
X148530000Y-65980000D03*
X150820000Y-65980000D03*
X153110000Y-65980000D03*
X155400000Y-65980000D03*
X145095000Y-64000000D03*
X147385000Y-64000000D03*
X149675000Y-64000000D03*
X151965000Y-64000000D03*
X154255000Y-64000000D03*
X146240000Y-62020000D03*
X148530000Y-62020000D03*
X150820000Y-62020000D03*
X153110000Y-62020000D03*
X155400000Y-62020000D03*
%TD*%
D10*
%TO.C,J3*%
X163240000Y-100500000D03*
D11*
X160700000Y-100500000D03*
X158160000Y-100500000D03*
X155620000Y-100500000D03*
X153080000Y-100500000D03*
X150540000Y-100500000D03*
X148000000Y-100500000D03*
X145460000Y-100500000D03*
X142920000Y-100500000D03*
X140380000Y-100500000D03*
X137840000Y-100500000D03*
%TD*%
D12*
%TO.C,J4*%
X138055000Y-118663113D03*
X163055000Y-118663113D03*
D13*
X146240000Y-116613113D03*
D14*
X148530000Y-116613113D03*
X150820000Y-116613113D03*
X153110000Y-116613113D03*
X155400000Y-116613113D03*
X145095000Y-118593113D03*
X147385000Y-118593113D03*
X149675000Y-118593113D03*
X151965000Y-118593113D03*
X154255000Y-118593113D03*
X146240000Y-120573113D03*
X148530000Y-120573113D03*
X150820000Y-120573113D03*
X153110000Y-120573113D03*
X155400000Y-120573113D03*
%TD*%
M02*
