%TF.GenerationSoftware,KiCad,Pcbnew,9.0.1*%
%TF.CreationDate,2025-10-17T21:58:47+03:00*%
%TF.ProjectId,transection-vga,7472616e-7365-4637-9469-6f6e2d766761,rev?*%
%TF.SameCoordinates,Original*%
%TF.FileFunction,Copper,L1,Top*%
%TF.FilePolarity,Positive*%
%FSLAX46Y46*%
G04 Gerber Fmt 4.6, Leading zero omitted, Abs format (unit mm)*
G04 Created by KiCad (PCBNEW 9.0.1) date 2025-10-17 21:58:47*
%MOMM*%
%LPD*%
G01*
G04 APERTURE LIST*
%TA.AperFunction,ComponentPad*%
%ADD10C,4.000000*%
%TD*%
%TA.AperFunction,ComponentPad*%
%ADD11R,1.600000X1.600000*%
%TD*%
%TA.AperFunction,ComponentPad*%
%ADD12C,1.600000*%
%TD*%
%TA.AperFunction,ComponentPad*%
%ADD13R,1.700000X1.700000*%
%TD*%
%TA.AperFunction,ComponentPad*%
%ADD14C,1.700000*%
%TD*%
%TA.AperFunction,Conductor*%
%ADD15C,0.200000*%
%TD*%
G04 APERTURE END LIST*
D10*
%TO.P,J4,0*%
%TO.N,N/C*%
X123345000Y-116140000D03*
X148345000Y-116140000D03*
D11*
%TO.P,J4,1,RED*%
%TO.N,Net-(J3-Pin_14)*%
X140160000Y-114250000D03*
D12*
%TO.P,J4,2,GREEN*%
%TO.N,Net-(J3-Pin_12)*%
X137870000Y-114250000D03*
%TO.P,J4,3,BLUE*%
%TO.N,Net-(J3-Pin_10)*%
X135580000Y-114250000D03*
%TO.P,J4,4,ID2*%
%TO.N,Net-(J3-Pin_8)*%
X133290000Y-114250000D03*
%TO.P,J4,5,HGND*%
%TO.N,GND*%
X131000000Y-114250000D03*
%TO.P,J4,6,RED_RTN*%
X141305000Y-116150000D03*
%TO.P,J4,7,GRN_RTN*%
X139015000Y-116150000D03*
%TO.P,J4,8,BLUE_RTN*%
X136725000Y-116150000D03*
%TO.P,J4,9,KEY/PWR*%
%TO.N,Net-(J3-Pin_9)*%
X134435000Y-116150000D03*
%TO.P,J4,10,VGND*%
%TO.N,GND*%
X132145000Y-116150000D03*
%TO.P,J4,11,ID0*%
%TO.N,Net-(J3-Pin_1)*%
X140160000Y-118050000D03*
%TO.P,J4,12,ID1*%
%TO.N,Net-(J3-Pin_2)*%
X137870000Y-118050000D03*
%TO.P,J4,13,HSync*%
%TO.N,Net-(J3-Pin_3)*%
X135580000Y-118050000D03*
%TO.P,J4,14,VSync*%
%TO.N,Net-(J3-Pin_5)*%
X133290000Y-118050000D03*
%TO.P,J4,15,ID3*%
%TO.N,Net-(J3-Pin_7)*%
X131000000Y-118050000D03*
%TD*%
D13*
%TO.P,J3,1,Pin_1*%
%TO.N,Net-(J3-Pin_1)*%
X118090000Y-106196887D03*
D14*
%TO.P,J3,2,Pin_2*%
%TO.N,Net-(J3-Pin_2)*%
X120630000Y-106196887D03*
%TO.P,J3,3,Pin_3*%
%TO.N,Net-(J3-Pin_3)*%
X123170000Y-106196887D03*
%TO.P,J3,4,Pin_4*%
%TO.N,GND*%
X125710000Y-106196887D03*
%TO.P,J3,5,Pin_5*%
%TO.N,Net-(J3-Pin_5)*%
X128250000Y-106196887D03*
%TO.P,J3,6,Pin_6*%
%TO.N,GND*%
X130790000Y-106196887D03*
%TO.P,J3,7,Pin_7*%
%TO.N,Net-(J3-Pin_7)*%
X133330000Y-106196887D03*
%TO.P,J3,8,Pin_8*%
%TO.N,Net-(J3-Pin_8)*%
X135870000Y-106196887D03*
%TO.P,J3,9,Pin_9*%
%TO.N,Net-(J3-Pin_9)*%
X138410000Y-106196887D03*
%TO.P,J3,10,Pin_10*%
%TO.N,Net-(J3-Pin_10)*%
X140950000Y-106196887D03*
%TO.P,J3,11,Pin_11*%
%TO.N,GND*%
X143490000Y-106196887D03*
%TO.P,J3,12,Pin_12*%
%TO.N,Net-(J3-Pin_12)*%
X146030000Y-106196887D03*
%TO.P,J3,13,Pin_13*%
%TO.N,GND*%
X148570000Y-106196887D03*
%TO.P,J3,14,Pin_14*%
%TO.N,Net-(J3-Pin_14)*%
X151110000Y-106196887D03*
%TO.P,J3,15,Pin_15*%
%TO.N,GND*%
X153650000Y-106196887D03*
%TD*%
D10*
%TO.P,J1,0*%
%TO.N,N/C*%
X123345000Y-78856887D03*
X148345000Y-78856887D03*
D11*
%TO.P,J1,1,RED*%
%TO.N,Net-(J1-RED)*%
X140160000Y-80746887D03*
D12*
%TO.P,J1,2,GREEN*%
%TO.N,Net-(J1-GREEN)*%
X137870000Y-80746887D03*
%TO.P,J1,3,BLUE*%
%TO.N,Net-(J1-BLUE)*%
X135580000Y-80746887D03*
%TO.P,J1,4,ID2*%
%TO.N,Net-(J1-ID2)*%
X133290000Y-80746887D03*
%TO.P,J1,5,HGND*%
%TO.N,GND*%
X131000000Y-80746887D03*
%TO.P,J1,6,RED_RTN*%
X141305000Y-78846887D03*
%TO.P,J1,7,GRN_RTN*%
X139015000Y-78846887D03*
%TO.P,J1,8,BLUE_RTN*%
X136725000Y-78846887D03*
%TO.P,J1,9,KEY/PWR*%
%TO.N,Net-(J1-KEY{slash}PWR)*%
X134435000Y-78846887D03*
%TO.P,J1,10,VGND*%
%TO.N,GND*%
X132145000Y-78846887D03*
%TO.P,J1,11,ID0*%
%TO.N,Net-(J1-ID0)*%
X140160000Y-76946887D03*
%TO.P,J1,12,ID1*%
%TO.N,Net-(J1-ID1)*%
X137870000Y-76946887D03*
%TO.P,J1,13,HSync*%
%TO.N,Net-(J1-HSync)*%
X135580000Y-76946887D03*
%TO.P,J1,14,VSync*%
%TO.N,Net-(J1-VSync)*%
X133290000Y-76946887D03*
%TO.P,J1,15,ID3*%
%TO.N,Net-(J1-ID3)*%
X131000000Y-76946887D03*
%TD*%
D13*
%TO.P,J2,1,Pin_1*%
%TO.N,Net-(J1-ID0)*%
X118090000Y-88750000D03*
D14*
%TO.P,J2,2,Pin_2*%
%TO.N,Net-(J1-ID1)*%
X120630000Y-88750000D03*
%TO.P,J2,3,Pin_3*%
%TO.N,Net-(J1-HSync)*%
X123170000Y-88750000D03*
%TO.P,J2,4,Pin_4*%
%TO.N,GND*%
X125710000Y-88750000D03*
%TO.P,J2,5,Pin_5*%
%TO.N,Net-(J1-VSync)*%
X128250000Y-88750000D03*
%TO.P,J2,6,Pin_6*%
%TO.N,GND*%
X130790000Y-88750000D03*
%TO.P,J2,7,Pin_7*%
%TO.N,Net-(J1-ID3)*%
X133330000Y-88750000D03*
%TO.P,J2,8,Pin_8*%
%TO.N,Net-(J1-ID2)*%
X135870000Y-88750000D03*
%TO.P,J2,9,Pin_9*%
%TO.N,Net-(J1-KEY{slash}PWR)*%
X138410000Y-88750000D03*
%TO.P,J2,10,Pin_10*%
%TO.N,Net-(J1-BLUE)*%
X140950000Y-88750000D03*
%TO.P,J2,11,Pin_11*%
%TO.N,GND*%
X143490000Y-88750000D03*
%TO.P,J2,12,Pin_12*%
%TO.N,Net-(J1-GREEN)*%
X146030000Y-88750000D03*
%TO.P,J2,13,Pin_13*%
%TO.N,GND*%
X148570000Y-88750000D03*
%TO.P,J2,14,Pin_14*%
%TO.N,Net-(J1-RED)*%
X151110000Y-88750000D03*
%TO.P,J2,15,Pin_15*%
%TO.N,GND*%
X153650000Y-88750000D03*
%TD*%
D15*
%TO.N,GND*%
X131000000Y-114250000D02*
X132145000Y-115395000D01*
X136725000Y-116150000D02*
X141305000Y-116150000D01*
X132145000Y-78846887D02*
X131000000Y-79991887D01*
X132145000Y-115395000D02*
X132145000Y-116150000D01*
X136725000Y-78846887D02*
X141305000Y-78846887D01*
X131000000Y-79991887D02*
X131000000Y-80746887D01*
%TO.N,Net-(J3-Pin_10)*%
X140950000Y-106196887D02*
X135580000Y-111566887D01*
X135580000Y-111566887D02*
X135580000Y-114250000D01*
%TO.N,Net-(J3-Pin_7)*%
X133330000Y-106196887D02*
X129899000Y-109627887D01*
X129899000Y-116949000D02*
X131000000Y-118050000D01*
X129899000Y-109627887D02*
X129899000Y-116949000D01*
%TO.N,Net-(J3-Pin_5)*%
X129901000Y-119151000D02*
X128250000Y-117500000D01*
X128250000Y-117500000D02*
X128250000Y-106196887D01*
X133290000Y-118050000D02*
X132189000Y-119151000D01*
X132189000Y-119151000D02*
X129901000Y-119151000D01*
%TO.N,Net-(J3-Pin_3)*%
X128104894Y-119552000D02*
X125646000Y-117093106D01*
X125646000Y-117093106D02*
X125646000Y-108672887D01*
X125646000Y-108672887D02*
X123170000Y-106196887D01*
X134078000Y-119552000D02*
X128104894Y-119552000D01*
X135580000Y-118050000D02*
X134078000Y-119552000D01*
%TO.N,Net-(J3-Pin_1)*%
X120000000Y-118250000D02*
X120000000Y-108106887D01*
X122104000Y-120354000D02*
X120000000Y-118250000D01*
X137856000Y-120354000D02*
X122104000Y-120354000D01*
X140160000Y-118050000D02*
X137856000Y-120354000D01*
X120000000Y-108106887D02*
X118090000Y-106196887D01*
%TO.N,Net-(J3-Pin_14)*%
X151110000Y-106196887D02*
X143056887Y-114250000D01*
X143056887Y-114250000D02*
X140160000Y-114250000D01*
%TO.N,Net-(J3-Pin_2)*%
X135967000Y-119953000D02*
X122703000Y-119953000D01*
X120630000Y-117880000D02*
X120630000Y-106196887D01*
X122703000Y-119953000D02*
X120630000Y-117880000D01*
X137870000Y-118050000D02*
X135967000Y-119953000D01*
%TO.N,Net-(J3-Pin_8)*%
X133290000Y-108776887D02*
X133290000Y-114250000D01*
X135870000Y-106196887D02*
X133290000Y-108776887D01*
%TO.N,Net-(J3-Pin_9)*%
X138410000Y-106196887D02*
X134435000Y-110171887D01*
X134435000Y-110171887D02*
X134435000Y-116150000D01*
%TO.N,Net-(J3-Pin_12)*%
X137976887Y-114250000D02*
X137870000Y-114250000D01*
X146030000Y-106196887D02*
X137976887Y-114250000D01*
%TD*%
%TA.AperFunction,Conductor*%
%TO.N,GND*%
G36*
X126825270Y-106958604D02*
G01*
X126825270Y-106958603D01*
X126864622Y-106904442D01*
X126869232Y-106895394D01*
X126917205Y-106844596D01*
X126985025Y-106827799D01*
X127051161Y-106850334D01*
X127090204Y-106895391D01*
X127094949Y-106904704D01*
X127219890Y-107076673D01*
X127370213Y-107226996D01*
X127542184Y-107351938D01*
X127542184Y-107351939D01*
X127581793Y-107372120D01*
X127632590Y-107420093D01*
X127649500Y-107482605D01*
X127649500Y-117413330D01*
X127649499Y-117413348D01*
X127649499Y-117579054D01*
X127649498Y-117579054D01*
X127649499Y-117579057D01*
X127690423Y-117731785D01*
X127690424Y-117731787D01*
X127690423Y-117731787D01*
X127698322Y-117745467D01*
X127698323Y-117745468D01*
X127769477Y-117868712D01*
X127769481Y-117868717D01*
X127888349Y-117987585D01*
X127888355Y-117987590D01*
X128640583Y-118739819D01*
X128651195Y-118759255D01*
X128665696Y-118775989D01*
X128667612Y-118789320D01*
X128674068Y-118801142D01*
X128672488Y-118823228D01*
X128675640Y-118845147D01*
X128670044Y-118857398D01*
X128669084Y-118870834D01*
X128655813Y-118888560D01*
X128646615Y-118908703D01*
X128635283Y-118915985D01*
X128627212Y-118926767D01*
X128606466Y-118934504D01*
X128587837Y-118946477D01*
X128565918Y-118949628D01*
X128561748Y-118951184D01*
X128552902Y-118951500D01*
X128404991Y-118951500D01*
X128337952Y-118931815D01*
X128317310Y-118915181D01*
X126282819Y-116880690D01*
X126249334Y-116819367D01*
X126246500Y-116793009D01*
X126246500Y-108761947D01*
X126246501Y-108761934D01*
X126246501Y-108593831D01*
X126233444Y-108545102D01*
X126205577Y-108441103D01*
X126205573Y-108441096D01*
X126126524Y-108304177D01*
X126126518Y-108304169D01*
X126118714Y-108296365D01*
X125580915Y-107758566D01*
X125547431Y-107697245D01*
X125552415Y-107627554D01*
X125594286Y-107571620D01*
X125659751Y-107547203D01*
X125668597Y-107546887D01*
X125816246Y-107546887D01*
X126026127Y-107513644D01*
X126026130Y-107513644D01*
X126228217Y-107447982D01*
X126417554Y-107351509D01*
X126471716Y-107312157D01*
X126471717Y-107312157D01*
X125839408Y-106679849D01*
X125902993Y-106662812D01*
X126017007Y-106596986D01*
X126110099Y-106503894D01*
X126175925Y-106389880D01*
X126192962Y-106326296D01*
X126825270Y-106958604D01*
G37*
%TD.AperFunction*%
%TA.AperFunction,Conductor*%
G36*
X130324075Y-106389880D02*
G01*
X130389901Y-106503894D01*
X130482993Y-106596986D01*
X130597007Y-106662812D01*
X130660590Y-106679849D01*
X130028282Y-107312156D01*
X130028282Y-107312157D01*
X130082449Y-107351511D01*
X130271782Y-107447982D01*
X130473870Y-107513644D01*
X130683754Y-107546887D01*
X130831401Y-107546887D01*
X130898440Y-107566572D01*
X130944195Y-107619376D01*
X130954139Y-107688534D01*
X130925114Y-107752090D01*
X130919082Y-107758568D01*
X129530286Y-109147365D01*
X129418481Y-109259169D01*
X129418475Y-109259177D01*
X129373855Y-109336463D01*
X129373855Y-109336464D01*
X129339423Y-109396102D01*
X129298499Y-109548830D01*
X129298499Y-109548832D01*
X129298499Y-109716933D01*
X129298500Y-109716946D01*
X129298500Y-116862330D01*
X129298499Y-116862348D01*
X129298499Y-117028054D01*
X129298498Y-117028054D01*
X129339423Y-117180785D01*
X129352123Y-117202781D01*
X129396361Y-117279404D01*
X129418479Y-117317715D01*
X129537349Y-117436585D01*
X129537355Y-117436590D01*
X129705922Y-117605157D01*
X129739407Y-117666480D01*
X129736173Y-117731154D01*
X129735019Y-117734703D01*
X129731522Y-117745467D01*
X129716703Y-117839031D01*
X129686773Y-117902165D01*
X129627461Y-117939096D01*
X129557599Y-117938098D01*
X129506549Y-117907313D01*
X128886819Y-117287583D01*
X128853334Y-117226260D01*
X128850500Y-117199902D01*
X128850500Y-107482605D01*
X128870185Y-107415566D01*
X128918207Y-107372120D01*
X128957815Y-107351939D01*
X128957815Y-107351938D01*
X128957816Y-107351938D01*
X129049193Y-107285548D01*
X129129786Y-107226996D01*
X129129788Y-107226993D01*
X129129792Y-107226991D01*
X129280104Y-107076679D01*
X129280106Y-107076675D01*
X129280109Y-107076673D01*
X129365890Y-106958604D01*
X129405051Y-106904703D01*
X129409793Y-106895395D01*
X129457763Y-106844598D01*
X129525583Y-106827798D01*
X129591719Y-106850332D01*
X129630763Y-106895387D01*
X129635373Y-106904434D01*
X129674728Y-106958603D01*
X130307037Y-106326295D01*
X130324075Y-106389880D01*
G37*
%TD.AperFunction*%
%TA.AperFunction,Conductor*%
G36*
X132971470Y-107500393D02*
G01*
X133013757Y-107514133D01*
X133223713Y-107547387D01*
X133223714Y-107547387D01*
X133370902Y-107547387D01*
X133437941Y-107567072D01*
X133483696Y-107619876D01*
X133493640Y-107689034D01*
X133464615Y-107752590D01*
X133458583Y-107759068D01*
X132809481Y-108408169D01*
X132809479Y-108408172D01*
X132759361Y-108494981D01*
X132759359Y-108494983D01*
X132730425Y-108545096D01*
X132730424Y-108545097D01*
X132730423Y-108545102D01*
X132689499Y-108697830D01*
X132689499Y-108697832D01*
X132689499Y-108865933D01*
X132689500Y-108865946D01*
X132689500Y-113020397D01*
X132669815Y-113087436D01*
X132621800Y-113130879D01*
X132608389Y-113137712D01*
X132442786Y-113258028D01*
X132298032Y-113402782D01*
X132298028Y-113402787D01*
X132243670Y-113477605D01*
X132188340Y-113520271D01*
X132133624Y-113528338D01*
X132079474Y-113524076D01*
X131482962Y-114120589D01*
X131465925Y-114057007D01*
X131400099Y-113942993D01*
X131307007Y-113849901D01*
X131192993Y-113784075D01*
X131129408Y-113767037D01*
X131725922Y-113170524D01*
X131725921Y-113170523D01*
X131681359Y-113138147D01*
X131681350Y-113138141D01*
X131499031Y-113045244D01*
X131304417Y-112982009D01*
X131102317Y-112950000D01*
X130897683Y-112950000D01*
X130695581Y-112982010D01*
X130695574Y-112982011D01*
X130661817Y-112992980D01*
X130591976Y-112994975D01*
X130532144Y-112958894D01*
X130501316Y-112896193D01*
X130499500Y-112875049D01*
X130499500Y-109927983D01*
X130519185Y-109860944D01*
X130535814Y-109840307D01*
X132845478Y-107530642D01*
X132858833Y-107523350D01*
X132869125Y-107512137D01*
X132888876Y-107506945D01*
X132906799Y-107497159D01*
X132923023Y-107497970D01*
X132936699Y-107494376D01*
X132971470Y-107500393D01*
G37*
%TD.AperFunction*%
%TA.AperFunction,Conductor*%
G36*
X148104075Y-106389880D02*
G01*
X148169901Y-106503894D01*
X148262993Y-106596986D01*
X148377007Y-106662812D01*
X148440590Y-106679849D01*
X147808282Y-107312156D01*
X147808282Y-107312157D01*
X147862449Y-107351511D01*
X148051782Y-107447982D01*
X148253870Y-107513644D01*
X148463754Y-107546887D01*
X148611401Y-107546887D01*
X148678440Y-107566572D01*
X148724195Y-107619376D01*
X148734139Y-107688534D01*
X148705114Y-107752090D01*
X148699082Y-107758568D01*
X142844471Y-113613181D01*
X142783148Y-113646666D01*
X142756790Y-113649500D01*
X141584499Y-113649500D01*
X141517460Y-113629815D01*
X141471705Y-113577011D01*
X141460499Y-113525500D01*
X141460499Y-113402129D01*
X141460498Y-113402123D01*
X141454091Y-113342516D01*
X141403797Y-113207671D01*
X141403793Y-113207664D01*
X141317547Y-113092455D01*
X141317544Y-113092452D01*
X141202335Y-113006206D01*
X141202328Y-113006202D01*
X141067482Y-112955908D01*
X141067483Y-112955908D01*
X141007883Y-112949501D01*
X141007881Y-112949500D01*
X141007873Y-112949500D01*
X141007865Y-112949500D01*
X140425983Y-112949500D01*
X140358944Y-112929815D01*
X140313189Y-112877011D01*
X140303245Y-112807853D01*
X140332270Y-112744297D01*
X140338302Y-112737819D01*
X142691819Y-110384302D01*
X145545478Y-107530642D01*
X145606799Y-107497159D01*
X145671473Y-107500393D01*
X145713757Y-107514133D01*
X145923713Y-107547387D01*
X145923714Y-107547387D01*
X146136286Y-107547387D01*
X146136287Y-107547387D01*
X146346243Y-107514133D01*
X146548412Y-107448444D01*
X146737816Y-107351938D01*
X146824138Y-107289222D01*
X146909786Y-107226996D01*
X146909788Y-107226993D01*
X146909792Y-107226991D01*
X147060104Y-107076679D01*
X147060106Y-107076675D01*
X147060109Y-107076673D01*
X147145890Y-106958604D01*
X147185051Y-106904703D01*
X147189793Y-106895395D01*
X147237763Y-106844598D01*
X147305583Y-106827798D01*
X147371719Y-106850332D01*
X147410763Y-106895387D01*
X147415373Y-106904434D01*
X147454728Y-106958603D01*
X148087037Y-106326295D01*
X148104075Y-106389880D01*
G37*
%TD.AperFunction*%
%TA.AperFunction,Conductor*%
G36*
X143024075Y-106389880D02*
G01*
X143089901Y-106503894D01*
X143182993Y-106596986D01*
X143297007Y-106662812D01*
X143360590Y-106679849D01*
X142728282Y-107312156D01*
X142728282Y-107312157D01*
X142782449Y-107351511D01*
X142971782Y-107447982D01*
X143173870Y-107513644D01*
X143383754Y-107546887D01*
X143531401Y-107546887D01*
X143598440Y-107566572D01*
X143644195Y-107619376D01*
X143654139Y-107688534D01*
X143625114Y-107752090D01*
X143619082Y-107758568D01*
X138395516Y-112982134D01*
X138334193Y-113015619D01*
X138269517Y-113012384D01*
X138174537Y-112981523D01*
X138012810Y-112955908D01*
X137972352Y-112949500D01*
X137767648Y-112949500D01*
X137743329Y-112953351D01*
X137565465Y-112981522D01*
X137370776Y-113044781D01*
X137188386Y-113137715D01*
X137022786Y-113258028D01*
X136878032Y-113402782D01*
X136878028Y-113402787D01*
X136825318Y-113475337D01*
X136769988Y-113518003D01*
X136700375Y-113523982D01*
X136638580Y-113491376D01*
X136624682Y-113475337D01*
X136571971Y-113402787D01*
X136571967Y-113402782D01*
X136427213Y-113258028D01*
X136261610Y-113137712D01*
X136248200Y-113130879D01*
X136197406Y-113082903D01*
X136180500Y-113020397D01*
X136180500Y-111866983D01*
X136200185Y-111799944D01*
X136216814Y-111779307D01*
X140465478Y-107530642D01*
X140526799Y-107497159D01*
X140591473Y-107500393D01*
X140633757Y-107514133D01*
X140843713Y-107547387D01*
X140843714Y-107547387D01*
X141056286Y-107547387D01*
X141056287Y-107547387D01*
X141266243Y-107514133D01*
X141468412Y-107448444D01*
X141657816Y-107351938D01*
X141744138Y-107289222D01*
X141829786Y-107226996D01*
X141829788Y-107226993D01*
X141829792Y-107226991D01*
X141980104Y-107076679D01*
X141980106Y-107076675D01*
X141980109Y-107076673D01*
X142065890Y-106958604D01*
X142105051Y-106904703D01*
X142109793Y-106895395D01*
X142157763Y-106844598D01*
X142225583Y-106827798D01*
X142291719Y-106850332D01*
X142330763Y-106895387D01*
X142335373Y-106904434D01*
X142374728Y-106958603D01*
X143007037Y-106326295D01*
X143024075Y-106389880D01*
G37*
%TD.AperFunction*%
%TA.AperFunction,Conductor*%
G36*
X153191960Y-73270185D02*
G01*
X153237715Y-73322989D01*
X153247659Y-73392147D01*
X153218634Y-73455703D01*
X153200407Y-73472876D01*
X153027263Y-73605733D01*
X153027256Y-73605739D01*
X152855739Y-73777256D01*
X152855733Y-73777263D01*
X152708067Y-73969706D01*
X152586777Y-74179785D01*
X152586773Y-74179794D01*
X152493947Y-74403895D01*
X152431161Y-74638214D01*
X152399500Y-74878711D01*
X152399500Y-75121288D01*
X152431161Y-75361785D01*
X152493947Y-75596104D01*
X152554242Y-75741668D01*
X152586776Y-75820212D01*
X152708064Y-76030289D01*
X152708066Y-76030292D01*
X152708067Y-76030293D01*
X152855733Y-76222736D01*
X152855739Y-76222743D01*
X153027256Y-76394260D01*
X153027263Y-76394266D01*
X153100327Y-76450330D01*
X153219711Y-76541936D01*
X153429788Y-76663224D01*
X153653900Y-76756054D01*
X153888211Y-76818838D01*
X154068586Y-76842584D01*
X154128711Y-76850500D01*
X154128712Y-76850500D01*
X154371289Y-76850500D01*
X154419388Y-76844167D01*
X154611789Y-76818838D01*
X154846100Y-76756054D01*
X155070212Y-76663224D01*
X155280289Y-76541936D01*
X155472738Y-76394265D01*
X155644265Y-76222738D01*
X155777124Y-76049591D01*
X155833552Y-76008389D01*
X155903298Y-76004234D01*
X155964218Y-76038446D01*
X155996971Y-76100163D01*
X155999500Y-76125078D01*
X155999500Y-118624921D01*
X155979815Y-118691960D01*
X155927011Y-118737715D01*
X155857853Y-118747659D01*
X155794297Y-118718634D01*
X155777124Y-118700407D01*
X155644266Y-118527263D01*
X155644260Y-118527256D01*
X155472743Y-118355739D01*
X155472736Y-118355733D01*
X155280293Y-118208067D01*
X155280292Y-118208066D01*
X155280289Y-118208064D01*
X155070212Y-118086776D01*
X155070205Y-118086773D01*
X154846104Y-117993947D01*
X154611785Y-117931161D01*
X154371289Y-117899500D01*
X154371288Y-117899500D01*
X154128712Y-117899500D01*
X154128711Y-117899500D01*
X153888214Y-117931161D01*
X153653895Y-117993947D01*
X153429794Y-118086773D01*
X153429785Y-118086777D01*
X153219706Y-118208067D01*
X153027263Y-118355733D01*
X153027256Y-118355739D01*
X152855739Y-118527256D01*
X152855733Y-118527263D01*
X152708067Y-118719706D01*
X152586777Y-118929785D01*
X152586773Y-118929794D01*
X152493947Y-119153895D01*
X152431161Y-119388214D01*
X152399500Y-119628711D01*
X152399500Y-119871288D01*
X152431161Y-120111785D01*
X152493947Y-120346104D01*
X152586773Y-120570205D01*
X152586776Y-120570212D01*
X152708064Y-120780289D01*
X152708066Y-120780292D01*
X152708067Y-120780293D01*
X152855733Y-120972736D01*
X152855739Y-120972743D01*
X153027256Y-121144260D01*
X153027263Y-121144266D01*
X153200407Y-121277124D01*
X153241610Y-121333552D01*
X153245765Y-121403298D01*
X153211553Y-121464218D01*
X153149836Y-121496971D01*
X153124921Y-121499500D01*
X118375079Y-121499500D01*
X118308040Y-121479815D01*
X118262285Y-121427011D01*
X118252341Y-121357853D01*
X118281366Y-121294297D01*
X118299593Y-121277124D01*
X118378619Y-121216484D01*
X118472738Y-121144265D01*
X118644265Y-120972738D01*
X118791936Y-120780289D01*
X118913224Y-120570212D01*
X119006054Y-120346100D01*
X119068838Y-120111789D01*
X119100500Y-119871288D01*
X119100500Y-119628712D01*
X119068838Y-119388211D01*
X119006054Y-119153900D01*
X118913224Y-118929788D01*
X118791936Y-118719711D01*
X118644265Y-118527262D01*
X118644260Y-118527256D01*
X118472743Y-118355739D01*
X118472736Y-118355733D01*
X118280293Y-118208067D01*
X118280292Y-118208066D01*
X118280289Y-118208064D01*
X118070212Y-118086776D01*
X118070205Y-118086773D01*
X117846104Y-117993947D01*
X117611785Y-117931161D01*
X117371289Y-117899500D01*
X117371288Y-117899500D01*
X117128712Y-117899500D01*
X117128711Y-117899500D01*
X116888214Y-117931161D01*
X116653895Y-117993947D01*
X116429794Y-118086773D01*
X116429785Y-118086777D01*
X116219706Y-118208067D01*
X116027263Y-118355733D01*
X116027256Y-118355739D01*
X115912181Y-118470815D01*
X115850858Y-118504300D01*
X115781166Y-118499316D01*
X115725233Y-118457444D01*
X115700816Y-118391980D01*
X115700500Y-118383134D01*
X115700500Y-105299022D01*
X116739500Y-105299022D01*
X116739500Y-107094757D01*
X116739501Y-107094763D01*
X116745908Y-107154370D01*
X116796202Y-107289215D01*
X116796206Y-107289222D01*
X116882452Y-107404431D01*
X116882455Y-107404434D01*
X116997664Y-107490680D01*
X116997671Y-107490684D01*
X117132517Y-107540978D01*
X117132516Y-107540978D01*
X117139444Y-107541722D01*
X117192127Y-107547387D01*
X118539902Y-107547386D01*
X118606941Y-107567071D01*
X118627583Y-107583705D01*
X119363181Y-108319303D01*
X119396666Y-108380626D01*
X119399500Y-108406984D01*
X119399500Y-118163330D01*
X119399499Y-118163348D01*
X119399499Y-118329054D01*
X119399498Y-118329054D01*
X119440423Y-118481786D01*
X119440424Y-118481787D01*
X119466679Y-118527262D01*
X119519480Y-118618716D01*
X119519482Y-118618718D01*
X119638349Y-118737585D01*
X119638355Y-118737590D01*
X121619139Y-120718374D01*
X121619149Y-120718385D01*
X121623479Y-120722715D01*
X121623480Y-120722716D01*
X121735284Y-120834520D01*
X121735286Y-120834521D01*
X121735290Y-120834524D01*
X121872209Y-120913573D01*
X121872216Y-120913577D01*
X121984019Y-120943534D01*
X122024942Y-120954500D01*
X122024943Y-120954500D01*
X137769331Y-120954500D01*
X137769347Y-120954501D01*
X137776943Y-120954501D01*
X137935054Y-120954501D01*
X137935057Y-120954501D01*
X138087785Y-120913577D01*
X138137904Y-120884639D01*
X138224716Y-120834520D01*
X138336520Y-120722716D01*
X138336520Y-120722714D01*
X138346728Y-120712507D01*
X138346730Y-120712504D01*
X139715158Y-119344075D01*
X139776479Y-119310592D01*
X139841151Y-119313825D01*
X139855466Y-119318477D01*
X139855471Y-119318477D01*
X139855472Y-119318478D01*
X139900255Y-119325571D01*
X140057648Y-119350500D01*
X140057649Y-119350500D01*
X140262351Y-119350500D01*
X140262352Y-119350500D01*
X140464534Y-119318477D01*
X140659219Y-119255220D01*
X140841610Y-119162287D01*
X140934590Y-119094732D01*
X141007213Y-119041971D01*
X141007215Y-119041968D01*
X141007219Y-119041966D01*
X141151966Y-118897219D01*
X141151968Y-118897215D01*
X141151971Y-118897213D01*
X141221769Y-118801142D01*
X141272287Y-118731610D01*
X141365220Y-118549219D01*
X141428477Y-118354534D01*
X141460500Y-118152352D01*
X141460500Y-117947648D01*
X141447998Y-117868712D01*
X141428477Y-117745465D01*
X141416102Y-117707379D01*
X141381000Y-117599349D01*
X141379006Y-117529512D01*
X141415086Y-117469679D01*
X141477786Y-117438850D01*
X141479535Y-117438561D01*
X141609416Y-117417990D01*
X141609417Y-117417990D01*
X141804031Y-117354755D01*
X141986349Y-117261859D01*
X142030921Y-117229474D01*
X141434409Y-116632962D01*
X141497993Y-116615925D01*
X141612007Y-116550099D01*
X141705099Y-116457007D01*
X141770925Y-116342993D01*
X141787962Y-116279409D01*
X142384474Y-116875921D01*
X142416859Y-116831349D01*
X142509755Y-116649031D01*
X142572990Y-116454417D01*
X142605000Y-116252317D01*
X142605000Y-116047681D01*
X142599902Y-116015493D01*
X142597380Y-115999568D01*
X145844500Y-115999568D01*
X145844500Y-116280431D01*
X145875942Y-116559494D01*
X145875945Y-116559512D01*
X145938439Y-116833317D01*
X145938443Y-116833329D01*
X146031200Y-117098411D01*
X146153053Y-117351442D01*
X146153055Y-117351445D01*
X146302477Y-117589248D01*
X146477584Y-117808825D01*
X146676175Y-118007416D01*
X146895752Y-118182523D01*
X147128954Y-118329054D01*
X147133557Y-118331946D01*
X147182964Y-118355739D01*
X147386592Y-118453801D01*
X147530910Y-118504300D01*
X147651670Y-118546556D01*
X147651682Y-118546560D01*
X147925491Y-118609055D01*
X147925497Y-118609055D01*
X147925505Y-118609057D01*
X148111547Y-118630018D01*
X148204569Y-118640499D01*
X148204572Y-118640500D01*
X148204575Y-118640500D01*
X148485428Y-118640500D01*
X148485429Y-118640499D01*
X148628055Y-118624429D01*
X148764494Y-118609057D01*
X148764499Y-118609056D01*
X148764509Y-118609055D01*
X149038318Y-118546560D01*
X149303408Y-118453801D01*
X149556445Y-118331945D01*
X149794248Y-118182523D01*
X150013825Y-118007416D01*
X150212416Y-117808825D01*
X150387523Y-117589248D01*
X150536945Y-117351445D01*
X150658801Y-117098408D01*
X150751560Y-116833318D01*
X150814055Y-116559509D01*
X150815116Y-116550099D01*
X150845499Y-116280431D01*
X150845500Y-116280427D01*
X150845500Y-115999572D01*
X150845499Y-115999568D01*
X150814057Y-115720505D01*
X150814054Y-115720487D01*
X150775255Y-115550499D01*
X150751560Y-115446682D01*
X150658801Y-115181592D01*
X150536945Y-114928555D01*
X150387523Y-114690752D01*
X150212416Y-114471175D01*
X150013825Y-114272584D01*
X149794248Y-114097477D01*
X149556445Y-113948055D01*
X149556442Y-113948053D01*
X149303411Y-113826200D01*
X149038329Y-113733443D01*
X149038317Y-113733439D01*
X148764512Y-113670945D01*
X148764494Y-113670942D01*
X148485431Y-113639500D01*
X148485425Y-113639500D01*
X148204575Y-113639500D01*
X148204568Y-113639500D01*
X147925505Y-113670942D01*
X147925487Y-113670945D01*
X147651682Y-113733439D01*
X147651670Y-113733443D01*
X147386588Y-113826200D01*
X147133557Y-113948053D01*
X146895753Y-114097476D01*
X146676175Y-114272583D01*
X146477583Y-114471175D01*
X146302476Y-114690753D01*
X146153053Y-114928557D01*
X146031200Y-115181588D01*
X145938443Y-115446670D01*
X145938439Y-115446682D01*
X145875945Y-115720487D01*
X145875942Y-115720505D01*
X145844500Y-115999568D01*
X142597380Y-115999568D01*
X142572990Y-115845582D01*
X142509755Y-115650968D01*
X142416859Y-115468650D01*
X142384474Y-115424077D01*
X142384474Y-115424076D01*
X141787962Y-116020589D01*
X141770925Y-115957007D01*
X141705099Y-115842993D01*
X141612007Y-115749901D01*
X141497993Y-115684075D01*
X141434408Y-115667037D01*
X142030922Y-115070524D01*
X142030626Y-115066769D01*
X141994167Y-115019489D01*
X141988188Y-114949876D01*
X142020793Y-114888081D01*
X142081631Y-114853723D01*
X142109718Y-114850500D01*
X142970218Y-114850500D01*
X142970234Y-114850501D01*
X142977830Y-114850501D01*
X143135941Y-114850501D01*
X143135944Y-114850501D01*
X143288672Y-114809577D01*
X143388273Y-114752072D01*
X143425603Y-114730520D01*
X143537407Y-114618716D01*
X143537408Y-114618713D01*
X150625478Y-107530642D01*
X150686799Y-107497159D01*
X150751473Y-107500393D01*
X150793757Y-107514133D01*
X151003713Y-107547387D01*
X151003714Y-107547387D01*
X151216286Y-107547387D01*
X151216287Y-107547387D01*
X151426243Y-107514133D01*
X151628412Y-107448444D01*
X151817816Y-107351938D01*
X151904138Y-107289222D01*
X151989786Y-107226996D01*
X151989788Y-107226993D01*
X151989792Y-107226991D01*
X152140104Y-107076679D01*
X152140106Y-107076675D01*
X152140109Y-107076673D01*
X152225890Y-106958604D01*
X152265051Y-106904703D01*
X152269793Y-106895395D01*
X152317763Y-106844598D01*
X152385583Y-106827798D01*
X152451719Y-106850332D01*
X152490763Y-106895387D01*
X152495373Y-106904434D01*
X152534728Y-106958603D01*
X153167037Y-106326295D01*
X153184075Y-106389880D01*
X153249901Y-106503894D01*
X153342993Y-106596986D01*
X153457007Y-106662812D01*
X153520590Y-106679849D01*
X152888282Y-107312156D01*
X152888282Y-107312157D01*
X152942449Y-107351511D01*
X153131782Y-107447982D01*
X153333870Y-107513644D01*
X153543754Y-107546887D01*
X153756246Y-107546887D01*
X153966127Y-107513644D01*
X153966130Y-107513644D01*
X154168217Y-107447982D01*
X154357554Y-107351509D01*
X154411716Y-107312157D01*
X154411717Y-107312157D01*
X153779408Y-106679849D01*
X153842993Y-106662812D01*
X153957007Y-106596986D01*
X154050099Y-106503894D01*
X154115925Y-106389880D01*
X154132962Y-106326295D01*
X154765270Y-106958604D01*
X154765270Y-106958603D01*
X154804622Y-106904441D01*
X154901095Y-106715104D01*
X154966757Y-106513017D01*
X154966757Y-106513014D01*
X155000000Y-106303133D01*
X155000000Y-106090640D01*
X154966757Y-105880759D01*
X154966757Y-105880756D01*
X154901095Y-105678669D01*
X154804624Y-105489336D01*
X154765270Y-105435169D01*
X154765269Y-105435169D01*
X154132962Y-106067477D01*
X154115925Y-106003894D01*
X154050099Y-105889880D01*
X153957007Y-105796788D01*
X153842993Y-105730962D01*
X153779409Y-105713924D01*
X154411716Y-105081615D01*
X154357550Y-105042262D01*
X154168217Y-104945791D01*
X153966129Y-104880129D01*
X153756246Y-104846887D01*
X153543754Y-104846887D01*
X153333872Y-104880129D01*
X153333869Y-104880129D01*
X153131782Y-104945791D01*
X152942439Y-105042267D01*
X152888282Y-105081614D01*
X152888282Y-105081615D01*
X153520591Y-105713924D01*
X153457007Y-105730962D01*
X153342993Y-105796788D01*
X153249901Y-105889880D01*
X153184075Y-106003894D01*
X153167037Y-106067478D01*
X152534728Y-105435169D01*
X152534727Y-105435169D01*
X152495380Y-105489327D01*
X152495376Y-105489333D01*
X152490760Y-105498392D01*
X152442781Y-105549184D01*
X152374959Y-105565974D01*
X152308826Y-105543430D01*
X152269794Y-105498380D01*
X152265051Y-105489071D01*
X152265049Y-105489068D01*
X152265048Y-105489066D01*
X152140109Y-105317100D01*
X151989786Y-105166777D01*
X151817820Y-105041838D01*
X151628414Y-104945331D01*
X151628413Y-104945330D01*
X151628412Y-104945330D01*
X151426243Y-104879641D01*
X151426241Y-104879640D01*
X151426240Y-104879640D01*
X151264957Y-104854095D01*
X151216287Y-104846387D01*
X151003713Y-104846387D01*
X150955042Y-104854095D01*
X150793760Y-104879640D01*
X150591585Y-104945331D01*
X150402179Y-105041838D01*
X150230213Y-105166777D01*
X150079890Y-105317100D01*
X149954949Y-105489069D01*
X149950202Y-105498386D01*
X149902227Y-105549180D01*
X149834405Y-105565974D01*
X149768271Y-105543435D01*
X149729234Y-105498382D01*
X149724626Y-105489339D01*
X149685270Y-105435169D01*
X149052962Y-106067477D01*
X149035925Y-106003894D01*
X148970099Y-105889880D01*
X148877007Y-105796788D01*
X148762993Y-105730962D01*
X148699409Y-105713924D01*
X149331716Y-105081615D01*
X149277550Y-105042262D01*
X149088217Y-104945791D01*
X148886129Y-104880129D01*
X148676246Y-104846887D01*
X148463754Y-104846887D01*
X148253872Y-104880129D01*
X148253869Y-104880129D01*
X148051782Y-104945791D01*
X147862439Y-105042267D01*
X147808282Y-105081614D01*
X147808282Y-105081615D01*
X148440591Y-105713924D01*
X148377007Y-105730962D01*
X148262993Y-105796788D01*
X148169901Y-105889880D01*
X148104075Y-106003894D01*
X148087037Y-106067478D01*
X147454728Y-105435169D01*
X147454727Y-105435169D01*
X147415380Y-105489327D01*
X147415376Y-105489333D01*
X147410760Y-105498392D01*
X147362781Y-105549184D01*
X147294959Y-105565974D01*
X147228826Y-105543430D01*
X147189794Y-105498380D01*
X147185051Y-105489071D01*
X147185049Y-105489068D01*
X147185048Y-105489066D01*
X147060109Y-105317100D01*
X146909786Y-105166777D01*
X146737820Y-105041838D01*
X146548414Y-104945331D01*
X146548413Y-104945330D01*
X146548412Y-104945330D01*
X146346243Y-104879641D01*
X146346241Y-104879640D01*
X146346240Y-104879640D01*
X146184957Y-104854095D01*
X146136287Y-104846387D01*
X145923713Y-104846387D01*
X145875042Y-104854095D01*
X145713760Y-104879640D01*
X145511585Y-104945331D01*
X145322179Y-105041838D01*
X145150213Y-105166777D01*
X144999890Y-105317100D01*
X144874949Y-105489069D01*
X144870202Y-105498386D01*
X144822227Y-105549180D01*
X144754405Y-105565974D01*
X144688271Y-105543435D01*
X144649234Y-105498382D01*
X144644626Y-105489339D01*
X144605270Y-105435169D01*
X143972962Y-106067477D01*
X143955925Y-106003894D01*
X143890099Y-105889880D01*
X143797007Y-105796788D01*
X143682993Y-105730962D01*
X143619409Y-105713924D01*
X144251716Y-105081615D01*
X144197550Y-105042262D01*
X144008217Y-104945791D01*
X143806129Y-104880129D01*
X143596246Y-104846887D01*
X143383754Y-104846887D01*
X143173872Y-104880129D01*
X143173869Y-104880129D01*
X142971782Y-104945791D01*
X142782439Y-105042267D01*
X142728282Y-105081614D01*
X142728282Y-105081615D01*
X143360591Y-105713924D01*
X143297007Y-105730962D01*
X143182993Y-105796788D01*
X143089901Y-105889880D01*
X143024075Y-106003894D01*
X143007037Y-106067478D01*
X142374728Y-105435169D01*
X142374727Y-105435169D01*
X142335380Y-105489327D01*
X142335376Y-105489333D01*
X142330760Y-105498392D01*
X142282781Y-105549184D01*
X142214959Y-105565974D01*
X142148826Y-105543430D01*
X142109794Y-105498380D01*
X142105051Y-105489071D01*
X142105049Y-105489068D01*
X142105048Y-105489066D01*
X141980109Y-105317100D01*
X141829786Y-105166777D01*
X141657820Y-105041838D01*
X141468414Y-104945331D01*
X141468413Y-104945330D01*
X141468412Y-104945330D01*
X141266243Y-104879641D01*
X141266241Y-104879640D01*
X141266240Y-104879640D01*
X141104957Y-104854095D01*
X141056287Y-104846387D01*
X140843713Y-104846387D01*
X140795042Y-104854095D01*
X140633760Y-104879640D01*
X140431585Y-104945331D01*
X140242179Y-105041838D01*
X140070213Y-105166777D01*
X139919890Y-105317100D01*
X139794949Y-105489069D01*
X139790484Y-105497833D01*
X139742509Y-105548629D01*
X139674688Y-105565423D01*
X139608553Y-105542885D01*
X139569516Y-105497833D01*
X139565050Y-105489069D01*
X139440109Y-105317100D01*
X139289786Y-105166777D01*
X139117820Y-105041838D01*
X138928414Y-104945331D01*
X138928413Y-104945330D01*
X138928412Y-104945330D01*
X138726243Y-104879641D01*
X138726241Y-104879640D01*
X138726240Y-104879640D01*
X138564957Y-104854095D01*
X138516287Y-104846387D01*
X138303713Y-104846387D01*
X138255042Y-104854095D01*
X138093760Y-104879640D01*
X137891585Y-104945331D01*
X137702179Y-105041838D01*
X137530213Y-105166777D01*
X137379890Y-105317100D01*
X137254949Y-105489069D01*
X137250484Y-105497833D01*
X137202509Y-105548629D01*
X137134688Y-105565423D01*
X137068553Y-105542885D01*
X137029516Y-105497833D01*
X137025050Y-105489069D01*
X136900109Y-105317100D01*
X136749786Y-105166777D01*
X136577820Y-105041838D01*
X136388414Y-104945331D01*
X136388413Y-104945330D01*
X136388412Y-104945330D01*
X136186243Y-104879641D01*
X136186241Y-104879640D01*
X136186240Y-104879640D01*
X136024957Y-104854095D01*
X135976287Y-104846387D01*
X135763713Y-104846387D01*
X135715042Y-104854095D01*
X135553760Y-104879640D01*
X135351585Y-104945331D01*
X135162179Y-105041838D01*
X134990213Y-105166777D01*
X134839890Y-105317100D01*
X134714949Y-105489069D01*
X134710484Y-105497833D01*
X134662509Y-105548629D01*
X134594688Y-105565423D01*
X134528553Y-105542885D01*
X134489516Y-105497833D01*
X134485050Y-105489069D01*
X134360109Y-105317100D01*
X134209786Y-105166777D01*
X134037820Y-105041838D01*
X133848414Y-104945331D01*
X133848413Y-104945330D01*
X133848412Y-104945330D01*
X133646243Y-104879641D01*
X133646241Y-104879640D01*
X133646240Y-104879640D01*
X133484957Y-104854095D01*
X133436287Y-104846387D01*
X133223713Y-104846387D01*
X133175042Y-104854095D01*
X133013760Y-104879640D01*
X132811585Y-104945331D01*
X132622179Y-105041838D01*
X132450213Y-105166777D01*
X132299890Y-105317100D01*
X132174949Y-105489069D01*
X132170202Y-105498386D01*
X132122227Y-105549180D01*
X132054405Y-105565974D01*
X131988271Y-105543435D01*
X131949234Y-105498382D01*
X131944626Y-105489339D01*
X131905270Y-105435169D01*
X131272962Y-106067477D01*
X131255925Y-106003894D01*
X131190099Y-105889880D01*
X131097007Y-105796788D01*
X130982993Y-105730962D01*
X130919409Y-105713924D01*
X131551716Y-105081615D01*
X131497550Y-105042262D01*
X131308217Y-104945791D01*
X131106129Y-104880129D01*
X130896246Y-104846887D01*
X130683754Y-104846887D01*
X130473872Y-104880129D01*
X130473869Y-104880129D01*
X130271782Y-104945791D01*
X130082439Y-105042267D01*
X130028282Y-105081614D01*
X130028282Y-105081615D01*
X130660591Y-105713924D01*
X130597007Y-105730962D01*
X130482993Y-105796788D01*
X130389901Y-105889880D01*
X130324075Y-106003894D01*
X130307037Y-106067478D01*
X129674728Y-105435169D01*
X129674727Y-105435169D01*
X129635380Y-105489327D01*
X129635376Y-105489333D01*
X129630760Y-105498392D01*
X129582781Y-105549184D01*
X129514959Y-105565974D01*
X129448826Y-105543430D01*
X129409794Y-105498380D01*
X129405051Y-105489071D01*
X129405049Y-105489068D01*
X129405048Y-105489066D01*
X129280109Y-105317100D01*
X129129786Y-105166777D01*
X128957820Y-105041838D01*
X128768414Y-104945331D01*
X128768413Y-104945330D01*
X128768412Y-104945330D01*
X128566243Y-104879641D01*
X128566241Y-104879640D01*
X128566240Y-104879640D01*
X128404957Y-104854095D01*
X128356287Y-104846387D01*
X128143713Y-104846387D01*
X128095042Y-104854095D01*
X127933760Y-104879640D01*
X127731585Y-104945331D01*
X127542179Y-105041838D01*
X127370213Y-105166777D01*
X127219890Y-105317100D01*
X127094949Y-105489069D01*
X127090202Y-105498386D01*
X127042227Y-105549180D01*
X126974405Y-105565974D01*
X126908271Y-105543435D01*
X126869234Y-105498382D01*
X126864626Y-105489339D01*
X126825270Y-105435169D01*
X126825269Y-105435169D01*
X126192962Y-106067477D01*
X126175925Y-106003894D01*
X126110099Y-105889880D01*
X126017007Y-105796788D01*
X125902993Y-105730962D01*
X125839409Y-105713924D01*
X126471716Y-105081615D01*
X126417550Y-105042262D01*
X126228217Y-104945791D01*
X126026129Y-104880129D01*
X125816246Y-104846887D01*
X125603754Y-104846887D01*
X125393872Y-104880129D01*
X125393869Y-104880129D01*
X125191782Y-104945791D01*
X125002439Y-105042267D01*
X124948282Y-105081614D01*
X124948282Y-105081615D01*
X125580591Y-105713924D01*
X125517007Y-105730962D01*
X125402993Y-105796788D01*
X125309901Y-105889880D01*
X125244075Y-106003894D01*
X125227037Y-106067478D01*
X124594728Y-105435169D01*
X124594727Y-105435169D01*
X124555380Y-105489327D01*
X124555376Y-105489333D01*
X124550760Y-105498392D01*
X124502781Y-105549184D01*
X124434959Y-105565974D01*
X124368826Y-105543430D01*
X124329794Y-105498380D01*
X124325051Y-105489071D01*
X124325049Y-105489068D01*
X124325048Y-105489066D01*
X124200109Y-105317100D01*
X124049786Y-105166777D01*
X123877820Y-105041838D01*
X123688414Y-104945331D01*
X123688413Y-104945330D01*
X123688412Y-104945330D01*
X123486243Y-104879641D01*
X123486241Y-104879640D01*
X123486240Y-104879640D01*
X123324957Y-104854095D01*
X123276287Y-104846387D01*
X123063713Y-104846387D01*
X123015042Y-104854095D01*
X122853760Y-104879640D01*
X122651585Y-104945331D01*
X122462179Y-105041838D01*
X122290213Y-105166777D01*
X122139890Y-105317100D01*
X122014949Y-105489069D01*
X122010484Y-105497833D01*
X121962509Y-105548629D01*
X121894688Y-105565423D01*
X121828553Y-105542885D01*
X121789516Y-105497833D01*
X121785050Y-105489069D01*
X121660109Y-105317100D01*
X121509786Y-105166777D01*
X121337820Y-105041838D01*
X121148414Y-104945331D01*
X121148413Y-104945330D01*
X121148412Y-104945330D01*
X120946243Y-104879641D01*
X120946241Y-104879640D01*
X120946240Y-104879640D01*
X120784957Y-104854095D01*
X120736287Y-104846387D01*
X120523713Y-104846387D01*
X120475042Y-104854095D01*
X120313760Y-104879640D01*
X120111585Y-104945331D01*
X119922179Y-105041838D01*
X119750215Y-105166776D01*
X119636673Y-105280318D01*
X119575350Y-105313802D01*
X119505658Y-105308818D01*
X119449725Y-105266946D01*
X119432810Y-105235969D01*
X119383797Y-105104558D01*
X119383793Y-105104551D01*
X119297547Y-104989342D01*
X119297544Y-104989339D01*
X119182335Y-104903093D01*
X119182328Y-104903089D01*
X119047482Y-104852795D01*
X119047483Y-104852795D01*
X118987883Y-104846388D01*
X118987881Y-104846387D01*
X118987873Y-104846387D01*
X118987864Y-104846387D01*
X117192129Y-104846387D01*
X117192123Y-104846388D01*
X117132516Y-104852795D01*
X116997671Y-104903089D01*
X116997664Y-104903093D01*
X116882455Y-104989339D01*
X116882452Y-104989342D01*
X116796206Y-105104551D01*
X116796202Y-105104558D01*
X116745908Y-105239404D01*
X116739501Y-105299003D01*
X116739500Y-105299022D01*
X115700500Y-105299022D01*
X115700500Y-87852135D01*
X116739500Y-87852135D01*
X116739500Y-89647870D01*
X116739501Y-89647876D01*
X116745908Y-89707483D01*
X116796202Y-89842328D01*
X116796206Y-89842335D01*
X116882452Y-89957544D01*
X116882455Y-89957547D01*
X116997664Y-90043793D01*
X116997671Y-90043797D01*
X117132517Y-90094091D01*
X117132516Y-90094091D01*
X117139444Y-90094835D01*
X117192127Y-90100500D01*
X118987872Y-90100499D01*
X119047483Y-90094091D01*
X119182331Y-90043796D01*
X119297546Y-89957546D01*
X119383796Y-89842331D01*
X119432810Y-89710916D01*
X119474681Y-89654984D01*
X119540145Y-89630566D01*
X119608418Y-89645417D01*
X119636673Y-89666569D01*
X119750213Y-89780109D01*
X119922179Y-89905048D01*
X119922181Y-89905049D01*
X119922184Y-89905051D01*
X120111588Y-90001557D01*
X120313757Y-90067246D01*
X120523713Y-90100500D01*
X120523714Y-90100500D01*
X120736286Y-90100500D01*
X120736287Y-90100500D01*
X120946243Y-90067246D01*
X121148412Y-90001557D01*
X121337816Y-89905051D01*
X121424138Y-89842335D01*
X121509786Y-89780109D01*
X121509788Y-89780106D01*
X121509792Y-89780104D01*
X121660104Y-89629792D01*
X121660106Y-89629788D01*
X121660109Y-89629786D01*
X121785048Y-89457820D01*
X121785047Y-89457820D01*
X121785051Y-89457816D01*
X121789514Y-89449054D01*
X121837488Y-89398259D01*
X121905308Y-89381463D01*
X121971444Y-89403999D01*
X122010486Y-89449056D01*
X122014951Y-89457820D01*
X122139890Y-89629786D01*
X122290213Y-89780109D01*
X122462179Y-89905048D01*
X122462181Y-89905049D01*
X122462184Y-89905051D01*
X122651588Y-90001557D01*
X122853757Y-90067246D01*
X123063713Y-90100500D01*
X123063714Y-90100500D01*
X123276286Y-90100500D01*
X123276287Y-90100500D01*
X123486243Y-90067246D01*
X123688412Y-90001557D01*
X123877816Y-89905051D01*
X123964138Y-89842335D01*
X124049786Y-89780109D01*
X124049788Y-89780106D01*
X124049792Y-89780104D01*
X124200104Y-89629792D01*
X124200106Y-89629788D01*
X124200109Y-89629786D01*
X124285890Y-89511717D01*
X124325051Y-89457816D01*
X124329793Y-89448508D01*
X124377763Y-89397711D01*
X124445583Y-89380911D01*
X124511719Y-89403445D01*
X124550763Y-89448500D01*
X124555373Y-89457547D01*
X124594728Y-89511716D01*
X125227037Y-88879408D01*
X125244075Y-88942993D01*
X125309901Y-89057007D01*
X125402993Y-89150099D01*
X125517007Y-89215925D01*
X125580590Y-89232962D01*
X124948282Y-89865269D01*
X124948282Y-89865270D01*
X125002449Y-89904624D01*
X125191782Y-90001095D01*
X125393870Y-90066757D01*
X125603754Y-90100000D01*
X125816246Y-90100000D01*
X126026127Y-90066757D01*
X126026130Y-90066757D01*
X126228217Y-90001095D01*
X126417554Y-89904622D01*
X126471716Y-89865270D01*
X126471717Y-89865270D01*
X125839408Y-89232962D01*
X125902993Y-89215925D01*
X126017007Y-89150099D01*
X126110099Y-89057007D01*
X126175925Y-88942993D01*
X126192962Y-88879409D01*
X126825270Y-89511717D01*
X126825270Y-89511716D01*
X126864622Y-89457555D01*
X126869232Y-89448507D01*
X126917205Y-89397709D01*
X126985025Y-89380912D01*
X127051161Y-89403447D01*
X127090204Y-89448504D01*
X127094949Y-89457817D01*
X127219890Y-89629786D01*
X127370213Y-89780109D01*
X127542179Y-89905048D01*
X127542181Y-89905049D01*
X127542184Y-89905051D01*
X127731588Y-90001557D01*
X127933757Y-90067246D01*
X128143713Y-90100500D01*
X128143714Y-90100500D01*
X128356286Y-90100500D01*
X128356287Y-90100500D01*
X128566243Y-90067246D01*
X128768412Y-90001557D01*
X128957816Y-89905051D01*
X129044138Y-89842335D01*
X129129786Y-89780109D01*
X129129788Y-89780106D01*
X129129792Y-89780104D01*
X129280104Y-89629792D01*
X129280106Y-89629788D01*
X129280109Y-89629786D01*
X129365890Y-89511717D01*
X129405051Y-89457816D01*
X129409793Y-89448508D01*
X129457763Y-89397711D01*
X129525583Y-89380911D01*
X129591719Y-89403445D01*
X129630763Y-89448500D01*
X129635373Y-89457547D01*
X129674728Y-89511716D01*
X130307037Y-88879408D01*
X130324075Y-88942993D01*
X130389901Y-89057007D01*
X130482993Y-89150099D01*
X130597007Y-89215925D01*
X130660590Y-89232962D01*
X130028282Y-89865269D01*
X130028282Y-89865270D01*
X130082449Y-89904624D01*
X130271782Y-90001095D01*
X130473870Y-90066757D01*
X130683754Y-90100000D01*
X130896246Y-90100000D01*
X131106127Y-90066757D01*
X131106130Y-90066757D01*
X131308217Y-90001095D01*
X131497554Y-89904622D01*
X131551716Y-89865270D01*
X131551717Y-89865270D01*
X130919408Y-89232962D01*
X130982993Y-89215925D01*
X131097007Y-89150099D01*
X131190099Y-89057007D01*
X131255925Y-88942993D01*
X131272962Y-88879409D01*
X131905270Y-89511717D01*
X131905270Y-89511716D01*
X131944622Y-89457555D01*
X131949232Y-89448507D01*
X131997205Y-89397709D01*
X132065025Y-89380912D01*
X132131161Y-89403447D01*
X132170204Y-89448504D01*
X132174949Y-89457817D01*
X132299890Y-89629786D01*
X132450213Y-89780109D01*
X132622179Y-89905048D01*
X132622181Y-89905049D01*
X132622184Y-89905051D01*
X132811588Y-90001557D01*
X133013757Y-90067246D01*
X133223713Y-90100500D01*
X133223714Y-90100500D01*
X133436286Y-90100500D01*
X133436287Y-90100500D01*
X133646243Y-90067246D01*
X133848412Y-90001557D01*
X134037816Y-89905051D01*
X134124138Y-89842335D01*
X134209786Y-89780109D01*
X134209788Y-89780106D01*
X134209792Y-89780104D01*
X134360104Y-89629792D01*
X134360106Y-89629788D01*
X134360109Y-89629786D01*
X134485048Y-89457820D01*
X134485047Y-89457820D01*
X134485051Y-89457816D01*
X134489514Y-89449054D01*
X134537488Y-89398259D01*
X134605308Y-89381463D01*
X134671444Y-89403999D01*
X134710486Y-89449056D01*
X134714951Y-89457820D01*
X134839890Y-89629786D01*
X134990213Y-89780109D01*
X135162179Y-89905048D01*
X135162181Y-89905049D01*
X135162184Y-89905051D01*
X135351588Y-90001557D01*
X135553757Y-90067246D01*
X135763713Y-90100500D01*
X135763714Y-90100500D01*
X135976286Y-90100500D01*
X135976287Y-90100500D01*
X136186243Y-90067246D01*
X136388412Y-90001557D01*
X136577816Y-89905051D01*
X136664138Y-89842335D01*
X136749786Y-89780109D01*
X136749788Y-89780106D01*
X136749792Y-89780104D01*
X136900104Y-89629792D01*
X136900106Y-89629788D01*
X136900109Y-89629786D01*
X137025048Y-89457820D01*
X137025047Y-89457820D01*
X137025051Y-89457816D01*
X137029514Y-89449054D01*
X137077488Y-89398259D01*
X137145308Y-89381463D01*
X137211444Y-89403999D01*
X137250486Y-89449056D01*
X137254951Y-89457820D01*
X137379890Y-89629786D01*
X137530213Y-89780109D01*
X137702179Y-89905048D01*
X137702181Y-89905049D01*
X137702184Y-89905051D01*
X137891588Y-90001557D01*
X138093757Y-90067246D01*
X138303713Y-90100500D01*
X138303714Y-90100500D01*
X138516286Y-90100500D01*
X138516287Y-90100500D01*
X138726243Y-90067246D01*
X138928412Y-90001557D01*
X139117816Y-89905051D01*
X139204138Y-89842335D01*
X139289786Y-89780109D01*
X139289788Y-89780106D01*
X139289792Y-89780104D01*
X139440104Y-89629792D01*
X139440106Y-89629788D01*
X139440109Y-89629786D01*
X139565048Y-89457820D01*
X139565047Y-89457820D01*
X139565051Y-89457816D01*
X139569514Y-89449054D01*
X139617488Y-89398259D01*
X139685308Y-89381463D01*
X139751444Y-89403999D01*
X139790486Y-89449056D01*
X139794951Y-89457820D01*
X139919890Y-89629786D01*
X140070213Y-89780109D01*
X140242179Y-89905048D01*
X140242181Y-89905049D01*
X140242184Y-89905051D01*
X140431588Y-90001557D01*
X140633757Y-90067246D01*
X140843713Y-90100500D01*
X140843714Y-90100500D01*
X141056286Y-90100500D01*
X141056287Y-90100500D01*
X141266243Y-90067246D01*
X141468412Y-90001557D01*
X141657816Y-89905051D01*
X141744138Y-89842335D01*
X141829786Y-89780109D01*
X141829788Y-89780106D01*
X141829792Y-89780104D01*
X141980104Y-89629792D01*
X141980106Y-89629788D01*
X141980109Y-89629786D01*
X142065890Y-89511717D01*
X142105051Y-89457816D01*
X142109793Y-89448508D01*
X142157763Y-89397711D01*
X142225583Y-89380911D01*
X142291719Y-89403445D01*
X142330763Y-89448500D01*
X142335373Y-89457547D01*
X142374728Y-89511716D01*
X143007037Y-88879408D01*
X143024075Y-88942993D01*
X143089901Y-89057007D01*
X143182993Y-89150099D01*
X143297007Y-89215925D01*
X143360590Y-89232962D01*
X142728282Y-89865269D01*
X142728282Y-89865270D01*
X142782449Y-89904624D01*
X142971782Y-90001095D01*
X143173870Y-90066757D01*
X143383754Y-90100000D01*
X143596246Y-90100000D01*
X143806127Y-90066757D01*
X143806130Y-90066757D01*
X144008217Y-90001095D01*
X144197554Y-89904622D01*
X144251716Y-89865270D01*
X144251717Y-89865270D01*
X143619408Y-89232962D01*
X143682993Y-89215925D01*
X143797007Y-89150099D01*
X143890099Y-89057007D01*
X143955925Y-88942993D01*
X143972962Y-88879408D01*
X144605270Y-89511717D01*
X144605270Y-89511716D01*
X144644622Y-89457555D01*
X144649232Y-89448507D01*
X144697205Y-89397709D01*
X144765025Y-89380912D01*
X144831161Y-89403447D01*
X144870204Y-89448504D01*
X144874949Y-89457817D01*
X144999890Y-89629786D01*
X145150213Y-89780109D01*
X145322179Y-89905048D01*
X145322181Y-89905049D01*
X145322184Y-89905051D01*
X145511588Y-90001557D01*
X145713757Y-90067246D01*
X145923713Y-90100500D01*
X145923714Y-90100500D01*
X146136286Y-90100500D01*
X146136287Y-90100500D01*
X146346243Y-90067246D01*
X146548412Y-90001557D01*
X146737816Y-89905051D01*
X146824138Y-89842335D01*
X146909786Y-89780109D01*
X146909788Y-89780106D01*
X146909792Y-89780104D01*
X147060104Y-89629792D01*
X147060106Y-89629788D01*
X147060109Y-89629786D01*
X147145890Y-89511717D01*
X147185051Y-89457816D01*
X147189793Y-89448508D01*
X147237763Y-89397711D01*
X147305583Y-89380911D01*
X147371719Y-89403445D01*
X147410763Y-89448500D01*
X147415373Y-89457547D01*
X147454728Y-89511716D01*
X148087037Y-88879408D01*
X148104075Y-88942993D01*
X148169901Y-89057007D01*
X148262993Y-89150099D01*
X148377007Y-89215925D01*
X148440590Y-89232962D01*
X147808282Y-89865269D01*
X147808282Y-89865270D01*
X147862449Y-89904624D01*
X148051782Y-90001095D01*
X148253870Y-90066757D01*
X148463754Y-90100000D01*
X148676246Y-90100000D01*
X148886127Y-90066757D01*
X148886130Y-90066757D01*
X149088217Y-90001095D01*
X149277554Y-89904622D01*
X149331716Y-89865270D01*
X149331717Y-89865270D01*
X148699408Y-89232962D01*
X148762993Y-89215925D01*
X148877007Y-89150099D01*
X148970099Y-89057007D01*
X149035925Y-88942993D01*
X149052962Y-88879408D01*
X149685270Y-89511717D01*
X149685270Y-89511716D01*
X149724622Y-89457555D01*
X149729232Y-89448507D01*
X149777205Y-89397709D01*
X149845025Y-89380912D01*
X149911161Y-89403447D01*
X149950204Y-89448504D01*
X149954949Y-89457817D01*
X150079890Y-89629786D01*
X150230213Y-89780109D01*
X150402179Y-89905048D01*
X150402181Y-89905049D01*
X150402184Y-89905051D01*
X150591588Y-90001557D01*
X150793757Y-90067246D01*
X151003713Y-90100500D01*
X151003714Y-90100500D01*
X151216286Y-90100500D01*
X151216287Y-90100500D01*
X151426243Y-90067246D01*
X151628412Y-90001557D01*
X151817816Y-89905051D01*
X151904138Y-89842335D01*
X151989786Y-89780109D01*
X151989788Y-89780106D01*
X151989792Y-89780104D01*
X152140104Y-89629792D01*
X152140106Y-89629788D01*
X152140109Y-89629786D01*
X152225890Y-89511717D01*
X152265051Y-89457816D01*
X152269793Y-89448508D01*
X152317763Y-89397711D01*
X152385583Y-89380911D01*
X152451719Y-89403445D01*
X152490763Y-89448500D01*
X152495373Y-89457547D01*
X152534728Y-89511716D01*
X153167037Y-88879408D01*
X153184075Y-88942993D01*
X153249901Y-89057007D01*
X153342993Y-89150099D01*
X153457007Y-89215925D01*
X153520590Y-89232962D01*
X152888282Y-89865269D01*
X152888282Y-89865270D01*
X152942449Y-89904624D01*
X153131782Y-90001095D01*
X153333870Y-90066757D01*
X153543754Y-90100000D01*
X153756246Y-90100000D01*
X153966127Y-90066757D01*
X153966130Y-90066757D01*
X154168217Y-90001095D01*
X154357554Y-89904622D01*
X154411716Y-89865270D01*
X154411717Y-89865270D01*
X153779408Y-89232962D01*
X153842993Y-89215925D01*
X153957007Y-89150099D01*
X154050099Y-89057007D01*
X154115925Y-88942993D01*
X154132962Y-88879408D01*
X154765270Y-89511717D01*
X154765270Y-89511716D01*
X154804622Y-89457554D01*
X154901095Y-89268217D01*
X154966757Y-89066130D01*
X154966757Y-89066127D01*
X155000000Y-88856246D01*
X155000000Y-88643753D01*
X154966757Y-88433872D01*
X154966757Y-88433869D01*
X154901095Y-88231782D01*
X154804624Y-88042449D01*
X154765270Y-87988282D01*
X154765269Y-87988282D01*
X154132962Y-88620590D01*
X154115925Y-88557007D01*
X154050099Y-88442993D01*
X153957007Y-88349901D01*
X153842993Y-88284075D01*
X153779409Y-88267037D01*
X154411716Y-87634728D01*
X154357550Y-87595375D01*
X154168217Y-87498904D01*
X153966129Y-87433242D01*
X153756246Y-87400000D01*
X153543754Y-87400000D01*
X153333872Y-87433242D01*
X153333869Y-87433242D01*
X153131782Y-87498904D01*
X152942439Y-87595380D01*
X152888282Y-87634727D01*
X152888282Y-87634728D01*
X153520591Y-88267037D01*
X153457007Y-88284075D01*
X153342993Y-88349901D01*
X153249901Y-88442993D01*
X153184075Y-88557007D01*
X153167037Y-88620591D01*
X152534728Y-87988282D01*
X152534727Y-87988282D01*
X152495380Y-88042440D01*
X152495376Y-88042446D01*
X152490760Y-88051505D01*
X152442781Y-88102297D01*
X152374959Y-88119087D01*
X152308826Y-88096543D01*
X152269794Y-88051493D01*
X152265051Y-88042184D01*
X152265049Y-88042181D01*
X152265048Y-88042179D01*
X152140109Y-87870213D01*
X151989786Y-87719890D01*
X151817820Y-87594951D01*
X151628414Y-87498444D01*
X151628413Y-87498443D01*
X151628412Y-87498443D01*
X151426243Y-87432754D01*
X151426241Y-87432753D01*
X151426240Y-87432753D01*
X151264957Y-87407208D01*
X151216287Y-87399500D01*
X151003713Y-87399500D01*
X150955042Y-87407208D01*
X150793760Y-87432753D01*
X150591585Y-87498444D01*
X150402179Y-87594951D01*
X150230213Y-87719890D01*
X150079890Y-87870213D01*
X149954949Y-88042182D01*
X149950202Y-88051499D01*
X149902227Y-88102293D01*
X149834405Y-88119087D01*
X149768271Y-88096548D01*
X149729234Y-88051495D01*
X149724626Y-88042452D01*
X149685270Y-87988282D01*
X149052962Y-88620590D01*
X149035925Y-88557007D01*
X148970099Y-88442993D01*
X148877007Y-88349901D01*
X148762993Y-88284075D01*
X148699409Y-88267037D01*
X149331716Y-87634728D01*
X149277550Y-87595375D01*
X149088217Y-87498904D01*
X148886129Y-87433242D01*
X148676246Y-87400000D01*
X148463754Y-87400000D01*
X148253872Y-87433242D01*
X148253869Y-87433242D01*
X148051782Y-87498904D01*
X147862439Y-87595380D01*
X147808282Y-87634727D01*
X147808282Y-87634728D01*
X148440591Y-88267037D01*
X148377007Y-88284075D01*
X148262993Y-88349901D01*
X148169901Y-88442993D01*
X148104075Y-88557007D01*
X148087037Y-88620591D01*
X147454728Y-87988282D01*
X147454727Y-87988282D01*
X147415380Y-88042440D01*
X147415376Y-88042446D01*
X147410760Y-88051505D01*
X147362781Y-88102297D01*
X147294959Y-88119087D01*
X147228826Y-88096543D01*
X147189794Y-88051493D01*
X147185051Y-88042184D01*
X147185049Y-88042181D01*
X147185048Y-88042179D01*
X147060109Y-87870213D01*
X146909786Y-87719890D01*
X146737820Y-87594951D01*
X146548414Y-87498444D01*
X146548413Y-87498443D01*
X146548412Y-87498443D01*
X146346243Y-87432754D01*
X146346241Y-87432753D01*
X146346240Y-87432753D01*
X146184957Y-87407208D01*
X146136287Y-87399500D01*
X145923713Y-87399500D01*
X145875042Y-87407208D01*
X145713760Y-87432753D01*
X145511585Y-87498444D01*
X145322179Y-87594951D01*
X145150213Y-87719890D01*
X144999890Y-87870213D01*
X144874949Y-88042182D01*
X144870202Y-88051499D01*
X144822227Y-88102293D01*
X144754405Y-88119087D01*
X144688271Y-88096548D01*
X144649234Y-88051495D01*
X144644626Y-88042452D01*
X144605270Y-87988282D01*
X143972962Y-88620590D01*
X143955925Y-88557007D01*
X143890099Y-88442993D01*
X143797007Y-88349901D01*
X143682993Y-88284075D01*
X143619409Y-88267037D01*
X144251716Y-87634728D01*
X144197550Y-87595375D01*
X144008217Y-87498904D01*
X143806129Y-87433242D01*
X143596246Y-87400000D01*
X143383754Y-87400000D01*
X143173872Y-87433242D01*
X143173869Y-87433242D01*
X142971782Y-87498904D01*
X142782439Y-87595380D01*
X142728282Y-87634727D01*
X142728282Y-87634728D01*
X143360591Y-88267037D01*
X143297007Y-88284075D01*
X143182993Y-88349901D01*
X143089901Y-88442993D01*
X143024075Y-88557007D01*
X143007037Y-88620591D01*
X142374728Y-87988282D01*
X142374727Y-87988282D01*
X142335380Y-88042440D01*
X142335376Y-88042446D01*
X142330760Y-88051505D01*
X142282781Y-88102297D01*
X142214959Y-88119087D01*
X142148826Y-88096543D01*
X142109794Y-88051493D01*
X142105051Y-88042184D01*
X142105049Y-88042181D01*
X142105048Y-88042179D01*
X141980109Y-87870213D01*
X141829786Y-87719890D01*
X141657820Y-87594951D01*
X141468414Y-87498444D01*
X141468413Y-87498443D01*
X141468412Y-87498443D01*
X141266243Y-87432754D01*
X141266241Y-87432753D01*
X141266240Y-87432753D01*
X141104957Y-87407208D01*
X141056287Y-87399500D01*
X140843713Y-87399500D01*
X140795042Y-87407208D01*
X140633760Y-87432753D01*
X140431585Y-87498444D01*
X140242179Y-87594951D01*
X140070213Y-87719890D01*
X139919890Y-87870213D01*
X139794949Y-88042182D01*
X139790484Y-88050946D01*
X139742509Y-88101742D01*
X139674688Y-88118536D01*
X139608553Y-88095998D01*
X139569516Y-88050946D01*
X139565050Y-88042182D01*
X139440109Y-87870213D01*
X139289786Y-87719890D01*
X139117820Y-87594951D01*
X138928414Y-87498444D01*
X138928413Y-87498443D01*
X138928412Y-87498443D01*
X138726243Y-87432754D01*
X138726241Y-87432753D01*
X138726240Y-87432753D01*
X138564957Y-87407208D01*
X138516287Y-87399500D01*
X138303713Y-87399500D01*
X138255042Y-87407208D01*
X138093760Y-87432753D01*
X137891585Y-87498444D01*
X137702179Y-87594951D01*
X137530213Y-87719890D01*
X137379890Y-87870213D01*
X137254949Y-88042182D01*
X137250484Y-88050946D01*
X137202509Y-88101742D01*
X137134688Y-88118536D01*
X137068553Y-88095998D01*
X137029516Y-88050946D01*
X137025050Y-88042182D01*
X136900109Y-87870213D01*
X136749786Y-87719890D01*
X136577820Y-87594951D01*
X136388414Y-87498444D01*
X136388413Y-87498443D01*
X136388412Y-87498443D01*
X136186243Y-87432754D01*
X136186241Y-87432753D01*
X136186240Y-87432753D01*
X136024957Y-87407208D01*
X135976287Y-87399500D01*
X135763713Y-87399500D01*
X135715042Y-87407208D01*
X135553760Y-87432753D01*
X135351585Y-87498444D01*
X135162179Y-87594951D01*
X134990213Y-87719890D01*
X134839890Y-87870213D01*
X134714949Y-88042182D01*
X134710484Y-88050946D01*
X134662509Y-88101742D01*
X134594688Y-88118536D01*
X134528553Y-88095998D01*
X134489516Y-88050946D01*
X134485050Y-88042182D01*
X134360109Y-87870213D01*
X134209786Y-87719890D01*
X134037820Y-87594951D01*
X133848414Y-87498444D01*
X133848413Y-87498443D01*
X133848412Y-87498443D01*
X133646243Y-87432754D01*
X133646241Y-87432753D01*
X133646240Y-87432753D01*
X133484957Y-87407208D01*
X133436287Y-87399500D01*
X133223713Y-87399500D01*
X133175042Y-87407208D01*
X133013760Y-87432753D01*
X132811585Y-87498444D01*
X132622179Y-87594951D01*
X132450213Y-87719890D01*
X132299890Y-87870213D01*
X132174949Y-88042182D01*
X132170202Y-88051499D01*
X132122227Y-88102293D01*
X132054405Y-88119087D01*
X131988271Y-88096548D01*
X131949234Y-88051495D01*
X131944626Y-88042452D01*
X131905270Y-87988282D01*
X131272962Y-88620590D01*
X131255925Y-88557007D01*
X131190099Y-88442993D01*
X131097007Y-88349901D01*
X130982993Y-88284075D01*
X130919409Y-88267037D01*
X131551716Y-87634728D01*
X131497550Y-87595375D01*
X131308217Y-87498904D01*
X131106129Y-87433242D01*
X130896246Y-87400000D01*
X130683754Y-87400000D01*
X130473872Y-87433242D01*
X130473869Y-87433242D01*
X130271782Y-87498904D01*
X130082439Y-87595380D01*
X130028282Y-87634727D01*
X130028282Y-87634728D01*
X130660591Y-88267037D01*
X130597007Y-88284075D01*
X130482993Y-88349901D01*
X130389901Y-88442993D01*
X130324075Y-88557007D01*
X130307037Y-88620591D01*
X129674728Y-87988282D01*
X129674727Y-87988282D01*
X129635380Y-88042440D01*
X129635376Y-88042446D01*
X129630760Y-88051505D01*
X129582781Y-88102297D01*
X129514959Y-88119087D01*
X129448826Y-88096543D01*
X129409794Y-88051493D01*
X129405051Y-88042184D01*
X129405049Y-88042181D01*
X129405048Y-88042179D01*
X129280109Y-87870213D01*
X129129786Y-87719890D01*
X128957820Y-87594951D01*
X128768414Y-87498444D01*
X128768413Y-87498443D01*
X128768412Y-87498443D01*
X128566243Y-87432754D01*
X128566241Y-87432753D01*
X128566240Y-87432753D01*
X128404957Y-87407208D01*
X128356287Y-87399500D01*
X128143713Y-87399500D01*
X128095042Y-87407208D01*
X127933760Y-87432753D01*
X127731585Y-87498444D01*
X127542179Y-87594951D01*
X127370213Y-87719890D01*
X127219890Y-87870213D01*
X127094949Y-88042182D01*
X127090202Y-88051499D01*
X127042227Y-88102293D01*
X126974405Y-88119087D01*
X126908271Y-88096548D01*
X126869234Y-88051495D01*
X126864626Y-88042452D01*
X126825270Y-87988282D01*
X126825269Y-87988282D01*
X126192962Y-88620590D01*
X126175925Y-88557007D01*
X126110099Y-88442993D01*
X126017007Y-88349901D01*
X125902993Y-88284075D01*
X125839409Y-88267037D01*
X126471716Y-87634728D01*
X126417550Y-87595375D01*
X126228217Y-87498904D01*
X126026129Y-87433242D01*
X125816246Y-87400000D01*
X125603754Y-87400000D01*
X125393872Y-87433242D01*
X125393869Y-87433242D01*
X125191782Y-87498904D01*
X125002439Y-87595380D01*
X124948282Y-87634727D01*
X124948282Y-87634728D01*
X125580591Y-88267037D01*
X125517007Y-88284075D01*
X125402993Y-88349901D01*
X125309901Y-88442993D01*
X125244075Y-88557007D01*
X125227037Y-88620591D01*
X124594728Y-87988282D01*
X124594727Y-87988282D01*
X124555380Y-88042440D01*
X124555376Y-88042446D01*
X124550760Y-88051505D01*
X124502781Y-88102297D01*
X124434959Y-88119087D01*
X124368826Y-88096543D01*
X124329794Y-88051493D01*
X124325051Y-88042184D01*
X124325049Y-88042181D01*
X124325048Y-88042179D01*
X124200109Y-87870213D01*
X124049786Y-87719890D01*
X123877820Y-87594951D01*
X123688414Y-87498444D01*
X123688413Y-87498443D01*
X123688412Y-87498443D01*
X123486243Y-87432754D01*
X123486241Y-87432753D01*
X123486240Y-87432753D01*
X123324957Y-87407208D01*
X123276287Y-87399500D01*
X123063713Y-87399500D01*
X123015042Y-87407208D01*
X122853760Y-87432753D01*
X122651585Y-87498444D01*
X122462179Y-87594951D01*
X122290213Y-87719890D01*
X122139890Y-87870213D01*
X122014949Y-88042182D01*
X122010484Y-88050946D01*
X121962509Y-88101742D01*
X121894688Y-88118536D01*
X121828553Y-88095998D01*
X121789516Y-88050946D01*
X121785050Y-88042182D01*
X121660109Y-87870213D01*
X121509786Y-87719890D01*
X121337820Y-87594951D01*
X121148414Y-87498444D01*
X121148413Y-87498443D01*
X121148412Y-87498443D01*
X120946243Y-87432754D01*
X120946241Y-87432753D01*
X120946240Y-87432753D01*
X120784957Y-87407208D01*
X120736287Y-87399500D01*
X120523713Y-87399500D01*
X120475042Y-87407208D01*
X120313760Y-87432753D01*
X120111585Y-87498444D01*
X119922179Y-87594951D01*
X119750215Y-87719889D01*
X119636673Y-87833431D01*
X119575350Y-87866915D01*
X119505658Y-87861931D01*
X119449725Y-87820059D01*
X119432810Y-87789082D01*
X119383797Y-87657671D01*
X119383793Y-87657664D01*
X119297547Y-87542455D01*
X119297544Y-87542452D01*
X119182335Y-87456206D01*
X119182328Y-87456202D01*
X119047482Y-87405908D01*
X119047483Y-87405908D01*
X118987883Y-87399501D01*
X118987881Y-87399500D01*
X118987873Y-87399500D01*
X118987864Y-87399500D01*
X117192129Y-87399500D01*
X117192123Y-87399501D01*
X117132516Y-87405908D01*
X116997671Y-87456202D01*
X116997664Y-87456206D01*
X116882455Y-87542452D01*
X116882452Y-87542455D01*
X116796206Y-87657664D01*
X116796202Y-87657671D01*
X116745908Y-87792517D01*
X116739501Y-87852116D01*
X116739500Y-87852135D01*
X115700500Y-87852135D01*
X115700500Y-78716455D01*
X120844500Y-78716455D01*
X120844500Y-78997318D01*
X120875942Y-79276381D01*
X120875945Y-79276399D01*
X120938439Y-79550204D01*
X120938443Y-79550216D01*
X121031200Y-79815298D01*
X121153053Y-80068329D01*
X121153055Y-80068332D01*
X121302477Y-80306135D01*
X121477584Y-80525712D01*
X121676175Y-80724303D01*
X121895752Y-80899410D01*
X122133555Y-81048832D01*
X122386592Y-81170688D01*
X122585680Y-81240352D01*
X122651670Y-81263443D01*
X122651682Y-81263447D01*
X122925491Y-81325942D01*
X122925497Y-81325942D01*
X122925505Y-81325944D01*
X123111547Y-81346905D01*
X123204569Y-81357386D01*
X123204572Y-81357387D01*
X123204575Y-81357387D01*
X123485428Y-81357387D01*
X123485429Y-81357386D01*
X123628055Y-81341316D01*
X123764494Y-81325944D01*
X123764499Y-81325943D01*
X123764509Y-81325942D01*
X124038318Y-81263447D01*
X124303408Y-81170688D01*
X124556445Y-81048832D01*
X124794248Y-80899410D01*
X125013825Y-80724303D01*
X125212416Y-80525712D01*
X125387523Y-80306135D01*
X125536945Y-80068332D01*
X125658801Y-79815295D01*
X125751560Y-79550205D01*
X125814055Y-79276396D01*
X125845500Y-78997312D01*
X125845500Y-78716462D01*
X125825896Y-78542468D01*
X125814057Y-78437392D01*
X125814054Y-78437374D01*
X125751560Y-78163569D01*
X125751556Y-78163557D01*
X125728465Y-78097567D01*
X125658801Y-77898479D01*
X125536945Y-77645442D01*
X125387523Y-77407639D01*
X125212416Y-77188062D01*
X125013825Y-76989471D01*
X125013824Y-76989470D01*
X124947540Y-76936610D01*
X124832081Y-76844535D01*
X129699500Y-76844535D01*
X129699500Y-77049238D01*
X129731522Y-77251421D01*
X129794781Y-77446110D01*
X129887715Y-77628500D01*
X130008028Y-77794100D01*
X130152786Y-77938858D01*
X130307749Y-78051443D01*
X130318390Y-78059174D01*
X130434607Y-78118390D01*
X130500776Y-78152105D01*
X130500778Y-78152105D01*
X130500781Y-78152107D01*
X130695466Y-78215364D01*
X130825809Y-78236008D01*
X130888942Y-78265937D01*
X130925874Y-78325248D01*
X130924876Y-78395111D01*
X130924341Y-78396799D01*
X130877010Y-78542465D01*
X130877010Y-78542468D01*
X130845000Y-78744569D01*
X130845000Y-78949204D01*
X130877010Y-79151305D01*
X130877010Y-79151308D01*
X130924497Y-79297455D01*
X130926492Y-79367296D01*
X130890412Y-79427129D01*
X130827711Y-79457957D01*
X130825964Y-79458246D01*
X130695582Y-79478896D01*
X130500968Y-79542131D01*
X130318649Y-79635028D01*
X130318640Y-79635034D01*
X130171690Y-79741799D01*
X130171689Y-79741800D01*
X130746046Y-80316157D01*
X130692993Y-80346788D01*
X130599901Y-80439880D01*
X130569270Y-80492933D01*
X129994913Y-79918576D01*
X129994912Y-79918577D01*
X129888147Y-80065527D01*
X129888141Y-80065536D01*
X129795244Y-80247855D01*
X129732009Y-80442469D01*
X129700000Y-80644569D01*
X129700000Y-80849204D01*
X129732009Y-81051304D01*
X129795244Y-81245918D01*
X129888140Y-81428236D01*
X129994913Y-81575195D01*
X129994914Y-81575196D01*
X130569270Y-81000839D01*
X130599901Y-81053894D01*
X130692993Y-81146986D01*
X130746046Y-81177616D01*
X130171689Y-81751972D01*
X130318650Y-81858746D01*
X130500968Y-81951642D01*
X130695582Y-82014877D01*
X130897683Y-82046887D01*
X131102317Y-82046887D01*
X131304417Y-82014877D01*
X131499031Y-81951642D01*
X131681349Y-81858746D01*
X131828308Y-81751972D01*
X131828309Y-81751971D01*
X131253954Y-81177616D01*
X131307007Y-81146986D01*
X131400099Y-81053894D01*
X131430729Y-81000840D01*
X132005085Y-81575196D01*
X132005085Y-81575195D01*
X132044372Y-81521123D01*
X132099701Y-81478457D01*
X132169315Y-81472478D01*
X132231110Y-81505083D01*
X132245008Y-81521123D01*
X132298028Y-81594099D01*
X132298032Y-81594104D01*
X132442786Y-81738858D01*
X132597749Y-81851443D01*
X132608390Y-81859174D01*
X132697212Y-81904431D01*
X132790776Y-81952105D01*
X132790778Y-81952105D01*
X132790781Y-81952107D01*
X132895137Y-81986014D01*
X132985465Y-82015364D01*
X133086557Y-82031375D01*
X133187648Y-82047387D01*
X133187649Y-82047387D01*
X133392351Y-82047387D01*
X133392352Y-82047387D01*
X133594534Y-82015364D01*
X133789219Y-81952107D01*
X133971610Y-81859174D01*
X134100925Y-81765222D01*
X134137213Y-81738858D01*
X134137215Y-81738855D01*
X134137219Y-81738853D01*
X134281966Y-81594106D01*
X134334681Y-81521548D01*
X134390011Y-81478883D01*
X134459624Y-81472904D01*
X134521420Y-81505509D01*
X134535317Y-81521546D01*
X134574295Y-81575196D01*
X134588034Y-81594106D01*
X134732786Y-81738858D01*
X134887749Y-81851443D01*
X134898390Y-81859174D01*
X134987212Y-81904431D01*
X135080776Y-81952105D01*
X135080778Y-81952105D01*
X135080781Y-81952107D01*
X135185137Y-81986014D01*
X135275465Y-82015364D01*
X135376557Y-82031375D01*
X135477648Y-82047387D01*
X135477649Y-82047387D01*
X135682351Y-82047387D01*
X135682352Y-82047387D01*
X135884534Y-82015364D01*
X136079219Y-81952107D01*
X136261610Y-81859174D01*
X136390925Y-81765222D01*
X136427213Y-81738858D01*
X136427215Y-81738855D01*
X136427219Y-81738853D01*
X136571966Y-81594106D01*
X136624681Y-81521548D01*
X136680011Y-81478883D01*
X136749624Y-81472904D01*
X136811420Y-81505509D01*
X136825317Y-81521546D01*
X136864295Y-81575196D01*
X136878034Y-81594106D01*
X137022786Y-81738858D01*
X137177749Y-81851443D01*
X137188390Y-81859174D01*
X137277212Y-81904431D01*
X137370776Y-81952105D01*
X137370778Y-81952105D01*
X137370781Y-81952107D01*
X137475137Y-81986014D01*
X137565465Y-82015364D01*
X137666557Y-82031375D01*
X137767648Y-82047387D01*
X137767649Y-82047387D01*
X137972351Y-82047387D01*
X137972352Y-82047387D01*
X138174534Y-82015364D01*
X138369219Y-81952107D01*
X138551610Y-81859174D01*
X138699162Y-81751972D01*
X138717207Y-81738862D01*
X138717212Y-81738858D01*
X138717219Y-81738853D01*
X138717227Y-81738844D01*
X138719096Y-81737249D01*
X138719963Y-81736860D01*
X138721161Y-81735990D01*
X138721343Y-81736241D01*
X138782854Y-81708670D01*
X138851941Y-81719098D01*
X138904423Y-81765222D01*
X138915820Y-81788192D01*
X138916199Y-81789210D01*
X138916206Y-81789222D01*
X139002452Y-81904431D01*
X139002455Y-81904434D01*
X139117664Y-81990680D01*
X139117671Y-81990684D01*
X139252517Y-82040978D01*
X139252516Y-82040978D01*
X139259444Y-82041722D01*
X139312127Y-82047387D01*
X141007872Y-82047386D01*
X141067483Y-82040978D01*
X141202331Y-81990683D01*
X141317546Y-81904433D01*
X141403796Y-81789218D01*
X141454091Y-81654370D01*
X141460500Y-81594760D01*
X141460499Y-80244367D01*
X141480184Y-80177329D01*
X141532987Y-80131574D01*
X141565104Y-80121894D01*
X141609421Y-80114875D01*
X141804031Y-80051642D01*
X141986349Y-79958746D01*
X142030921Y-79926361D01*
X141434409Y-79329849D01*
X141497993Y-79312812D01*
X141612007Y-79246986D01*
X141705099Y-79153894D01*
X141770925Y-79039880D01*
X141787962Y-78976296D01*
X142384474Y-79572808D01*
X142416859Y-79528236D01*
X142509755Y-79345918D01*
X142572990Y-79151304D01*
X142605000Y-78949204D01*
X142605000Y-78744573D01*
X142603069Y-78732384D01*
X142603069Y-78732381D01*
X142600547Y-78716455D01*
X145844500Y-78716455D01*
X145844500Y-78997318D01*
X145875942Y-79276381D01*
X145875945Y-79276399D01*
X145938439Y-79550204D01*
X145938443Y-79550216D01*
X146031200Y-79815298D01*
X146153053Y-80068329D01*
X146153055Y-80068332D01*
X146302477Y-80306135D01*
X146477584Y-80525712D01*
X146676175Y-80724303D01*
X146895752Y-80899410D01*
X147133555Y-81048832D01*
X147386592Y-81170688D01*
X147585680Y-81240352D01*
X147651670Y-81263443D01*
X147651682Y-81263447D01*
X147925491Y-81325942D01*
X147925497Y-81325942D01*
X147925505Y-81325944D01*
X148111547Y-81346905D01*
X148204569Y-81357386D01*
X148204572Y-81357387D01*
X148204575Y-81357387D01*
X148485428Y-81357387D01*
X148485429Y-81357386D01*
X148628055Y-81341316D01*
X148764494Y-81325944D01*
X148764499Y-81325943D01*
X148764509Y-81325942D01*
X149038318Y-81263447D01*
X149303408Y-81170688D01*
X149556445Y-81048832D01*
X149794248Y-80899410D01*
X150013825Y-80724303D01*
X150212416Y-80525712D01*
X150387523Y-80306135D01*
X150536945Y-80068332D01*
X150658801Y-79815295D01*
X150751560Y-79550205D01*
X150814055Y-79276396D01*
X150845500Y-78997312D01*
X150845500Y-78716462D01*
X150825896Y-78542468D01*
X150814057Y-78437392D01*
X150814054Y-78437374D01*
X150751560Y-78163569D01*
X150751556Y-78163557D01*
X150728465Y-78097567D01*
X150658801Y-77898479D01*
X150536945Y-77645442D01*
X150387523Y-77407639D01*
X150212416Y-77188062D01*
X150013825Y-76989471D01*
X149794248Y-76814364D01*
X149556445Y-76664942D01*
X149556442Y-76664940D01*
X149303411Y-76543087D01*
X149038329Y-76450330D01*
X149038317Y-76450326D01*
X148764512Y-76387832D01*
X148764494Y-76387829D01*
X148485431Y-76356387D01*
X148485425Y-76356387D01*
X148204575Y-76356387D01*
X148204568Y-76356387D01*
X147925505Y-76387829D01*
X147925487Y-76387832D01*
X147651682Y-76450326D01*
X147651670Y-76450330D01*
X147386588Y-76543087D01*
X147133557Y-76664940D01*
X146895753Y-76814363D01*
X146676175Y-76989470D01*
X146477583Y-77188062D01*
X146302476Y-77407640D01*
X146153053Y-77645444D01*
X146031200Y-77898475D01*
X145938443Y-78163557D01*
X145938439Y-78163569D01*
X145875945Y-78437374D01*
X145875942Y-78437392D01*
X145844500Y-78716455D01*
X142600547Y-78716455D01*
X142572990Y-78542469D01*
X142509755Y-78347855D01*
X142416859Y-78165537D01*
X142384474Y-78120964D01*
X142384474Y-78120963D01*
X141787962Y-78717476D01*
X141770925Y-78653894D01*
X141705099Y-78539880D01*
X141612007Y-78446788D01*
X141497993Y-78380962D01*
X141434408Y-78363924D01*
X142030922Y-77767411D01*
X142030921Y-77767410D01*
X141986359Y-77735034D01*
X141986350Y-77735028D01*
X141804031Y-77642131D01*
X141609417Y-77578896D01*
X141479534Y-77558325D01*
X141416399Y-77528396D01*
X141379468Y-77469084D01*
X141380466Y-77399221D01*
X141380948Y-77397699D01*
X141428477Y-77251421D01*
X141460500Y-77049239D01*
X141460500Y-76844535D01*
X141446486Y-76756054D01*
X141428477Y-76642352D01*
X141399127Y-76552024D01*
X141365220Y-76447668D01*
X141365218Y-76447665D01*
X141365218Y-76447663D01*
X141318710Y-76356387D01*
X141272287Y-76265277D01*
X141264146Y-76254072D01*
X141151971Y-76099673D01*
X141007213Y-75954915D01*
X140841613Y-75834602D01*
X140841612Y-75834601D01*
X140841610Y-75834600D01*
X140784653Y-75805578D01*
X140659223Y-75741668D01*
X140464534Y-75678409D01*
X140289995Y-75650765D01*
X140262352Y-75646387D01*
X140057648Y-75646387D01*
X140033329Y-75650238D01*
X139855465Y-75678409D01*
X139660776Y-75741668D01*
X139478386Y-75834602D01*
X139312786Y-75954915D01*
X139168032Y-76099669D01*
X139168028Y-76099674D01*
X139115318Y-76172224D01*
X139059988Y-76214890D01*
X138990375Y-76220869D01*
X138928580Y-76188263D01*
X138914682Y-76172224D01*
X138861971Y-76099674D01*
X138861967Y-76099669D01*
X138717213Y-75954915D01*
X138551613Y-75834602D01*
X138551612Y-75834601D01*
X138551610Y-75834600D01*
X138494653Y-75805578D01*
X138369223Y-75741668D01*
X138174534Y-75678409D01*
X137999995Y-75650765D01*
X137972352Y-75646387D01*
X137767648Y-75646387D01*
X137743329Y-75650238D01*
X137565465Y-75678409D01*
X137370776Y-75741668D01*
X137188386Y-75834602D01*
X137022786Y-75954915D01*
X136878032Y-76099669D01*
X136878028Y-76099674D01*
X136825318Y-76172224D01*
X136769988Y-76214890D01*
X136700375Y-76220869D01*
X136638580Y-76188263D01*
X136624682Y-76172224D01*
X136571971Y-76099674D01*
X136571967Y-76099669D01*
X136427213Y-75954915D01*
X136261613Y-75834602D01*
X136261612Y-75834601D01*
X136261610Y-75834600D01*
X136204653Y-75805578D01*
X136079223Y-75741668D01*
X135884534Y-75678409D01*
X135709995Y-75650765D01*
X135682352Y-75646387D01*
X135477648Y-75646387D01*
X135453329Y-75650238D01*
X135275465Y-75678409D01*
X135080776Y-75741668D01*
X134898386Y-75834602D01*
X134732786Y-75954915D01*
X134588032Y-76099669D01*
X134588028Y-76099674D01*
X134535318Y-76172224D01*
X134479988Y-76214890D01*
X134410375Y-76220869D01*
X134348580Y-76188263D01*
X134334682Y-76172224D01*
X134281971Y-76099674D01*
X134281967Y-76099669D01*
X134137213Y-75954915D01*
X133971613Y-75834602D01*
X133971612Y-75834601D01*
X133971610Y-75834600D01*
X133914653Y-75805578D01*
X133789223Y-75741668D01*
X133594534Y-75678409D01*
X133419995Y-75650765D01*
X133392352Y-75646387D01*
X133187648Y-75646387D01*
X133163329Y-75650238D01*
X132985465Y-75678409D01*
X132790776Y-75741668D01*
X132608386Y-75834602D01*
X132442786Y-75954915D01*
X132298032Y-76099669D01*
X132298028Y-76099674D01*
X132245318Y-76172224D01*
X132189988Y-76214890D01*
X132120375Y-76220869D01*
X132058580Y-76188263D01*
X132044682Y-76172224D01*
X131991971Y-76099674D01*
X131991967Y-76099669D01*
X131847213Y-75954915D01*
X131681613Y-75834602D01*
X131681612Y-75834601D01*
X131681610Y-75834600D01*
X131624653Y-75805578D01*
X131499223Y-75741668D01*
X131304534Y-75678409D01*
X131129995Y-75650765D01*
X131102352Y-75646387D01*
X130897648Y-75646387D01*
X130873329Y-75650238D01*
X130695465Y-75678409D01*
X130500776Y-75741668D01*
X130318386Y-75834602D01*
X130152786Y-75954915D01*
X130008028Y-76099673D01*
X129887715Y-76265273D01*
X129794781Y-76447663D01*
X129731522Y-76642352D01*
X129699500Y-76844535D01*
X124832081Y-76844535D01*
X124799858Y-76818838D01*
X124794248Y-76814364D01*
X124556445Y-76664942D01*
X124556442Y-76664940D01*
X124303411Y-76543087D01*
X124038329Y-76450330D01*
X124038317Y-76450326D01*
X123764512Y-76387832D01*
X123764494Y-76387829D01*
X123485431Y-76356387D01*
X123485425Y-76356387D01*
X123204575Y-76356387D01*
X123204568Y-76356387D01*
X122925505Y-76387829D01*
X122925487Y-76387832D01*
X122651682Y-76450326D01*
X122651670Y-76450330D01*
X122386588Y-76543087D01*
X122133557Y-76664940D01*
X121895753Y-76814363D01*
X121676175Y-76989470D01*
X121477583Y-77188062D01*
X121302476Y-77407640D01*
X121153053Y-77645444D01*
X121031200Y-77898475D01*
X120938443Y-78163557D01*
X120938439Y-78163569D01*
X120875945Y-78437374D01*
X120875942Y-78437392D01*
X120844500Y-78716455D01*
X115700500Y-78716455D01*
X115700500Y-76366866D01*
X115720185Y-76299827D01*
X115772989Y-76254072D01*
X115842147Y-76244128D01*
X115905703Y-76273153D01*
X115912181Y-76279185D01*
X116027256Y-76394260D01*
X116027263Y-76394266D01*
X116100327Y-76450330D01*
X116219711Y-76541936D01*
X116429788Y-76663224D01*
X116653900Y-76756054D01*
X116888211Y-76818838D01*
X117068586Y-76842584D01*
X117128711Y-76850500D01*
X117128712Y-76850500D01*
X117371289Y-76850500D01*
X117419388Y-76844167D01*
X117611789Y-76818838D01*
X117846100Y-76756054D01*
X118070212Y-76663224D01*
X118280289Y-76541936D01*
X118472738Y-76394265D01*
X118644265Y-76222738D01*
X118791936Y-76030289D01*
X118913224Y-75820212D01*
X119006054Y-75596100D01*
X119068838Y-75361789D01*
X119100500Y-75121288D01*
X119100500Y-74878712D01*
X119068838Y-74638211D01*
X119006054Y-74403900D01*
X118913224Y-74179788D01*
X118791936Y-73969711D01*
X118644265Y-73777262D01*
X118644260Y-73777256D01*
X118472743Y-73605739D01*
X118472736Y-73605733D01*
X118299593Y-73472876D01*
X118258390Y-73416448D01*
X118254235Y-73346702D01*
X118288447Y-73285782D01*
X118350164Y-73253029D01*
X118375079Y-73250500D01*
X153124921Y-73250500D01*
X153191960Y-73270185D01*
G37*
%TD.AperFunction*%
%TD*%
M02*
