%TF.GenerationSoftware,KiCad,Pcbnew,9.0.1*%
%TF.CreationDate,2025-10-17T21:58:48+03:00*%
%TF.ProjectId,transection-vga,7472616e-7365-4637-9469-6f6e2d766761,rev?*%
%TF.SameCoordinates,Original*%
%TF.FileFunction,Legend,Bot*%
%TF.FilePolarity,Positive*%
%FSLAX46Y46*%
G04 Gerber Fmt 4.6, Leading zero omitted, Abs format (unit mm)*
G04 Created by KiCad (PCBNEW 9.0.1) date 2025-10-17 21:58:48*
%MOMM*%
%LPD*%
G01*
G04 APERTURE LIST*
%ADD10C,0.100000*%
%ADD11C,0.150000*%
%ADD12C,0.120000*%
%ADD13C,0.028975*%
%ADD14C,0.005135*%
%ADD15C,0.005186*%
G04 APERTURE END LIST*
D10*
X148634135Y-103410827D02*
X148714948Y-103437765D01*
X148714948Y-103437765D02*
X148795760Y-103518577D01*
X148795760Y-103518577D02*
X148849635Y-103626326D01*
X148849635Y-103626326D02*
X148849635Y-103734076D01*
X148849635Y-103734076D02*
X148822697Y-103814888D01*
X148822697Y-103814888D02*
X148741885Y-103949575D01*
X148741885Y-103949575D02*
X148661073Y-104030387D01*
X148661073Y-104030387D02*
X148526386Y-104111200D01*
X148526386Y-104111200D02*
X148445574Y-104138137D01*
X148445574Y-104138137D02*
X148337824Y-104138137D01*
X148337824Y-104138137D02*
X148230074Y-104084262D01*
X148230074Y-104084262D02*
X148176200Y-104030387D01*
X148176200Y-104030387D02*
X148122325Y-103922638D01*
X148122325Y-103922638D02*
X148122325Y-103868763D01*
X148122325Y-103868763D02*
X148310887Y-103680201D01*
X148310887Y-103680201D02*
X148418636Y-103787951D01*
X147826013Y-103680201D02*
X148391699Y-103114516D01*
X148391699Y-103114516D02*
X147502764Y-103356952D01*
X147502764Y-103356952D02*
X148068450Y-102791267D01*
X147233391Y-103087578D02*
X147799076Y-102521893D01*
X147799076Y-102521893D02*
X147664389Y-102387206D01*
X147664389Y-102387206D02*
X147556639Y-102333331D01*
X147556639Y-102333331D02*
X147448890Y-102333331D01*
X147448890Y-102333331D02*
X147368078Y-102360269D01*
X147368078Y-102360269D02*
X147233391Y-102441081D01*
X147233391Y-102441081D02*
X147152578Y-102521893D01*
X147152578Y-102521893D02*
X147071766Y-102656580D01*
X147071766Y-102656580D02*
X147044829Y-102737392D01*
X147044829Y-102737392D02*
X147044829Y-102845142D01*
X147044829Y-102845142D02*
X147098704Y-102952891D01*
X147098704Y-102952891D02*
X147233391Y-103087578D01*
X134141699Y-92495887D02*
X134707384Y-91930201D01*
X133872325Y-92226513D02*
X134438010Y-91660827D01*
X134438010Y-91660827D02*
X134303323Y-91526140D01*
X134303323Y-91526140D02*
X134195574Y-91472266D01*
X134195574Y-91472266D02*
X134087824Y-91472266D01*
X134087824Y-91472266D02*
X134007012Y-91499203D01*
X134007012Y-91499203D02*
X133872325Y-91580015D01*
X133872325Y-91580015D02*
X133791513Y-91660827D01*
X133791513Y-91660827D02*
X133710701Y-91795514D01*
X133710701Y-91795514D02*
X133683763Y-91876327D01*
X133683763Y-91876327D02*
X133683763Y-91984076D01*
X133683763Y-91984076D02*
X133737638Y-92091826D01*
X133737638Y-92091826D02*
X133872325Y-92226513D01*
X133926200Y-91149017D02*
X133576014Y-90798831D01*
X133576014Y-90798831D02*
X133549076Y-91202892D01*
X133549076Y-91202892D02*
X133468264Y-91122079D01*
X133468264Y-91122079D02*
X133387452Y-91095142D01*
X133387452Y-91095142D02*
X133333577Y-91095142D01*
X133333577Y-91095142D02*
X133252765Y-91122079D01*
X133252765Y-91122079D02*
X133118078Y-91256766D01*
X133118078Y-91256766D02*
X133091140Y-91337579D01*
X133091140Y-91337579D02*
X133091140Y-91391453D01*
X133091140Y-91391453D02*
X133118078Y-91472266D01*
X133118078Y-91472266D02*
X133279702Y-91633890D01*
X133279702Y-91633890D02*
X133360514Y-91660827D01*
X133360514Y-91660827D02*
X133414389Y-91660827D01*
X150568450Y-103922638D02*
X151026386Y-103841826D01*
X150891699Y-104245887D02*
X151457384Y-103680201D01*
X151457384Y-103680201D02*
X151241885Y-103464702D01*
X151241885Y-103464702D02*
X151161073Y-103437765D01*
X151161073Y-103437765D02*
X151107198Y-103437765D01*
X151107198Y-103437765D02*
X151026386Y-103464702D01*
X151026386Y-103464702D02*
X150945574Y-103545514D01*
X150945574Y-103545514D02*
X150918636Y-103626326D01*
X150918636Y-103626326D02*
X150918636Y-103680201D01*
X150918636Y-103680201D02*
X150945574Y-103761013D01*
X150945574Y-103761013D02*
X151161073Y-103976513D01*
X150622325Y-103383890D02*
X150433763Y-103195328D01*
X150056639Y-103410827D02*
X150326013Y-103680201D01*
X150326013Y-103680201D02*
X150891699Y-103114516D01*
X150891699Y-103114516D02*
X150622325Y-102845142D01*
X149814202Y-103168390D02*
X150379888Y-102602705D01*
X150379888Y-102602705D02*
X150245201Y-102468018D01*
X150245201Y-102468018D02*
X150137451Y-102414143D01*
X150137451Y-102414143D02*
X150029702Y-102414143D01*
X150029702Y-102414143D02*
X149948889Y-102441080D01*
X149948889Y-102441080D02*
X149814202Y-102521893D01*
X149814202Y-102521893D02*
X149733390Y-102602705D01*
X149733390Y-102602705D02*
X149652578Y-102737392D01*
X149652578Y-102737392D02*
X149625641Y-102818204D01*
X149625641Y-102818204D02*
X149625641Y-102925954D01*
X149625641Y-102925954D02*
X149679515Y-103033703D01*
X149679515Y-103033703D02*
X149814202Y-103168390D01*
X138391699Y-104245887D02*
X138957384Y-103680201D01*
X138068450Y-103922638D02*
X138634135Y-103841826D01*
X138634135Y-103356952D02*
X138634135Y-104003450D01*
X138122325Y-103383890D02*
X137933763Y-103195328D01*
X137556639Y-103410827D02*
X137826013Y-103680201D01*
X137826013Y-103680201D02*
X138391699Y-103114516D01*
X138391699Y-103114516D02*
X138122325Y-102845142D01*
X137475827Y-102791267D02*
X137206453Y-103060641D01*
X137960700Y-102683517D02*
X137475827Y-102791267D01*
X137475827Y-102791267D02*
X137583576Y-102306393D01*
X139141699Y-92495887D02*
X139707384Y-91930201D01*
X138818450Y-92172638D02*
X139384135Y-92091826D01*
X139384135Y-91606952D02*
X139384135Y-92253450D01*
X138872325Y-91633890D02*
X138683763Y-91445328D01*
X138306639Y-91660827D02*
X138576013Y-91930201D01*
X138576013Y-91930201D02*
X139141699Y-91364516D01*
X139141699Y-91364516D02*
X138872325Y-91095142D01*
X138225827Y-91041267D02*
X137956453Y-91310641D01*
X138710700Y-90933517D02*
X138225827Y-91041267D01*
X138225827Y-91041267D02*
X138333576Y-90556393D01*
X144384135Y-91660827D02*
X144464948Y-91687765D01*
X144464948Y-91687765D02*
X144545760Y-91768577D01*
X144545760Y-91768577D02*
X144599635Y-91876326D01*
X144599635Y-91876326D02*
X144599635Y-91984076D01*
X144599635Y-91984076D02*
X144572697Y-92064888D01*
X144572697Y-92064888D02*
X144491885Y-92199575D01*
X144491885Y-92199575D02*
X144411073Y-92280387D01*
X144411073Y-92280387D02*
X144276386Y-92361200D01*
X144276386Y-92361200D02*
X144195574Y-92388137D01*
X144195574Y-92388137D02*
X144087824Y-92388137D01*
X144087824Y-92388137D02*
X143980074Y-92334262D01*
X143980074Y-92334262D02*
X143926200Y-92280387D01*
X143926200Y-92280387D02*
X143872325Y-92172638D01*
X143872325Y-92172638D02*
X143872325Y-92118763D01*
X143872325Y-92118763D02*
X144060887Y-91930201D01*
X144060887Y-91930201D02*
X144168636Y-92037951D01*
X143576013Y-91930201D02*
X144141699Y-91364516D01*
X144141699Y-91364516D02*
X143252764Y-91606952D01*
X143252764Y-91606952D02*
X143818450Y-91041267D01*
X142983391Y-91337578D02*
X143549076Y-90771893D01*
X143549076Y-90771893D02*
X143414389Y-90637206D01*
X143414389Y-90637206D02*
X143306639Y-90583331D01*
X143306639Y-90583331D02*
X143198890Y-90583331D01*
X143198890Y-90583331D02*
X143118078Y-90610269D01*
X143118078Y-90610269D02*
X142983391Y-90691081D01*
X142983391Y-90691081D02*
X142902578Y-90771893D01*
X142902578Y-90771893D02*
X142821766Y-90906580D01*
X142821766Y-90906580D02*
X142794829Y-90987392D01*
X142794829Y-90987392D02*
X142794829Y-91095142D01*
X142794829Y-91095142D02*
X142848704Y-91202891D01*
X142848704Y-91202891D02*
X142983391Y-91337578D01*
X154384135Y-91660827D02*
X154464948Y-91687765D01*
X154464948Y-91687765D02*
X154545760Y-91768577D01*
X154545760Y-91768577D02*
X154599635Y-91876326D01*
X154599635Y-91876326D02*
X154599635Y-91984076D01*
X154599635Y-91984076D02*
X154572697Y-92064888D01*
X154572697Y-92064888D02*
X154491885Y-92199575D01*
X154491885Y-92199575D02*
X154411073Y-92280387D01*
X154411073Y-92280387D02*
X154276386Y-92361200D01*
X154276386Y-92361200D02*
X154195574Y-92388137D01*
X154195574Y-92388137D02*
X154087824Y-92388137D01*
X154087824Y-92388137D02*
X153980074Y-92334262D01*
X153980074Y-92334262D02*
X153926200Y-92280387D01*
X153926200Y-92280387D02*
X153872325Y-92172638D01*
X153872325Y-92172638D02*
X153872325Y-92118763D01*
X153872325Y-92118763D02*
X154060887Y-91930201D01*
X154060887Y-91930201D02*
X154168636Y-92037951D01*
X153576013Y-91930201D02*
X154141699Y-91364516D01*
X154141699Y-91364516D02*
X153252764Y-91606952D01*
X153252764Y-91606952D02*
X153818450Y-91041267D01*
X152983391Y-91337578D02*
X153549076Y-90771893D01*
X153549076Y-90771893D02*
X153414389Y-90637206D01*
X153414389Y-90637206D02*
X153306639Y-90583331D01*
X153306639Y-90583331D02*
X153198890Y-90583331D01*
X153198890Y-90583331D02*
X153118078Y-90610269D01*
X153118078Y-90610269D02*
X152983391Y-90691081D01*
X152983391Y-90691081D02*
X152902578Y-90771893D01*
X152902578Y-90771893D02*
X152821766Y-90906580D01*
X152821766Y-90906580D02*
X152794829Y-90987392D01*
X152794829Y-90987392D02*
X152794829Y-91095142D01*
X152794829Y-91095142D02*
X152848704Y-91202891D01*
X152848704Y-91202891D02*
X152983391Y-91337578D01*
X143634135Y-103410827D02*
X143714948Y-103437765D01*
X143714948Y-103437765D02*
X143795760Y-103518577D01*
X143795760Y-103518577D02*
X143849635Y-103626326D01*
X143849635Y-103626326D02*
X143849635Y-103734076D01*
X143849635Y-103734076D02*
X143822697Y-103814888D01*
X143822697Y-103814888D02*
X143741885Y-103949575D01*
X143741885Y-103949575D02*
X143661073Y-104030387D01*
X143661073Y-104030387D02*
X143526386Y-104111200D01*
X143526386Y-104111200D02*
X143445574Y-104138137D01*
X143445574Y-104138137D02*
X143337824Y-104138137D01*
X143337824Y-104138137D02*
X143230074Y-104084262D01*
X143230074Y-104084262D02*
X143176200Y-104030387D01*
X143176200Y-104030387D02*
X143122325Y-103922638D01*
X143122325Y-103922638D02*
X143122325Y-103868763D01*
X143122325Y-103868763D02*
X143310887Y-103680201D01*
X143310887Y-103680201D02*
X143418636Y-103787951D01*
X142826013Y-103680201D02*
X143391699Y-103114516D01*
X143391699Y-103114516D02*
X142502764Y-103356952D01*
X142502764Y-103356952D02*
X143068450Y-102791267D01*
X142233391Y-103087578D02*
X142799076Y-102521893D01*
X142799076Y-102521893D02*
X142664389Y-102387206D01*
X142664389Y-102387206D02*
X142556639Y-102333331D01*
X142556639Y-102333331D02*
X142448890Y-102333331D01*
X142448890Y-102333331D02*
X142368078Y-102360269D01*
X142368078Y-102360269D02*
X142233391Y-102441081D01*
X142233391Y-102441081D02*
X142152578Y-102521893D01*
X142152578Y-102521893D02*
X142071766Y-102656580D01*
X142071766Y-102656580D02*
X142044829Y-102737392D01*
X142044829Y-102737392D02*
X142044829Y-102845142D01*
X142044829Y-102845142D02*
X142098704Y-102952891D01*
X142098704Y-102952891D02*
X142233391Y-103087578D01*
X129788196Y-92011013D02*
X129033949Y-92388137D01*
X129033949Y-92388137D02*
X129411073Y-91633890D01*
X128710701Y-92011014D02*
X128602951Y-91957139D01*
X128602951Y-91957139D02*
X128468264Y-91822452D01*
X128468264Y-91822452D02*
X128441326Y-91741640D01*
X128441326Y-91741640D02*
X128441326Y-91687765D01*
X128441326Y-91687765D02*
X128468264Y-91606953D01*
X128468264Y-91606953D02*
X128522139Y-91553078D01*
X128522139Y-91553078D02*
X128602951Y-91526140D01*
X128602951Y-91526140D02*
X128656826Y-91526140D01*
X128656826Y-91526140D02*
X128737638Y-91553078D01*
X128737638Y-91553078D02*
X128872325Y-91633890D01*
X128872325Y-91633890D02*
X128953137Y-91660827D01*
X128953137Y-91660827D02*
X129007012Y-91660827D01*
X129007012Y-91660827D02*
X129087824Y-91633890D01*
X129087824Y-91633890D02*
X129141699Y-91580015D01*
X129141699Y-91580015D02*
X129168636Y-91499203D01*
X129168636Y-91499203D02*
X129168636Y-91445328D01*
X129168636Y-91445328D02*
X129141699Y-91364516D01*
X129141699Y-91364516D02*
X129007012Y-91229829D01*
X129007012Y-91229829D02*
X128899262Y-91175954D01*
X128279702Y-91095142D02*
X128010328Y-91364516D01*
X128764575Y-90987392D02*
X128279702Y-91095142D01*
X128279702Y-91095142D02*
X128387452Y-90610269D01*
X124141699Y-92495887D02*
X124707384Y-91930201D01*
X124438010Y-92199575D02*
X124114761Y-91876326D01*
X123818450Y-92172638D02*
X124384135Y-91606952D01*
X123602951Y-91903264D02*
X123495201Y-91849389D01*
X123495201Y-91849389D02*
X123360514Y-91714702D01*
X123360514Y-91714702D02*
X123333577Y-91633890D01*
X123333577Y-91633890D02*
X123333577Y-91580015D01*
X123333577Y-91580015D02*
X123360514Y-91499203D01*
X123360514Y-91499203D02*
X123414389Y-91445328D01*
X123414389Y-91445328D02*
X123495201Y-91418391D01*
X123495201Y-91418391D02*
X123549076Y-91418391D01*
X123549076Y-91418391D02*
X123629888Y-91445328D01*
X123629888Y-91445328D02*
X123764575Y-91526140D01*
X123764575Y-91526140D02*
X123845387Y-91553078D01*
X123845387Y-91553078D02*
X123899262Y-91553078D01*
X123899262Y-91553078D02*
X123980074Y-91526140D01*
X123980074Y-91526140D02*
X124033949Y-91472265D01*
X124033949Y-91472265D02*
X124060887Y-91391453D01*
X124060887Y-91391453D02*
X124060887Y-91337578D01*
X124060887Y-91337578D02*
X124033949Y-91256766D01*
X124033949Y-91256766D02*
X123899262Y-91122079D01*
X123899262Y-91122079D02*
X123791513Y-91068204D01*
X123171952Y-90987392D02*
X122902578Y-91256766D01*
X123656826Y-90879642D02*
X123171952Y-90987392D01*
X123171952Y-90987392D02*
X123279702Y-90502519D01*
X129038196Y-103761013D02*
X128283949Y-104138137D01*
X128283949Y-104138137D02*
X128661073Y-103383890D01*
X127960701Y-103761014D02*
X127852951Y-103707139D01*
X127852951Y-103707139D02*
X127718264Y-103572452D01*
X127718264Y-103572452D02*
X127691326Y-103491640D01*
X127691326Y-103491640D02*
X127691326Y-103437765D01*
X127691326Y-103437765D02*
X127718264Y-103356953D01*
X127718264Y-103356953D02*
X127772139Y-103303078D01*
X127772139Y-103303078D02*
X127852951Y-103276140D01*
X127852951Y-103276140D02*
X127906826Y-103276140D01*
X127906826Y-103276140D02*
X127987638Y-103303078D01*
X127987638Y-103303078D02*
X128122325Y-103383890D01*
X128122325Y-103383890D02*
X128203137Y-103410827D01*
X128203137Y-103410827D02*
X128257012Y-103410827D01*
X128257012Y-103410827D02*
X128337824Y-103383890D01*
X128337824Y-103383890D02*
X128391699Y-103330015D01*
X128391699Y-103330015D02*
X128418636Y-103249203D01*
X128418636Y-103249203D02*
X128418636Y-103195328D01*
X128418636Y-103195328D02*
X128391699Y-103114516D01*
X128391699Y-103114516D02*
X128257012Y-102979829D01*
X128257012Y-102979829D02*
X128149262Y-102925954D01*
X127529702Y-102845142D02*
X127260328Y-103114516D01*
X128014575Y-102737392D02*
X127529702Y-102845142D01*
X127529702Y-102845142D02*
X127637452Y-102360269D01*
X146134135Y-103410827D02*
X146214948Y-103437765D01*
X146214948Y-103437765D02*
X146295760Y-103518577D01*
X146295760Y-103518577D02*
X146349635Y-103626326D01*
X146349635Y-103626326D02*
X146349635Y-103734076D01*
X146349635Y-103734076D02*
X146322697Y-103814888D01*
X146322697Y-103814888D02*
X146241885Y-103949575D01*
X146241885Y-103949575D02*
X146161073Y-104030387D01*
X146161073Y-104030387D02*
X146026386Y-104111200D01*
X146026386Y-104111200D02*
X145945574Y-104138137D01*
X145945574Y-104138137D02*
X145837824Y-104138137D01*
X145837824Y-104138137D02*
X145730074Y-104084262D01*
X145730074Y-104084262D02*
X145676200Y-104030387D01*
X145676200Y-104030387D02*
X145622325Y-103922638D01*
X145622325Y-103922638D02*
X145622325Y-103868763D01*
X145622325Y-103868763D02*
X145810887Y-103680201D01*
X145810887Y-103680201D02*
X145918636Y-103787951D01*
X145002764Y-103356952D02*
X145460700Y-103276140D01*
X145326013Y-103680201D02*
X145891699Y-103114516D01*
X145891699Y-103114516D02*
X145676200Y-102899017D01*
X145676200Y-102899017D02*
X145595387Y-102872079D01*
X145595387Y-102872079D02*
X145541513Y-102872079D01*
X145541513Y-102872079D02*
X145460700Y-102899017D01*
X145460700Y-102899017D02*
X145379888Y-102979829D01*
X145379888Y-102979829D02*
X145352951Y-103060641D01*
X145352951Y-103060641D02*
X145352951Y-103114516D01*
X145352951Y-103114516D02*
X145379888Y-103195328D01*
X145379888Y-103195328D02*
X145595387Y-103410827D01*
X144760328Y-103114516D02*
X145326013Y-102548830D01*
X145326013Y-102548830D02*
X144437079Y-102791267D01*
X144437079Y-102791267D02*
X145002764Y-102225581D01*
X153634135Y-103410827D02*
X153714948Y-103437765D01*
X153714948Y-103437765D02*
X153795760Y-103518577D01*
X153795760Y-103518577D02*
X153849635Y-103626326D01*
X153849635Y-103626326D02*
X153849635Y-103734076D01*
X153849635Y-103734076D02*
X153822697Y-103814888D01*
X153822697Y-103814888D02*
X153741885Y-103949575D01*
X153741885Y-103949575D02*
X153661073Y-104030387D01*
X153661073Y-104030387D02*
X153526386Y-104111200D01*
X153526386Y-104111200D02*
X153445574Y-104138137D01*
X153445574Y-104138137D02*
X153337824Y-104138137D01*
X153337824Y-104138137D02*
X153230074Y-104084262D01*
X153230074Y-104084262D02*
X153176200Y-104030387D01*
X153176200Y-104030387D02*
X153122325Y-103922638D01*
X153122325Y-103922638D02*
X153122325Y-103868763D01*
X153122325Y-103868763D02*
X153310887Y-103680201D01*
X153310887Y-103680201D02*
X153418636Y-103787951D01*
X152826013Y-103680201D02*
X153391699Y-103114516D01*
X153391699Y-103114516D02*
X152502764Y-103356952D01*
X152502764Y-103356952D02*
X153068450Y-102791267D01*
X152233391Y-103087578D02*
X152799076Y-102521893D01*
X152799076Y-102521893D02*
X152664389Y-102387206D01*
X152664389Y-102387206D02*
X152556639Y-102333331D01*
X152556639Y-102333331D02*
X152448890Y-102333331D01*
X152448890Y-102333331D02*
X152368078Y-102360269D01*
X152368078Y-102360269D02*
X152233391Y-102441081D01*
X152233391Y-102441081D02*
X152152578Y-102521893D01*
X152152578Y-102521893D02*
X152071766Y-102656580D01*
X152071766Y-102656580D02*
X152044829Y-102737392D01*
X152044829Y-102737392D02*
X152044829Y-102845142D01*
X152044829Y-102845142D02*
X152098704Y-102952891D01*
X152098704Y-102952891D02*
X152233391Y-103087578D01*
X118141699Y-103995887D02*
X118707384Y-103430201D01*
X117872325Y-103726513D02*
X118438010Y-103160827D01*
X118438010Y-103160827D02*
X118303323Y-103026140D01*
X118303323Y-103026140D02*
X118195574Y-102972266D01*
X118195574Y-102972266D02*
X118087824Y-102972266D01*
X118087824Y-102972266D02*
X118007012Y-102999203D01*
X118007012Y-102999203D02*
X117872325Y-103080015D01*
X117872325Y-103080015D02*
X117791513Y-103160827D01*
X117791513Y-103160827D02*
X117710701Y-103295514D01*
X117710701Y-103295514D02*
X117683763Y-103376327D01*
X117683763Y-103376327D02*
X117683763Y-103484076D01*
X117683763Y-103484076D02*
X117737638Y-103591826D01*
X117737638Y-103591826D02*
X117872325Y-103726513D01*
X117764575Y-102487392D02*
X117710701Y-102433518D01*
X117710701Y-102433518D02*
X117629888Y-102406580D01*
X117629888Y-102406580D02*
X117576014Y-102406580D01*
X117576014Y-102406580D02*
X117495201Y-102433518D01*
X117495201Y-102433518D02*
X117360514Y-102514330D01*
X117360514Y-102514330D02*
X117225827Y-102649017D01*
X117225827Y-102649017D02*
X117145015Y-102783704D01*
X117145015Y-102783704D02*
X117118078Y-102864516D01*
X117118078Y-102864516D02*
X117118078Y-102918391D01*
X117118078Y-102918391D02*
X117145015Y-102999203D01*
X117145015Y-102999203D02*
X117198890Y-103053078D01*
X117198890Y-103053078D02*
X117279702Y-103080015D01*
X117279702Y-103080015D02*
X117333577Y-103080015D01*
X117333577Y-103080015D02*
X117414389Y-103053078D01*
X117414389Y-103053078D02*
X117549076Y-102972266D01*
X117549076Y-102972266D02*
X117683763Y-102837579D01*
X117683763Y-102837579D02*
X117764575Y-102702892D01*
X117764575Y-102702892D02*
X117791513Y-102622079D01*
X117791513Y-102622079D02*
X117791513Y-102568205D01*
X117791513Y-102568205D02*
X117764575Y-102487392D01*
X133391699Y-104245887D02*
X133957384Y-103680201D01*
X133122325Y-103976513D02*
X133688010Y-103410827D01*
X133688010Y-103410827D02*
X133553323Y-103276140D01*
X133553323Y-103276140D02*
X133445574Y-103222266D01*
X133445574Y-103222266D02*
X133337824Y-103222266D01*
X133337824Y-103222266D02*
X133257012Y-103249203D01*
X133257012Y-103249203D02*
X133122325Y-103330015D01*
X133122325Y-103330015D02*
X133041513Y-103410827D01*
X133041513Y-103410827D02*
X132960701Y-103545514D01*
X132960701Y-103545514D02*
X132933763Y-103626327D01*
X132933763Y-103626327D02*
X132933763Y-103734076D01*
X132933763Y-103734076D02*
X132987638Y-103841826D01*
X132987638Y-103841826D02*
X133122325Y-103976513D01*
X133176200Y-102899017D02*
X132826014Y-102548831D01*
X132826014Y-102548831D02*
X132799076Y-102952892D01*
X132799076Y-102952892D02*
X132718264Y-102872079D01*
X132718264Y-102872079D02*
X132637452Y-102845142D01*
X132637452Y-102845142D02*
X132583577Y-102845142D01*
X132583577Y-102845142D02*
X132502765Y-102872079D01*
X132502765Y-102872079D02*
X132368078Y-103006766D01*
X132368078Y-103006766D02*
X132341140Y-103087579D01*
X132341140Y-103087579D02*
X132341140Y-103141453D01*
X132341140Y-103141453D02*
X132368078Y-103222266D01*
X132368078Y-103222266D02*
X132529702Y-103383890D01*
X132529702Y-103383890D02*
X132610514Y-103410827D01*
X132610514Y-103410827D02*
X132664389Y-103410827D01*
X131884135Y-91660827D02*
X131964948Y-91687765D01*
X131964948Y-91687765D02*
X132045760Y-91768577D01*
X132045760Y-91768577D02*
X132099635Y-91876326D01*
X132099635Y-91876326D02*
X132099635Y-91984076D01*
X132099635Y-91984076D02*
X132072697Y-92064888D01*
X132072697Y-92064888D02*
X131991885Y-92199575D01*
X131991885Y-92199575D02*
X131911073Y-92280387D01*
X131911073Y-92280387D02*
X131776386Y-92361200D01*
X131776386Y-92361200D02*
X131695574Y-92388137D01*
X131695574Y-92388137D02*
X131587824Y-92388137D01*
X131587824Y-92388137D02*
X131480074Y-92334262D01*
X131480074Y-92334262D02*
X131426200Y-92280387D01*
X131426200Y-92280387D02*
X131372325Y-92172638D01*
X131372325Y-92172638D02*
X131372325Y-92118763D01*
X131372325Y-92118763D02*
X131560887Y-91930201D01*
X131560887Y-91930201D02*
X131668636Y-92037951D01*
X131076013Y-91930201D02*
X131641699Y-91364516D01*
X131641699Y-91364516D02*
X130752764Y-91606952D01*
X130752764Y-91606952D02*
X131318450Y-91041267D01*
X130483391Y-91337578D02*
X131049076Y-90771893D01*
X131049076Y-90771893D02*
X130914389Y-90637206D01*
X130914389Y-90637206D02*
X130806639Y-90583331D01*
X130806639Y-90583331D02*
X130698890Y-90583331D01*
X130698890Y-90583331D02*
X130618078Y-90610269D01*
X130618078Y-90610269D02*
X130483391Y-90691081D01*
X130483391Y-90691081D02*
X130402578Y-90771893D01*
X130402578Y-90771893D02*
X130321766Y-90906580D01*
X130321766Y-90906580D02*
X130294829Y-90987392D01*
X130294829Y-90987392D02*
X130294829Y-91095142D01*
X130294829Y-91095142D02*
X130348704Y-91202891D01*
X130348704Y-91202891D02*
X130483391Y-91337578D01*
X136641699Y-92495887D02*
X137207384Y-91930201D01*
X136372325Y-92226513D02*
X136938010Y-91660827D01*
X136938010Y-91660827D02*
X136803323Y-91526140D01*
X136803323Y-91526140D02*
X136695574Y-91472266D01*
X136695574Y-91472266D02*
X136587824Y-91472266D01*
X136587824Y-91472266D02*
X136507012Y-91499203D01*
X136507012Y-91499203D02*
X136372325Y-91580015D01*
X136372325Y-91580015D02*
X136291513Y-91660827D01*
X136291513Y-91660827D02*
X136210701Y-91795514D01*
X136210701Y-91795514D02*
X136183763Y-91876327D01*
X136183763Y-91876327D02*
X136183763Y-91984076D01*
X136183763Y-91984076D02*
X136237638Y-92091826D01*
X136237638Y-92091826D02*
X136372325Y-92226513D01*
X136345388Y-91175954D02*
X136345388Y-91122079D01*
X136345388Y-91122079D02*
X136318450Y-91041267D01*
X136318450Y-91041267D02*
X136183763Y-90906580D01*
X136183763Y-90906580D02*
X136102951Y-90879643D01*
X136102951Y-90879643D02*
X136049076Y-90879643D01*
X136049076Y-90879643D02*
X135968264Y-90906580D01*
X135968264Y-90906580D02*
X135914389Y-90960455D01*
X135914389Y-90960455D02*
X135860514Y-91068205D01*
X135860514Y-91068205D02*
X135860514Y-91714702D01*
X135860514Y-91714702D02*
X135510328Y-91364516D01*
X151318450Y-92172638D02*
X151776386Y-92091826D01*
X151641699Y-92495887D02*
X152207384Y-91930201D01*
X152207384Y-91930201D02*
X151991885Y-91714702D01*
X151991885Y-91714702D02*
X151911073Y-91687765D01*
X151911073Y-91687765D02*
X151857198Y-91687765D01*
X151857198Y-91687765D02*
X151776386Y-91714702D01*
X151776386Y-91714702D02*
X151695574Y-91795514D01*
X151695574Y-91795514D02*
X151668636Y-91876326D01*
X151668636Y-91876326D02*
X151668636Y-91930201D01*
X151668636Y-91930201D02*
X151695574Y-92011013D01*
X151695574Y-92011013D02*
X151911073Y-92226513D01*
X151372325Y-91633890D02*
X151183763Y-91445328D01*
X150806639Y-91660827D02*
X151076013Y-91930201D01*
X151076013Y-91930201D02*
X151641699Y-91364516D01*
X151641699Y-91364516D02*
X151372325Y-91095142D01*
X150564202Y-91418390D02*
X151129888Y-90852705D01*
X151129888Y-90852705D02*
X150995201Y-90718018D01*
X150995201Y-90718018D02*
X150887451Y-90664143D01*
X150887451Y-90664143D02*
X150779702Y-90664143D01*
X150779702Y-90664143D02*
X150698889Y-90691080D01*
X150698889Y-90691080D02*
X150564202Y-90771893D01*
X150564202Y-90771893D02*
X150483390Y-90852705D01*
X150483390Y-90852705D02*
X150402578Y-90987392D01*
X150402578Y-90987392D02*
X150375641Y-91068204D01*
X150375641Y-91068204D02*
X150375641Y-91175954D01*
X150375641Y-91175954D02*
X150429515Y-91283703D01*
X150429515Y-91283703D02*
X150564202Y-91418390D01*
X141749448Y-92011013D02*
X141641699Y-91957139D01*
X141641699Y-91957139D02*
X141587824Y-91957139D01*
X141587824Y-91957139D02*
X141507012Y-91984076D01*
X141507012Y-91984076D02*
X141426200Y-92064888D01*
X141426200Y-92064888D02*
X141399262Y-92145700D01*
X141399262Y-92145700D02*
X141399262Y-92199575D01*
X141399262Y-92199575D02*
X141426200Y-92280387D01*
X141426200Y-92280387D02*
X141641699Y-92495887D01*
X141641699Y-92495887D02*
X142207384Y-91930201D01*
X142207384Y-91930201D02*
X142018822Y-91741639D01*
X142018822Y-91741639D02*
X141938010Y-91714702D01*
X141938010Y-91714702D02*
X141884135Y-91714702D01*
X141884135Y-91714702D02*
X141803323Y-91741639D01*
X141803323Y-91741639D02*
X141749448Y-91795514D01*
X141749448Y-91795514D02*
X141722511Y-91876326D01*
X141722511Y-91876326D02*
X141722511Y-91930201D01*
X141722511Y-91930201D02*
X141749448Y-92011013D01*
X141749448Y-92011013D02*
X141938010Y-92199575D01*
X140806639Y-91660827D02*
X141076013Y-91930201D01*
X141076013Y-91930201D02*
X141641699Y-91364516D01*
X141183763Y-90906580D02*
X140725827Y-91364516D01*
X140725827Y-91364516D02*
X140645015Y-91391453D01*
X140645015Y-91391453D02*
X140591140Y-91391453D01*
X140591140Y-91391453D02*
X140510328Y-91364516D01*
X140510328Y-91364516D02*
X140402578Y-91256766D01*
X140402578Y-91256766D02*
X140375641Y-91175954D01*
X140375641Y-91175954D02*
X140375641Y-91122079D01*
X140375641Y-91122079D02*
X140402578Y-91041267D01*
X140402578Y-91041267D02*
X140860514Y-90583331D01*
X121391699Y-92245887D02*
X121957384Y-91680201D01*
X121122325Y-91976513D02*
X121688010Y-91410827D01*
X121688010Y-91410827D02*
X121553323Y-91276140D01*
X121553323Y-91276140D02*
X121445574Y-91222266D01*
X121445574Y-91222266D02*
X121337824Y-91222266D01*
X121337824Y-91222266D02*
X121257012Y-91249203D01*
X121257012Y-91249203D02*
X121122325Y-91330015D01*
X121122325Y-91330015D02*
X121041513Y-91410827D01*
X121041513Y-91410827D02*
X120960701Y-91545514D01*
X120960701Y-91545514D02*
X120933763Y-91626327D01*
X120933763Y-91626327D02*
X120933763Y-91734076D01*
X120933763Y-91734076D02*
X120987638Y-91841826D01*
X120987638Y-91841826D02*
X121122325Y-91976513D01*
X120260328Y-91114516D02*
X120583577Y-91437765D01*
X120421953Y-91276140D02*
X120987638Y-90710455D01*
X120987638Y-90710455D02*
X120960701Y-90845142D01*
X120960701Y-90845142D02*
X120960701Y-90952892D01*
X120960701Y-90952892D02*
X120987638Y-91033704D01*
X135891699Y-104245887D02*
X136457384Y-103680201D01*
X135622325Y-103976513D02*
X136188010Y-103410827D01*
X136188010Y-103410827D02*
X136053323Y-103276140D01*
X136053323Y-103276140D02*
X135945574Y-103222266D01*
X135945574Y-103222266D02*
X135837824Y-103222266D01*
X135837824Y-103222266D02*
X135757012Y-103249203D01*
X135757012Y-103249203D02*
X135622325Y-103330015D01*
X135622325Y-103330015D02*
X135541513Y-103410827D01*
X135541513Y-103410827D02*
X135460701Y-103545514D01*
X135460701Y-103545514D02*
X135433763Y-103626327D01*
X135433763Y-103626327D02*
X135433763Y-103734076D01*
X135433763Y-103734076D02*
X135487638Y-103841826D01*
X135487638Y-103841826D02*
X135622325Y-103976513D01*
X135595388Y-102925954D02*
X135595388Y-102872079D01*
X135595388Y-102872079D02*
X135568450Y-102791267D01*
X135568450Y-102791267D02*
X135433763Y-102656580D01*
X135433763Y-102656580D02*
X135352951Y-102629643D01*
X135352951Y-102629643D02*
X135299076Y-102629643D01*
X135299076Y-102629643D02*
X135218264Y-102656580D01*
X135218264Y-102656580D02*
X135164389Y-102710455D01*
X135164389Y-102710455D02*
X135110514Y-102818205D01*
X135110514Y-102818205D02*
X135110514Y-103464702D01*
X135110514Y-103464702D02*
X134760328Y-103114516D01*
X126134135Y-103410827D02*
X126214948Y-103437765D01*
X126214948Y-103437765D02*
X126295760Y-103518577D01*
X126295760Y-103518577D02*
X126349635Y-103626326D01*
X126349635Y-103626326D02*
X126349635Y-103734076D01*
X126349635Y-103734076D02*
X126322697Y-103814888D01*
X126322697Y-103814888D02*
X126241885Y-103949575D01*
X126241885Y-103949575D02*
X126161073Y-104030387D01*
X126161073Y-104030387D02*
X126026386Y-104111200D01*
X126026386Y-104111200D02*
X125945574Y-104138137D01*
X125945574Y-104138137D02*
X125837824Y-104138137D01*
X125837824Y-104138137D02*
X125730074Y-104084262D01*
X125730074Y-104084262D02*
X125676200Y-104030387D01*
X125676200Y-104030387D02*
X125622325Y-103922638D01*
X125622325Y-103922638D02*
X125622325Y-103868763D01*
X125622325Y-103868763D02*
X125810887Y-103680201D01*
X125810887Y-103680201D02*
X125918636Y-103787951D01*
X125326013Y-103680201D02*
X125891699Y-103114516D01*
X125891699Y-103114516D02*
X125002764Y-103356952D01*
X125002764Y-103356952D02*
X125568450Y-102791267D01*
X124733391Y-103087578D02*
X125299076Y-102521893D01*
X125299076Y-102521893D02*
X125164389Y-102387206D01*
X125164389Y-102387206D02*
X125056639Y-102333331D01*
X125056639Y-102333331D02*
X124948890Y-102333331D01*
X124948890Y-102333331D02*
X124868078Y-102360269D01*
X124868078Y-102360269D02*
X124733391Y-102441081D01*
X124733391Y-102441081D02*
X124652578Y-102521893D01*
X124652578Y-102521893D02*
X124571766Y-102656580D01*
X124571766Y-102656580D02*
X124544829Y-102737392D01*
X124544829Y-102737392D02*
X124544829Y-102845142D01*
X124544829Y-102845142D02*
X124598704Y-102952891D01*
X124598704Y-102952891D02*
X124733391Y-103087578D01*
X118891699Y-92245887D02*
X119457384Y-91680201D01*
X118622325Y-91976513D02*
X119188010Y-91410827D01*
X119188010Y-91410827D02*
X119053323Y-91276140D01*
X119053323Y-91276140D02*
X118945574Y-91222266D01*
X118945574Y-91222266D02*
X118837824Y-91222266D01*
X118837824Y-91222266D02*
X118757012Y-91249203D01*
X118757012Y-91249203D02*
X118622325Y-91330015D01*
X118622325Y-91330015D02*
X118541513Y-91410827D01*
X118541513Y-91410827D02*
X118460701Y-91545514D01*
X118460701Y-91545514D02*
X118433763Y-91626327D01*
X118433763Y-91626327D02*
X118433763Y-91734076D01*
X118433763Y-91734076D02*
X118487638Y-91841826D01*
X118487638Y-91841826D02*
X118622325Y-91976513D01*
X118514575Y-90737392D02*
X118460701Y-90683518D01*
X118460701Y-90683518D02*
X118379888Y-90656580D01*
X118379888Y-90656580D02*
X118326014Y-90656580D01*
X118326014Y-90656580D02*
X118245201Y-90683518D01*
X118245201Y-90683518D02*
X118110514Y-90764330D01*
X118110514Y-90764330D02*
X117975827Y-90899017D01*
X117975827Y-90899017D02*
X117895015Y-91033704D01*
X117895015Y-91033704D02*
X117868078Y-91114516D01*
X117868078Y-91114516D02*
X117868078Y-91168391D01*
X117868078Y-91168391D02*
X117895015Y-91249203D01*
X117895015Y-91249203D02*
X117948890Y-91303078D01*
X117948890Y-91303078D02*
X118029702Y-91330015D01*
X118029702Y-91330015D02*
X118083577Y-91330015D01*
X118083577Y-91330015D02*
X118164389Y-91303078D01*
X118164389Y-91303078D02*
X118299076Y-91222266D01*
X118299076Y-91222266D02*
X118433763Y-91087579D01*
X118433763Y-91087579D02*
X118514575Y-90952892D01*
X118514575Y-90952892D02*
X118541513Y-90872079D01*
X118541513Y-90872079D02*
X118541513Y-90818205D01*
X118541513Y-90818205D02*
X118514575Y-90737392D01*
X131134135Y-103410827D02*
X131214948Y-103437765D01*
X131214948Y-103437765D02*
X131295760Y-103518577D01*
X131295760Y-103518577D02*
X131349635Y-103626326D01*
X131349635Y-103626326D02*
X131349635Y-103734076D01*
X131349635Y-103734076D02*
X131322697Y-103814888D01*
X131322697Y-103814888D02*
X131241885Y-103949575D01*
X131241885Y-103949575D02*
X131161073Y-104030387D01*
X131161073Y-104030387D02*
X131026386Y-104111200D01*
X131026386Y-104111200D02*
X130945574Y-104138137D01*
X130945574Y-104138137D02*
X130837824Y-104138137D01*
X130837824Y-104138137D02*
X130730074Y-104084262D01*
X130730074Y-104084262D02*
X130676200Y-104030387D01*
X130676200Y-104030387D02*
X130622325Y-103922638D01*
X130622325Y-103922638D02*
X130622325Y-103868763D01*
X130622325Y-103868763D02*
X130810887Y-103680201D01*
X130810887Y-103680201D02*
X130918636Y-103787951D01*
X130326013Y-103680201D02*
X130891699Y-103114516D01*
X130891699Y-103114516D02*
X130002764Y-103356952D01*
X130002764Y-103356952D02*
X130568450Y-102791267D01*
X129733391Y-103087578D02*
X130299076Y-102521893D01*
X130299076Y-102521893D02*
X130164389Y-102387206D01*
X130164389Y-102387206D02*
X130056639Y-102333331D01*
X130056639Y-102333331D02*
X129948890Y-102333331D01*
X129948890Y-102333331D02*
X129868078Y-102360269D01*
X129868078Y-102360269D02*
X129733391Y-102441081D01*
X129733391Y-102441081D02*
X129652578Y-102521893D01*
X129652578Y-102521893D02*
X129571766Y-102656580D01*
X129571766Y-102656580D02*
X129544829Y-102737392D01*
X129544829Y-102737392D02*
X129544829Y-102845142D01*
X129544829Y-102845142D02*
X129598704Y-102952891D01*
X129598704Y-102952891D02*
X129733391Y-103087578D01*
X149384135Y-91660827D02*
X149464948Y-91687765D01*
X149464948Y-91687765D02*
X149545760Y-91768577D01*
X149545760Y-91768577D02*
X149599635Y-91876326D01*
X149599635Y-91876326D02*
X149599635Y-91984076D01*
X149599635Y-91984076D02*
X149572697Y-92064888D01*
X149572697Y-92064888D02*
X149491885Y-92199575D01*
X149491885Y-92199575D02*
X149411073Y-92280387D01*
X149411073Y-92280387D02*
X149276386Y-92361200D01*
X149276386Y-92361200D02*
X149195574Y-92388137D01*
X149195574Y-92388137D02*
X149087824Y-92388137D01*
X149087824Y-92388137D02*
X148980074Y-92334262D01*
X148980074Y-92334262D02*
X148926200Y-92280387D01*
X148926200Y-92280387D02*
X148872325Y-92172638D01*
X148872325Y-92172638D02*
X148872325Y-92118763D01*
X148872325Y-92118763D02*
X149060887Y-91930201D01*
X149060887Y-91930201D02*
X149168636Y-92037951D01*
X148576013Y-91930201D02*
X149141699Y-91364516D01*
X149141699Y-91364516D02*
X148252764Y-91606952D01*
X148252764Y-91606952D02*
X148818450Y-91041267D01*
X147983391Y-91337578D02*
X148549076Y-90771893D01*
X148549076Y-90771893D02*
X148414389Y-90637206D01*
X148414389Y-90637206D02*
X148306639Y-90583331D01*
X148306639Y-90583331D02*
X148198890Y-90583331D01*
X148198890Y-90583331D02*
X148118078Y-90610269D01*
X148118078Y-90610269D02*
X147983391Y-90691081D01*
X147983391Y-90691081D02*
X147902578Y-90771893D01*
X147902578Y-90771893D02*
X147821766Y-90906580D01*
X147821766Y-90906580D02*
X147794829Y-90987392D01*
X147794829Y-90987392D02*
X147794829Y-91095142D01*
X147794829Y-91095142D02*
X147848704Y-91202891D01*
X147848704Y-91202891D02*
X147983391Y-91337578D01*
X120641699Y-103995887D02*
X121207384Y-103430201D01*
X120372325Y-103726513D02*
X120938010Y-103160827D01*
X120938010Y-103160827D02*
X120803323Y-103026140D01*
X120803323Y-103026140D02*
X120695574Y-102972266D01*
X120695574Y-102972266D02*
X120587824Y-102972266D01*
X120587824Y-102972266D02*
X120507012Y-102999203D01*
X120507012Y-102999203D02*
X120372325Y-103080015D01*
X120372325Y-103080015D02*
X120291513Y-103160827D01*
X120291513Y-103160827D02*
X120210701Y-103295514D01*
X120210701Y-103295514D02*
X120183763Y-103376327D01*
X120183763Y-103376327D02*
X120183763Y-103484076D01*
X120183763Y-103484076D02*
X120237638Y-103591826D01*
X120237638Y-103591826D02*
X120372325Y-103726513D01*
X119510328Y-102864516D02*
X119833577Y-103187765D01*
X119671953Y-103026140D02*
X120237638Y-102460455D01*
X120237638Y-102460455D02*
X120210701Y-102595142D01*
X120210701Y-102595142D02*
X120210701Y-102702892D01*
X120210701Y-102702892D02*
X120237638Y-102783704D01*
X126884135Y-91660827D02*
X126964948Y-91687765D01*
X126964948Y-91687765D02*
X127045760Y-91768577D01*
X127045760Y-91768577D02*
X127099635Y-91876326D01*
X127099635Y-91876326D02*
X127099635Y-91984076D01*
X127099635Y-91984076D02*
X127072697Y-92064888D01*
X127072697Y-92064888D02*
X126991885Y-92199575D01*
X126991885Y-92199575D02*
X126911073Y-92280387D01*
X126911073Y-92280387D02*
X126776386Y-92361200D01*
X126776386Y-92361200D02*
X126695574Y-92388137D01*
X126695574Y-92388137D02*
X126587824Y-92388137D01*
X126587824Y-92388137D02*
X126480074Y-92334262D01*
X126480074Y-92334262D02*
X126426200Y-92280387D01*
X126426200Y-92280387D02*
X126372325Y-92172638D01*
X126372325Y-92172638D02*
X126372325Y-92118763D01*
X126372325Y-92118763D02*
X126560887Y-91930201D01*
X126560887Y-91930201D02*
X126668636Y-92037951D01*
X126076013Y-91930201D02*
X126641699Y-91364516D01*
X126641699Y-91364516D02*
X125752764Y-91606952D01*
X125752764Y-91606952D02*
X126318450Y-91041267D01*
X125483391Y-91337578D02*
X126049076Y-90771893D01*
X126049076Y-90771893D02*
X125914389Y-90637206D01*
X125914389Y-90637206D02*
X125806639Y-90583331D01*
X125806639Y-90583331D02*
X125698890Y-90583331D01*
X125698890Y-90583331D02*
X125618078Y-90610269D01*
X125618078Y-90610269D02*
X125483391Y-90691081D01*
X125483391Y-90691081D02*
X125402578Y-90771893D01*
X125402578Y-90771893D02*
X125321766Y-90906580D01*
X125321766Y-90906580D02*
X125294829Y-90987392D01*
X125294829Y-90987392D02*
X125294829Y-91095142D01*
X125294829Y-91095142D02*
X125348704Y-91202891D01*
X125348704Y-91202891D02*
X125483391Y-91337578D01*
X146884135Y-91660827D02*
X146964948Y-91687765D01*
X146964948Y-91687765D02*
X147045760Y-91768577D01*
X147045760Y-91768577D02*
X147099635Y-91876326D01*
X147099635Y-91876326D02*
X147099635Y-91984076D01*
X147099635Y-91984076D02*
X147072697Y-92064888D01*
X147072697Y-92064888D02*
X146991885Y-92199575D01*
X146991885Y-92199575D02*
X146911073Y-92280387D01*
X146911073Y-92280387D02*
X146776386Y-92361200D01*
X146776386Y-92361200D02*
X146695574Y-92388137D01*
X146695574Y-92388137D02*
X146587824Y-92388137D01*
X146587824Y-92388137D02*
X146480074Y-92334262D01*
X146480074Y-92334262D02*
X146426200Y-92280387D01*
X146426200Y-92280387D02*
X146372325Y-92172638D01*
X146372325Y-92172638D02*
X146372325Y-92118763D01*
X146372325Y-92118763D02*
X146560887Y-91930201D01*
X146560887Y-91930201D02*
X146668636Y-92037951D01*
X145752764Y-91606952D02*
X146210700Y-91526140D01*
X146076013Y-91930201D02*
X146641699Y-91364516D01*
X146641699Y-91364516D02*
X146426200Y-91149017D01*
X146426200Y-91149017D02*
X146345387Y-91122079D01*
X146345387Y-91122079D02*
X146291513Y-91122079D01*
X146291513Y-91122079D02*
X146210700Y-91149017D01*
X146210700Y-91149017D02*
X146129888Y-91229829D01*
X146129888Y-91229829D02*
X146102951Y-91310641D01*
X146102951Y-91310641D02*
X146102951Y-91364516D01*
X146102951Y-91364516D02*
X146129888Y-91445328D01*
X146129888Y-91445328D02*
X146345387Y-91660827D01*
X145510328Y-91364516D02*
X146076013Y-90798830D01*
X146076013Y-90798830D02*
X145187079Y-91041267D01*
X145187079Y-91041267D02*
X145752764Y-90475581D01*
X140999448Y-103761013D02*
X140891699Y-103707139D01*
X140891699Y-103707139D02*
X140837824Y-103707139D01*
X140837824Y-103707139D02*
X140757012Y-103734076D01*
X140757012Y-103734076D02*
X140676200Y-103814888D01*
X140676200Y-103814888D02*
X140649262Y-103895700D01*
X140649262Y-103895700D02*
X140649262Y-103949575D01*
X140649262Y-103949575D02*
X140676200Y-104030387D01*
X140676200Y-104030387D02*
X140891699Y-104245887D01*
X140891699Y-104245887D02*
X141457384Y-103680201D01*
X141457384Y-103680201D02*
X141268822Y-103491639D01*
X141268822Y-103491639D02*
X141188010Y-103464702D01*
X141188010Y-103464702D02*
X141134135Y-103464702D01*
X141134135Y-103464702D02*
X141053323Y-103491639D01*
X141053323Y-103491639D02*
X140999448Y-103545514D01*
X140999448Y-103545514D02*
X140972511Y-103626326D01*
X140972511Y-103626326D02*
X140972511Y-103680201D01*
X140972511Y-103680201D02*
X140999448Y-103761013D01*
X140999448Y-103761013D02*
X141188010Y-103949575D01*
X140056639Y-103410827D02*
X140326013Y-103680201D01*
X140326013Y-103680201D02*
X140891699Y-103114516D01*
X140433763Y-102656580D02*
X139975827Y-103114516D01*
X139975827Y-103114516D02*
X139895015Y-103141453D01*
X139895015Y-103141453D02*
X139841140Y-103141453D01*
X139841140Y-103141453D02*
X139760328Y-103114516D01*
X139760328Y-103114516D02*
X139652578Y-103006766D01*
X139652578Y-103006766D02*
X139625641Y-102925954D01*
X139625641Y-102925954D02*
X139625641Y-102872079D01*
X139625641Y-102872079D02*
X139652578Y-102791267D01*
X139652578Y-102791267D02*
X140110514Y-102333331D01*
X123391699Y-104245887D02*
X123957384Y-103680201D01*
X123688010Y-103949575D02*
X123364761Y-103626326D01*
X123068450Y-103922638D02*
X123634135Y-103356952D01*
X122852951Y-103653264D02*
X122745201Y-103599389D01*
X122745201Y-103599389D02*
X122610514Y-103464702D01*
X122610514Y-103464702D02*
X122583577Y-103383890D01*
X122583577Y-103383890D02*
X122583577Y-103330015D01*
X122583577Y-103330015D02*
X122610514Y-103249203D01*
X122610514Y-103249203D02*
X122664389Y-103195328D01*
X122664389Y-103195328D02*
X122745201Y-103168391D01*
X122745201Y-103168391D02*
X122799076Y-103168391D01*
X122799076Y-103168391D02*
X122879888Y-103195328D01*
X122879888Y-103195328D02*
X123014575Y-103276140D01*
X123014575Y-103276140D02*
X123095387Y-103303078D01*
X123095387Y-103303078D02*
X123149262Y-103303078D01*
X123149262Y-103303078D02*
X123230074Y-103276140D01*
X123230074Y-103276140D02*
X123283949Y-103222265D01*
X123283949Y-103222265D02*
X123310887Y-103141453D01*
X123310887Y-103141453D02*
X123310887Y-103087578D01*
X123310887Y-103087578D02*
X123283949Y-103006766D01*
X123283949Y-103006766D02*
X123149262Y-102872079D01*
X123149262Y-102872079D02*
X123041513Y-102818204D01*
X122421952Y-102737392D02*
X122152578Y-103006766D01*
X122906826Y-102629642D02*
X122421952Y-102737392D01*
X122421952Y-102737392D02*
X122529702Y-102252519D01*
D11*
X136178333Y-82971706D02*
X136178333Y-83685991D01*
X136178333Y-83685991D02*
X136225952Y-83828848D01*
X136225952Y-83828848D02*
X136321190Y-83924087D01*
X136321190Y-83924087D02*
X136464047Y-83971706D01*
X136464047Y-83971706D02*
X136559285Y-83971706D01*
X135178333Y-83971706D02*
X135749761Y-83971706D01*
X135464047Y-83971706D02*
X135464047Y-82971706D01*
X135464047Y-82971706D02*
X135559285Y-83114563D01*
X135559285Y-83114563D02*
X135654523Y-83209801D01*
X135654523Y-83209801D02*
X135749761Y-83257420D01*
D12*
%TO.C,J1*%
X120360000Y-73976887D02*
X120360000Y-82576887D01*
X120360000Y-82576887D02*
X151330000Y-82576887D01*
X139910000Y-83471225D02*
X140410000Y-83471225D01*
X140160000Y-83038212D02*
X139910000Y-83471225D01*
X140410000Y-83471225D02*
X140160000Y-83038212D01*
X151330000Y-82576887D02*
X151330000Y-73976887D01*
%TO.C,J2*%
X116760000Y-88750000D02*
X116760000Y-90080000D01*
X116760000Y-90080000D02*
X118090000Y-90080000D01*
X119360000Y-87420000D02*
X119360000Y-90080000D01*
X119360000Y-87420000D02*
X154980000Y-87420000D01*
X119360000Y-90080000D02*
X154980000Y-90080000D01*
X154980000Y-87420000D02*
X154980000Y-90080000D01*
D13*
%TO.C,REF\u002A\u002A*%
X135163349Y-98695865D02*
X135185178Y-98726298D01*
X135185178Y-98726298D02*
X135206842Y-98754745D01*
X135206842Y-98754745D02*
X135228352Y-98781216D01*
X135228352Y-98781216D02*
X135249720Y-98805717D01*
X135249720Y-98805717D02*
X135270957Y-98828258D01*
X135270957Y-98828258D02*
X135292076Y-98848847D01*
X135292076Y-98848847D02*
X135313087Y-98867493D01*
X135313087Y-98867493D02*
X135334003Y-98884202D01*
X135334003Y-98884202D02*
X135354834Y-98898985D01*
X135354834Y-98898985D02*
X135375593Y-98911849D01*
X135375593Y-98911849D02*
X135396291Y-98922803D01*
X135396291Y-98922803D02*
X135416939Y-98931854D01*
X135416939Y-98931854D02*
X135437550Y-98939012D01*
X135437550Y-98939012D02*
X135458135Y-98944285D01*
X135458135Y-98944285D02*
X135478705Y-98947680D01*
X135478705Y-98947680D02*
X135499272Y-98949207D01*
X135499272Y-98949207D02*
X135519845Y-98948889D01*
X135519845Y-98948889D02*
X135540441Y-98947221D01*
X135540441Y-98947221D02*
X135561074Y-98944256D01*
X135561074Y-98944256D02*
X135581753Y-98940048D01*
X135581753Y-98940048D02*
X135602492Y-98934651D01*
X135602492Y-98934651D02*
X135623302Y-98928119D01*
X135623302Y-98928119D02*
X135644195Y-98920504D01*
X135644195Y-98920504D02*
X135665182Y-98911861D01*
X135665182Y-98911861D02*
X135686276Y-98902243D01*
X135686276Y-98902243D02*
X135707488Y-98891704D01*
X135707488Y-98891704D02*
X135728830Y-98880297D01*
X135728830Y-98880297D02*
X135750313Y-98868075D01*
X135750313Y-98868075D02*
X135771951Y-98855094D01*
X135771951Y-98855094D02*
X135793753Y-98841405D01*
X135793753Y-98841405D02*
X135837902Y-98812122D01*
X135890971Y-98837560D02*
X135846821Y-98808277D01*
X135912773Y-98851249D02*
X135890971Y-98837560D01*
X135934409Y-98864230D02*
X135912773Y-98851249D01*
X135955892Y-98876451D02*
X135934409Y-98864230D01*
X135977232Y-98887858D02*
X135955892Y-98876451D01*
X135998441Y-98898398D02*
X135977232Y-98887858D01*
X136019532Y-98908016D02*
X135998441Y-98898398D01*
X136040517Y-98916659D02*
X136019532Y-98908016D01*
X136061407Y-98924274D02*
X136040517Y-98916659D01*
X136082215Y-98930806D02*
X136061407Y-98924274D01*
X136102952Y-98936203D02*
X136082215Y-98930806D01*
X136123629Y-98940411D02*
X136102952Y-98936203D01*
X136144260Y-98943375D02*
X136123629Y-98940411D01*
X136164856Y-98945044D02*
X136144260Y-98943375D01*
X136185429Y-98945362D02*
X136164856Y-98945044D01*
X136205998Y-98943835D02*
X136185429Y-98945362D01*
X136226570Y-98940441D02*
X136205998Y-98943835D01*
X136247157Y-98935171D02*
X136226570Y-98940441D01*
X136267769Y-98928016D02*
X136247157Y-98935171D01*
X136288418Y-98918968D02*
X136267769Y-98928016D01*
X136309117Y-98908018D02*
X136288418Y-98918968D01*
X136329876Y-98895157D02*
X136309117Y-98908018D01*
X136350707Y-98880378D02*
X136329876Y-98895157D01*
X136371623Y-98863672D02*
X136350707Y-98880378D01*
X136392634Y-98845030D02*
X136371623Y-98863672D01*
X136413752Y-98824443D02*
X136392634Y-98845030D01*
X136434989Y-98801904D02*
X136413752Y-98824443D01*
X136456357Y-98777404D02*
X136434989Y-98801904D01*
X136477866Y-98750934D02*
X136456357Y-98777404D01*
X136499530Y-98722485D02*
X136477866Y-98750934D01*
X136521359Y-98692050D02*
X136499530Y-98722485D01*
D14*
X133181025Y-95527540D02*
X133237924Y-95533686D01*
X133293724Y-95543780D01*
X133348235Y-95557699D01*
X133401265Y-95575322D01*
X133452623Y-95596525D01*
X133502119Y-95621187D01*
X133549560Y-95649186D01*
X133594756Y-95680399D01*
X133637515Y-95714704D01*
X133677647Y-95751980D01*
X133714960Y-95792103D01*
X133749264Y-95834952D01*
X133780366Y-95880405D01*
X133808076Y-95928340D01*
X133832203Y-95978633D01*
X133852319Y-96030514D01*
X133868158Y-96083150D01*
X133879764Y-96136327D01*
X133887181Y-96189827D01*
X133890455Y-96243436D01*
X133889631Y-96296937D01*
X133884754Y-96350116D01*
X133875867Y-96402756D01*
X133863017Y-96454642D01*
X133846248Y-96505559D01*
X133825604Y-96555290D01*
X133801131Y-96603619D01*
X133772874Y-96650332D01*
X133740877Y-96695213D01*
X133705186Y-96738045D01*
X133665844Y-96778614D01*
X133623435Y-96816247D01*
X133578660Y-96850389D01*
X133531743Y-96880996D01*
X133482909Y-96908026D01*
X133432386Y-96931436D01*
X133380397Y-96951183D01*
X133327169Y-96967224D01*
X133272927Y-96979517D01*
X133217896Y-96988017D01*
X133162302Y-96992683D01*
X133106370Y-96993471D01*
X133050327Y-96990339D01*
X132994396Y-96983243D01*
X132938805Y-96972141D01*
X132883778Y-96956990D01*
X132829540Y-96937747D01*
X132802952Y-96926648D01*
X132776964Y-96914669D01*
X132751593Y-96901834D01*
X132726854Y-96888164D01*
X132702764Y-96873683D01*
X132679338Y-96858413D01*
X132656592Y-96842378D01*
X132634544Y-96825600D01*
X132613207Y-96808103D01*
X132592599Y-96789908D01*
X132572735Y-96771039D01*
X132553632Y-96751520D01*
X132535305Y-96731371D01*
X132517770Y-96710617D01*
X132501043Y-96689281D01*
X132485140Y-96667385D01*
X132470077Y-96644951D01*
X132455871Y-96622004D01*
X132442537Y-96598565D01*
X132430090Y-96574658D01*
X132418548Y-96550305D01*
X132407925Y-96525530D01*
X132398238Y-96500355D01*
X132389504Y-96474802D01*
X132381737Y-96448896D01*
X132374954Y-96422658D01*
X132369170Y-96396112D01*
X132364403Y-96369281D01*
X132360667Y-96342186D01*
X132357978Y-96314852D01*
X132356354Y-96287301D01*
X132355808Y-96259555D01*
X133123219Y-96259548D01*
X133123219Y-95525463D01*
X133181025Y-95527540D01*
G36*
X133181025Y-95527540D02*
G01*
X133237924Y-95533686D01*
X133293724Y-95543780D01*
X133348235Y-95557699D01*
X133401265Y-95575322D01*
X133452623Y-95596525D01*
X133502119Y-95621187D01*
X133549560Y-95649186D01*
X133594756Y-95680399D01*
X133637515Y-95714704D01*
X133677647Y-95751980D01*
X133714960Y-95792103D01*
X133749264Y-95834952D01*
X133780366Y-95880405D01*
X133808076Y-95928340D01*
X133832203Y-95978633D01*
X133852319Y-96030514D01*
X133868158Y-96083150D01*
X133879764Y-96136327D01*
X133887181Y-96189827D01*
X133890455Y-96243436D01*
X133889631Y-96296937D01*
X133884754Y-96350116D01*
X133875867Y-96402756D01*
X133863017Y-96454642D01*
X133846248Y-96505559D01*
X133825604Y-96555290D01*
X133801131Y-96603619D01*
X133772874Y-96650332D01*
X133740877Y-96695213D01*
X133705186Y-96738045D01*
X133665844Y-96778614D01*
X133623435Y-96816247D01*
X133578660Y-96850389D01*
X133531743Y-96880996D01*
X133482909Y-96908026D01*
X133432386Y-96931436D01*
X133380397Y-96951183D01*
X133327169Y-96967224D01*
X133272927Y-96979517D01*
X133217896Y-96988017D01*
X133162302Y-96992683D01*
X133106370Y-96993471D01*
X133050327Y-96990339D01*
X132994396Y-96983243D01*
X132938805Y-96972141D01*
X132883778Y-96956990D01*
X132829540Y-96937747D01*
X132802952Y-96926648D01*
X132776964Y-96914669D01*
X132751593Y-96901834D01*
X132726854Y-96888164D01*
X132702764Y-96873683D01*
X132679338Y-96858413D01*
X132656592Y-96842378D01*
X132634544Y-96825600D01*
X132613207Y-96808103D01*
X132592599Y-96789908D01*
X132572735Y-96771039D01*
X132553632Y-96751520D01*
X132535305Y-96731371D01*
X132517770Y-96710617D01*
X132501043Y-96689281D01*
X132485140Y-96667385D01*
X132470077Y-96644951D01*
X132455871Y-96622004D01*
X132442537Y-96598565D01*
X132430090Y-96574658D01*
X132418548Y-96550305D01*
X132407925Y-96525530D01*
X132398238Y-96500355D01*
X132389504Y-96474802D01*
X132381737Y-96448896D01*
X132374954Y-96422658D01*
X132369170Y-96396112D01*
X132364403Y-96369281D01*
X132360667Y-96342186D01*
X132357978Y-96314852D01*
X132356354Y-96287301D01*
X132355808Y-96259555D01*
X133123219Y-96259548D01*
X133123219Y-95525463D01*
X133181025Y-95527540D01*
G37*
X138614568Y-95527540D02*
X138671469Y-95533686D01*
X138727272Y-95543780D01*
X138781785Y-95557699D01*
X138834818Y-95575322D01*
X138886178Y-95596525D01*
X138935675Y-95621187D01*
X138983117Y-95649186D01*
X139028315Y-95680399D01*
X139071075Y-95714704D01*
X139111208Y-95751980D01*
X139148522Y-95792103D01*
X139182826Y-95834952D01*
X139213929Y-95880405D01*
X139241639Y-95928340D01*
X139265766Y-95978633D01*
X139285884Y-96030514D01*
X139301724Y-96083150D01*
X139313330Y-96136327D01*
X139320749Y-96189827D01*
X139324024Y-96243436D01*
X139323200Y-96296937D01*
X139318322Y-96350116D01*
X139309436Y-96402756D01*
X139296586Y-96454642D01*
X139279816Y-96505559D01*
X139259172Y-96555290D01*
X139234699Y-96603619D01*
X139206441Y-96650332D01*
X139174443Y-96695213D01*
X139138750Y-96738045D01*
X139099407Y-96778614D01*
X139056996Y-96816247D01*
X139012218Y-96850389D01*
X138965298Y-96880996D01*
X138916463Y-96908026D01*
X138865937Y-96931436D01*
X138813946Y-96951183D01*
X138760716Y-96967224D01*
X138706472Y-96979517D01*
X138651439Y-96988017D01*
X138595843Y-96992683D01*
X138539910Y-96993471D01*
X138483865Y-96990339D01*
X138427933Y-96983243D01*
X138372340Y-96972141D01*
X138317312Y-96956990D01*
X138263073Y-96937747D01*
X138236485Y-96926648D01*
X138210497Y-96914669D01*
X138185125Y-96901833D01*
X138160386Y-96888163D01*
X138136296Y-96873682D01*
X138112870Y-96858412D01*
X138090124Y-96842377D01*
X138068075Y-96825599D01*
X138046738Y-96808101D01*
X138026130Y-96789906D01*
X138006266Y-96771037D01*
X137987162Y-96751517D01*
X137968835Y-96731369D01*
X137951299Y-96710614D01*
X137934572Y-96689278D01*
X137918669Y-96667381D01*
X137903606Y-96644947D01*
X137889399Y-96621999D01*
X137876064Y-96598560D01*
X137863618Y-96574653D01*
X137852075Y-96550300D01*
X137841452Y-96525524D01*
X137831765Y-96500349D01*
X137823030Y-96474796D01*
X137815263Y-96448889D01*
X137808479Y-96422652D01*
X137802696Y-96396105D01*
X137797928Y-96369273D01*
X137794192Y-96342179D01*
X137791503Y-96314845D01*
X137789879Y-96287293D01*
X137789334Y-96259548D01*
X138556751Y-96259548D01*
X138556759Y-95525463D01*
X138614568Y-95527540D01*
G36*
X138614568Y-95527540D02*
G01*
X138671469Y-95533686D01*
X138727272Y-95543780D01*
X138781785Y-95557699D01*
X138834818Y-95575322D01*
X138886178Y-95596525D01*
X138935675Y-95621187D01*
X138983117Y-95649186D01*
X139028315Y-95680399D01*
X139071075Y-95714704D01*
X139111208Y-95751980D01*
X139148522Y-95792103D01*
X139182826Y-95834952D01*
X139213929Y-95880405D01*
X139241639Y-95928340D01*
X139265766Y-95978633D01*
X139285884Y-96030514D01*
X139301724Y-96083150D01*
X139313330Y-96136327D01*
X139320749Y-96189827D01*
X139324024Y-96243436D01*
X139323200Y-96296937D01*
X139318322Y-96350116D01*
X139309436Y-96402756D01*
X139296586Y-96454642D01*
X139279816Y-96505559D01*
X139259172Y-96555290D01*
X139234699Y-96603619D01*
X139206441Y-96650332D01*
X139174443Y-96695213D01*
X139138750Y-96738045D01*
X139099407Y-96778614D01*
X139056996Y-96816247D01*
X139012218Y-96850389D01*
X138965298Y-96880996D01*
X138916463Y-96908026D01*
X138865937Y-96931436D01*
X138813946Y-96951183D01*
X138760716Y-96967224D01*
X138706472Y-96979517D01*
X138651439Y-96988017D01*
X138595843Y-96992683D01*
X138539910Y-96993471D01*
X138483865Y-96990339D01*
X138427933Y-96983243D01*
X138372340Y-96972141D01*
X138317312Y-96956990D01*
X138263073Y-96937747D01*
X138236485Y-96926648D01*
X138210497Y-96914669D01*
X138185125Y-96901833D01*
X138160386Y-96888163D01*
X138136296Y-96873682D01*
X138112870Y-96858412D01*
X138090124Y-96842377D01*
X138068075Y-96825599D01*
X138046738Y-96808101D01*
X138026130Y-96789906D01*
X138006266Y-96771037D01*
X137987162Y-96751517D01*
X137968835Y-96731369D01*
X137951299Y-96710614D01*
X137934572Y-96689278D01*
X137918669Y-96667381D01*
X137903606Y-96644947D01*
X137889399Y-96621999D01*
X137876064Y-96598560D01*
X137863618Y-96574653D01*
X137852075Y-96550300D01*
X137841452Y-96525524D01*
X137831765Y-96500349D01*
X137823030Y-96474796D01*
X137815263Y-96448889D01*
X137808479Y-96422652D01*
X137802696Y-96396105D01*
X137797928Y-96369273D01*
X137794192Y-96342179D01*
X137791503Y-96314845D01*
X137789879Y-96287293D01*
X137789334Y-96259548D01*
X138556751Y-96259548D01*
X138556759Y-95525463D01*
X138614568Y-95527540D01*
G37*
D15*
X133163104Y-95519088D02*
X133202466Y-95521951D01*
X133241255Y-95526666D01*
X133279424Y-95533186D01*
X133316922Y-95541465D01*
X133353703Y-95551455D01*
X133389716Y-95563112D01*
X133424913Y-95576387D01*
X133459246Y-95591234D01*
X133492666Y-95607607D01*
X133525124Y-95625460D01*
X133556572Y-95644744D01*
X133586960Y-95665415D01*
X133616240Y-95687425D01*
X133644363Y-95710728D01*
X133671281Y-95735278D01*
X133696945Y-95761027D01*
X133721306Y-95787928D01*
X133744316Y-95815937D01*
X133765925Y-95845005D01*
X133786086Y-95875087D01*
X133804749Y-95906135D01*
X133821865Y-95938103D01*
X133837387Y-95970945D01*
X133851265Y-96004614D01*
X133863450Y-96039064D01*
X133873895Y-96074247D01*
X133882550Y-96110118D01*
X133889366Y-96146629D01*
X133894295Y-96183734D01*
X133897288Y-96221387D01*
X133898297Y-96259540D01*
X133897288Y-96297693D01*
X133894295Y-96335345D01*
X133889366Y-96372450D01*
X133882550Y-96408961D01*
X133873895Y-96444831D01*
X133863450Y-96480014D01*
X133851265Y-96514464D01*
X133837387Y-96548133D01*
X133821865Y-96580975D01*
X133804749Y-96612944D01*
X133786086Y-96643992D01*
X133765925Y-96674074D01*
X133744316Y-96703143D01*
X133721306Y-96731152D01*
X133696945Y-96758054D01*
X133671281Y-96783803D01*
X133644363Y-96808353D01*
X133616240Y-96831657D01*
X133586960Y-96853668D01*
X133556572Y-96874339D01*
X133525124Y-96893624D01*
X133492666Y-96911477D01*
X133459246Y-96927851D01*
X133424913Y-96942699D01*
X133389716Y-96955974D01*
X133353703Y-96967631D01*
X133316922Y-96977622D01*
X133279424Y-96985901D01*
X133241255Y-96992422D01*
X133202466Y-96997137D01*
X133163104Y-97000000D01*
X133123219Y-97000965D01*
X133083333Y-97000000D01*
X133043972Y-96997137D01*
X133005182Y-96992422D01*
X132967014Y-96985901D01*
X132929515Y-96977622D01*
X132892735Y-96967631D01*
X132856721Y-96955974D01*
X132821524Y-96942699D01*
X132787191Y-96927851D01*
X132753771Y-96911477D01*
X132721313Y-96893624D01*
X132689866Y-96874339D01*
X132659478Y-96853668D01*
X132630198Y-96831657D01*
X132602074Y-96808353D01*
X132575156Y-96783803D01*
X132549493Y-96758054D01*
X132525131Y-96731152D01*
X132502122Y-96703143D01*
X132480512Y-96674074D01*
X132460352Y-96643992D01*
X132441689Y-96612944D01*
X132424572Y-96580975D01*
X132409051Y-96548133D01*
X132395173Y-96514464D01*
X132382987Y-96480014D01*
X132372542Y-96444831D01*
X132363888Y-96408961D01*
X132357072Y-96372450D01*
X132352143Y-96335345D01*
X132349149Y-96297693D01*
X132348141Y-96259540D01*
X132349149Y-96221387D01*
X132352143Y-96183734D01*
X132357072Y-96146629D01*
X132363888Y-96110118D01*
X132372542Y-96074247D01*
X132382987Y-96039064D01*
X132395173Y-96004614D01*
X132409051Y-95970945D01*
X132424572Y-95938103D01*
X132441689Y-95906135D01*
X132460352Y-95875087D01*
X132480512Y-95845005D01*
X132502122Y-95815937D01*
X132525131Y-95787928D01*
X132549493Y-95761027D01*
X132575156Y-95735278D01*
X132602074Y-95710728D01*
X132630198Y-95687425D01*
X132659478Y-95665415D01*
X132689866Y-95644744D01*
X132721313Y-95625460D01*
X132753771Y-95607607D01*
X132787191Y-95591234D01*
X132821524Y-95576387D01*
X132856721Y-95563112D01*
X132892735Y-95551455D01*
X132929515Y-95541465D01*
X132967014Y-95533186D01*
X133005182Y-95526666D01*
X133043972Y-95521951D01*
X133083333Y-95519088D01*
X133123219Y-95518123D01*
X133163104Y-95519088D01*
X138596646Y-95519088D02*
X138636009Y-95521951D01*
X138674800Y-95526666D01*
X138712969Y-95533186D01*
X138750469Y-95541465D01*
X138787251Y-95551455D01*
X138823265Y-95563112D01*
X138858464Y-95576387D01*
X138892798Y-95591234D01*
X138926219Y-95607607D01*
X138958678Y-95625460D01*
X138990126Y-95644744D01*
X139020515Y-95665415D01*
X139049796Y-95687425D01*
X139077920Y-95710728D01*
X139104839Y-95735278D01*
X139130503Y-95761027D01*
X139154865Y-95787928D01*
X139177875Y-95815937D01*
X139199485Y-95845005D01*
X139219646Y-95875087D01*
X139238310Y-95906135D01*
X139255427Y-95938103D01*
X139270949Y-95970945D01*
X139284827Y-96004614D01*
X139297013Y-96039064D01*
X139307458Y-96074247D01*
X139316113Y-96110118D01*
X139322929Y-96146629D01*
X139327858Y-96183734D01*
X139330851Y-96221387D01*
X139331860Y-96259540D01*
X139330851Y-96297693D01*
X139327858Y-96335345D01*
X139322929Y-96372450D01*
X139316113Y-96408961D01*
X139307458Y-96444831D01*
X139297013Y-96480014D01*
X139284827Y-96514464D01*
X139270949Y-96548133D01*
X139255427Y-96580975D01*
X139238310Y-96612944D01*
X139219646Y-96643992D01*
X139199485Y-96674074D01*
X139177875Y-96703143D01*
X139154865Y-96731152D01*
X139130503Y-96758054D01*
X139104839Y-96783803D01*
X139077920Y-96808353D01*
X139049796Y-96831657D01*
X139020515Y-96853668D01*
X138990126Y-96874339D01*
X138958678Y-96893624D01*
X138926219Y-96911477D01*
X138892798Y-96927851D01*
X138858464Y-96942699D01*
X138823265Y-96955974D01*
X138787251Y-96967631D01*
X138750469Y-96977622D01*
X138712969Y-96985901D01*
X138674800Y-96992422D01*
X138636009Y-96997137D01*
X138596646Y-97000000D01*
X138556759Y-97000965D01*
X138516872Y-97000000D01*
X138477509Y-96997137D01*
X138438719Y-96992422D01*
X138400549Y-96985901D01*
X138363049Y-96977622D01*
X138326267Y-96967631D01*
X138290253Y-96955974D01*
X138255054Y-96942699D01*
X138220720Y-96927851D01*
X138187299Y-96911477D01*
X138154841Y-96893624D01*
X138123392Y-96874339D01*
X138093003Y-96853668D01*
X138063722Y-96831657D01*
X138035598Y-96808353D01*
X138008680Y-96783803D01*
X137983015Y-96758054D01*
X137958653Y-96731152D01*
X137935643Y-96703143D01*
X137914033Y-96674074D01*
X137893872Y-96643992D01*
X137875209Y-96612944D01*
X137858091Y-96580975D01*
X137842569Y-96548133D01*
X137828691Y-96514464D01*
X137816505Y-96480014D01*
X137806061Y-96444831D01*
X137797406Y-96408961D01*
X137790589Y-96372450D01*
X137785660Y-96335345D01*
X137782667Y-96297693D01*
X137781658Y-96259540D01*
X137782667Y-96221387D01*
X137785660Y-96183734D01*
X137790589Y-96146629D01*
X137797406Y-96110118D01*
X137806061Y-96074247D01*
X137816505Y-96039064D01*
X137828691Y-96004614D01*
X137842569Y-95970945D01*
X137858091Y-95938103D01*
X137875209Y-95906135D01*
X137893872Y-95875087D01*
X137914033Y-95845005D01*
X137935643Y-95815937D01*
X137958653Y-95787928D01*
X137983015Y-95761027D01*
X138008680Y-95735278D01*
X138035598Y-95710728D01*
X138063722Y-95687425D01*
X138093003Y-95665415D01*
X138123392Y-95644744D01*
X138154841Y-95625460D01*
X138187299Y-95607607D01*
X138220720Y-95591234D01*
X138255054Y-95576387D01*
X138290253Y-95563112D01*
X138326267Y-95551455D01*
X138363049Y-95541465D01*
X138400549Y-95533186D01*
X138438719Y-95526666D01*
X138477509Y-95521951D01*
X138516872Y-95519088D01*
X138556759Y-95518123D01*
X138596646Y-95519088D01*
%TD*%
M02*
