%TF.GenerationSoftware,KiCad,Pcbnew,9.0.1*%
%TF.CreationDate,2025-10-17T21:58:48+03:00*%
%TF.ProjectId,transection-vga,7472616e-7365-4637-9469-6f6e2d766761,rev?*%
%TF.SameCoordinates,Original*%
%TF.FileFunction,Soldermask,Bot*%
%TF.FilePolarity,Negative*%
%FSLAX46Y46*%
G04 Gerber Fmt 4.6, Leading zero omitted, Abs format (unit mm)*
G04 Created by KiCad (PCBNEW 9.0.1) date 2025-10-17 21:58:48*
%MOMM*%
%LPD*%
G01*
G04 APERTURE LIST*
%ADD10C,3.200000*%
%ADD11C,4.000000*%
%ADD12R,1.600000X1.600000*%
%ADD13C,1.600000*%
%ADD14R,1.700000X1.700000*%
%ADD15C,1.700000*%
G04 APERTURE END LIST*
D10*
%TO.C,REF\u002A\u002A*%
X117250000Y-119750000D03*
%TD*%
%TO.C,REF\u002A\u002A*%
X154250000Y-119750000D03*
%TD*%
%TO.C,REF\u002A\u002A*%
X117250000Y-75000000D03*
%TD*%
D11*
%TO.C,J4*%
X123345000Y-116140000D03*
X148345000Y-116140000D03*
D12*
X140160000Y-114250000D03*
D13*
X137870000Y-114250000D03*
X135580000Y-114250000D03*
X133290000Y-114250000D03*
X131000000Y-114250000D03*
X141305000Y-116150000D03*
X139015000Y-116150000D03*
X136725000Y-116150000D03*
X134435000Y-116150000D03*
X132145000Y-116150000D03*
X140160000Y-118050000D03*
X137870000Y-118050000D03*
X135580000Y-118050000D03*
X133290000Y-118050000D03*
X131000000Y-118050000D03*
%TD*%
D14*
%TO.C,J3*%
X118090000Y-106196887D03*
D15*
X120630000Y-106196887D03*
X123170000Y-106196887D03*
X125710000Y-106196887D03*
X128250000Y-106196887D03*
X130790000Y-106196887D03*
X133330000Y-106196887D03*
X135870000Y-106196887D03*
X138410000Y-106196887D03*
X140950000Y-106196887D03*
X143490000Y-106196887D03*
X146030000Y-106196887D03*
X148570000Y-106196887D03*
X151110000Y-106196887D03*
X153650000Y-106196887D03*
%TD*%
D10*
%TO.C,REF\u002A\u002A*%
X154250000Y-75000000D03*
%TD*%
D11*
%TO.C,J1*%
X123345000Y-78856887D03*
X148345000Y-78856887D03*
D12*
X140160000Y-80746887D03*
D13*
X137870000Y-80746887D03*
X135580000Y-80746887D03*
X133290000Y-80746887D03*
X131000000Y-80746887D03*
X141305000Y-78846887D03*
X139015000Y-78846887D03*
X136725000Y-78846887D03*
X134435000Y-78846887D03*
X132145000Y-78846887D03*
X140160000Y-76946887D03*
X137870000Y-76946887D03*
X135580000Y-76946887D03*
X133290000Y-76946887D03*
X131000000Y-76946887D03*
%TD*%
D14*
%TO.C,J2*%
X118090000Y-88750000D03*
D15*
X120630000Y-88750000D03*
X123170000Y-88750000D03*
X125710000Y-88750000D03*
X128250000Y-88750000D03*
X130790000Y-88750000D03*
X133330000Y-88750000D03*
X135870000Y-88750000D03*
X138410000Y-88750000D03*
X140950000Y-88750000D03*
X143490000Y-88750000D03*
X146030000Y-88750000D03*
X148570000Y-88750000D03*
X151110000Y-88750000D03*
X153650000Y-88750000D03*
%TD*%
M02*
