M48
; DRILL file {KiCad 9.0.1} date 2025-10-18T13:29:14+0300
; FORMAT={-:-/ absolute / metric / decimal}
; #@! TF.CreationDate,2025-10-18T13:29:14+03:00
; #@! TF.GenerationSoftware,Kicad,Pcbnew,9.0.1
; #@! TF.FileFunction,Plated,1,2,PTH
FMAT,2
METRIC
; #@! TA.AperFunction,Plated,PTH,ComponentDrill
T1C1.000
; #@! TA.AperFunction,Plated,PTH,ComponentDrill
T2C3.200
%
G90
G05
T1
X118.09Y-88.75
X118.09Y-106.197
X120.63Y-88.75
X120.63Y-106.197
X123.17Y-88.75
X123.17Y-106.197
X125.71Y-88.75
X125.71Y-106.197
X128.25Y-88.75
X128.25Y-106.197
X130.79Y-88.75
X130.79Y-106.197
X131.0Y-76.947
X131.0Y-80.747
X131.0Y-114.25
X131.0Y-118.05
X132.145Y-78.847
X132.145Y-116.15
X133.29Y-76.947
X133.29Y-80.747
X133.29Y-114.25
X133.29Y-118.05
X133.33Y-88.75
X133.33Y-106.197
X134.435Y-78.847
X134.435Y-116.15
X135.58Y-76.947
X135.58Y-80.747
X135.58Y-114.25
X135.58Y-118.05
X135.87Y-88.75
X135.87Y-106.197
X136.725Y-78.847
X136.725Y-116.15
X137.87Y-76.947
X137.87Y-80.747
X137.87Y-114.25
X137.87Y-118.05
X138.41Y-88.75
X138.41Y-106.197
X139.015Y-78.847
X139.015Y-116.15
X140.16Y-76.947
X140.16Y-80.747
X140.16Y-114.25
X140.16Y-118.05
X140.95Y-88.75
X140.95Y-106.197
X141.305Y-78.847
X141.305Y-116.15
X143.49Y-88.75
X143.49Y-106.197
X146.03Y-88.75
X146.03Y-106.197
X148.57Y-88.75
X148.57Y-106.197
X151.11Y-88.75
X151.11Y-106.197
X153.65Y-88.75
X153.65Y-106.197
T2
X123.345Y-78.857
X123.345Y-116.14
X148.345Y-78.857
X148.345Y-116.14
M30
