%TF.GenerationSoftware,KiCad,Pcbnew,9.0.1*%
%TF.CreationDate,2025-10-17T21:58:47+03:00*%
%TF.ProjectId,transection-vga,7472616e-7365-4637-9469-6f6e2d766761,rev?*%
%TF.SameCoordinates,Original*%
%TF.FileFunction,Legend,Top*%
%TF.FilePolarity,Positive*%
%FSLAX46Y46*%
G04 Gerber Fmt 4.6, Leading zero omitted, Abs format (unit mm)*
G04 Created by KiCad (PCBNEW 9.0.1) date 2025-10-17 21:58:47*
%MOMM*%
%LPD*%
G01*
G04 APERTURE LIST*
%ADD10C,0.100000*%
%ADD11C,0.150000*%
%ADD12C,0.120000*%
%ADD13C,0.000000*%
G04 APERTURE END LIST*
D10*
X135537815Y-92495887D02*
X134972130Y-91930201D01*
X135807189Y-92226513D02*
X135241504Y-91660827D01*
X135241504Y-91660827D02*
X135376191Y-91526140D01*
X135376191Y-91526140D02*
X135483940Y-91472266D01*
X135483940Y-91472266D02*
X135591690Y-91472266D01*
X135591690Y-91472266D02*
X135672502Y-91499203D01*
X135672502Y-91499203D02*
X135807189Y-91580015D01*
X135807189Y-91580015D02*
X135888001Y-91660827D01*
X135888001Y-91660827D02*
X135968813Y-91795514D01*
X135968813Y-91795514D02*
X135995751Y-91876327D01*
X135995751Y-91876327D02*
X135995751Y-91984076D01*
X135995751Y-91984076D02*
X135941876Y-92091826D01*
X135941876Y-92091826D02*
X135807189Y-92226513D01*
X135834126Y-91175954D02*
X135834126Y-91122079D01*
X135834126Y-91122079D02*
X135861064Y-91041267D01*
X135861064Y-91041267D02*
X135995751Y-90906580D01*
X135995751Y-90906580D02*
X136076563Y-90879643D01*
X136076563Y-90879643D02*
X136130438Y-90879643D01*
X136130438Y-90879643D02*
X136211250Y-90906580D01*
X136211250Y-90906580D02*
X136265125Y-90960455D01*
X136265125Y-90960455D02*
X136319000Y-91068205D01*
X136319000Y-91068205D02*
X136319000Y-91714702D01*
X136319000Y-91714702D02*
X136669186Y-91364516D01*
X150861064Y-92172638D02*
X150403128Y-92091826D01*
X150537815Y-92495887D02*
X149972130Y-91930201D01*
X149972130Y-91930201D02*
X150187629Y-91714702D01*
X150187629Y-91714702D02*
X150268441Y-91687765D01*
X150268441Y-91687765D02*
X150322316Y-91687765D01*
X150322316Y-91687765D02*
X150403128Y-91714702D01*
X150403128Y-91714702D02*
X150483940Y-91795514D01*
X150483940Y-91795514D02*
X150510878Y-91876326D01*
X150510878Y-91876326D02*
X150510878Y-91930201D01*
X150510878Y-91930201D02*
X150483940Y-92011013D01*
X150483940Y-92011013D02*
X150268441Y-92226513D01*
X150807189Y-91633890D02*
X150995751Y-91445328D01*
X151372875Y-91660827D02*
X151103501Y-91930201D01*
X151103501Y-91930201D02*
X150537815Y-91364516D01*
X150537815Y-91364516D02*
X150807189Y-91095142D01*
X151615312Y-91418390D02*
X151049626Y-90852705D01*
X151049626Y-90852705D02*
X151184313Y-90718018D01*
X151184313Y-90718018D02*
X151292063Y-90664143D01*
X151292063Y-90664143D02*
X151399812Y-90664143D01*
X151399812Y-90664143D02*
X151480625Y-90691080D01*
X151480625Y-90691080D02*
X151615312Y-90771893D01*
X151615312Y-90771893D02*
X151696124Y-90852705D01*
X151696124Y-90852705D02*
X151776936Y-90987392D01*
X151776936Y-90987392D02*
X151803873Y-91068204D01*
X151803873Y-91068204D02*
X151803873Y-91175954D01*
X151803873Y-91175954D02*
X151749999Y-91283703D01*
X151749999Y-91283703D02*
X151615312Y-91418390D01*
X140430066Y-92011013D02*
X140537815Y-91957139D01*
X140537815Y-91957139D02*
X140591690Y-91957139D01*
X140591690Y-91957139D02*
X140672502Y-91984076D01*
X140672502Y-91984076D02*
X140753314Y-92064888D01*
X140753314Y-92064888D02*
X140780252Y-92145700D01*
X140780252Y-92145700D02*
X140780252Y-92199575D01*
X140780252Y-92199575D02*
X140753314Y-92280387D01*
X140753314Y-92280387D02*
X140537815Y-92495887D01*
X140537815Y-92495887D02*
X139972130Y-91930201D01*
X139972130Y-91930201D02*
X140160692Y-91741639D01*
X140160692Y-91741639D02*
X140241504Y-91714702D01*
X140241504Y-91714702D02*
X140295379Y-91714702D01*
X140295379Y-91714702D02*
X140376191Y-91741639D01*
X140376191Y-91741639D02*
X140430066Y-91795514D01*
X140430066Y-91795514D02*
X140457003Y-91876326D01*
X140457003Y-91876326D02*
X140457003Y-91930201D01*
X140457003Y-91930201D02*
X140430066Y-92011013D01*
X140430066Y-92011013D02*
X140241504Y-92199575D01*
X141372875Y-91660827D02*
X141103501Y-91930201D01*
X141103501Y-91930201D02*
X140537815Y-91364516D01*
X140995751Y-90906580D02*
X141453687Y-91364516D01*
X141453687Y-91364516D02*
X141534499Y-91391453D01*
X141534499Y-91391453D02*
X141588374Y-91391453D01*
X141588374Y-91391453D02*
X141669186Y-91364516D01*
X141669186Y-91364516D02*
X141776936Y-91256766D01*
X141776936Y-91256766D02*
X141803873Y-91175954D01*
X141803873Y-91175954D02*
X141803873Y-91122079D01*
X141803873Y-91122079D02*
X141776936Y-91041267D01*
X141776936Y-91041267D02*
X141319000Y-90583331D01*
X138198300Y-104245887D02*
X137632615Y-103680201D01*
X138521549Y-103922638D02*
X137955864Y-103841826D01*
X137955864Y-103356952D02*
X137955864Y-104003450D01*
X138467674Y-103383890D02*
X138656236Y-103195328D01*
X139033360Y-103410827D02*
X138763986Y-103680201D01*
X138763986Y-103680201D02*
X138198300Y-103114516D01*
X138198300Y-103114516D02*
X138467674Y-102845142D01*
X139114172Y-102791267D02*
X139383546Y-103060641D01*
X138629299Y-102683517D02*
X139114172Y-102791267D01*
X139114172Y-102791267D02*
X139006423Y-102306393D01*
X152955864Y-103410827D02*
X152875051Y-103437765D01*
X152875051Y-103437765D02*
X152794239Y-103518577D01*
X152794239Y-103518577D02*
X152740364Y-103626326D01*
X152740364Y-103626326D02*
X152740364Y-103734076D01*
X152740364Y-103734076D02*
X152767302Y-103814888D01*
X152767302Y-103814888D02*
X152848114Y-103949575D01*
X152848114Y-103949575D02*
X152928926Y-104030387D01*
X152928926Y-104030387D02*
X153063613Y-104111200D01*
X153063613Y-104111200D02*
X153144425Y-104138137D01*
X153144425Y-104138137D02*
X153252175Y-104138137D01*
X153252175Y-104138137D02*
X153359925Y-104084262D01*
X153359925Y-104084262D02*
X153413799Y-104030387D01*
X153413799Y-104030387D02*
X153467674Y-103922638D01*
X153467674Y-103922638D02*
X153467674Y-103868763D01*
X153467674Y-103868763D02*
X153279112Y-103680201D01*
X153279112Y-103680201D02*
X153171363Y-103787951D01*
X153763986Y-103680201D02*
X153198300Y-103114516D01*
X153198300Y-103114516D02*
X154087235Y-103356952D01*
X154087235Y-103356952D02*
X153521549Y-102791267D01*
X154356608Y-103087578D02*
X153790923Y-102521893D01*
X153790923Y-102521893D02*
X153925610Y-102387206D01*
X153925610Y-102387206D02*
X154033360Y-102333331D01*
X154033360Y-102333331D02*
X154141109Y-102333331D01*
X154141109Y-102333331D02*
X154221921Y-102360269D01*
X154221921Y-102360269D02*
X154356608Y-102441081D01*
X154356608Y-102441081D02*
X154437421Y-102521893D01*
X154437421Y-102521893D02*
X154518233Y-102656580D01*
X154518233Y-102656580D02*
X154545170Y-102737392D01*
X154545170Y-102737392D02*
X154545170Y-102845142D01*
X154545170Y-102845142D02*
X154491295Y-102952891D01*
X154491295Y-102952891D02*
X154356608Y-103087578D01*
X123198300Y-104245887D02*
X122632615Y-103680201D01*
X122901989Y-103949575D02*
X123225238Y-103626326D01*
X123521549Y-103922638D02*
X122955864Y-103356952D01*
X123737048Y-103653264D02*
X123844798Y-103599389D01*
X123844798Y-103599389D02*
X123979485Y-103464702D01*
X123979485Y-103464702D02*
X124006422Y-103383890D01*
X124006422Y-103383890D02*
X124006422Y-103330015D01*
X124006422Y-103330015D02*
X123979485Y-103249203D01*
X123979485Y-103249203D02*
X123925610Y-103195328D01*
X123925610Y-103195328D02*
X123844798Y-103168391D01*
X123844798Y-103168391D02*
X123790923Y-103168391D01*
X123790923Y-103168391D02*
X123710111Y-103195328D01*
X123710111Y-103195328D02*
X123575424Y-103276140D01*
X123575424Y-103276140D02*
X123494612Y-103303078D01*
X123494612Y-103303078D02*
X123440737Y-103303078D01*
X123440737Y-103303078D02*
X123359925Y-103276140D01*
X123359925Y-103276140D02*
X123306050Y-103222265D01*
X123306050Y-103222265D02*
X123279112Y-103141453D01*
X123279112Y-103141453D02*
X123279112Y-103087578D01*
X123279112Y-103087578D02*
X123306050Y-103006766D01*
X123306050Y-103006766D02*
X123440737Y-102872079D01*
X123440737Y-102872079D02*
X123548486Y-102818204D01*
X124168047Y-102737392D02*
X124437421Y-103006766D01*
X123683173Y-102629642D02*
X124168047Y-102737392D01*
X124168047Y-102737392D02*
X124060297Y-102252519D01*
X147955864Y-103410827D02*
X147875051Y-103437765D01*
X147875051Y-103437765D02*
X147794239Y-103518577D01*
X147794239Y-103518577D02*
X147740364Y-103626326D01*
X147740364Y-103626326D02*
X147740364Y-103734076D01*
X147740364Y-103734076D02*
X147767302Y-103814888D01*
X147767302Y-103814888D02*
X147848114Y-103949575D01*
X147848114Y-103949575D02*
X147928926Y-104030387D01*
X147928926Y-104030387D02*
X148063613Y-104111200D01*
X148063613Y-104111200D02*
X148144425Y-104138137D01*
X148144425Y-104138137D02*
X148252175Y-104138137D01*
X148252175Y-104138137D02*
X148359925Y-104084262D01*
X148359925Y-104084262D02*
X148413799Y-104030387D01*
X148413799Y-104030387D02*
X148467674Y-103922638D01*
X148467674Y-103922638D02*
X148467674Y-103868763D01*
X148467674Y-103868763D02*
X148279112Y-103680201D01*
X148279112Y-103680201D02*
X148171363Y-103787951D01*
X148763986Y-103680201D02*
X148198300Y-103114516D01*
X148198300Y-103114516D02*
X149087235Y-103356952D01*
X149087235Y-103356952D02*
X148521549Y-102791267D01*
X149356608Y-103087578D02*
X148790923Y-102521893D01*
X148790923Y-102521893D02*
X148925610Y-102387206D01*
X148925610Y-102387206D02*
X149033360Y-102333331D01*
X149033360Y-102333331D02*
X149141109Y-102333331D01*
X149141109Y-102333331D02*
X149221921Y-102360269D01*
X149221921Y-102360269D02*
X149356608Y-102441081D01*
X149356608Y-102441081D02*
X149437421Y-102521893D01*
X149437421Y-102521893D02*
X149518233Y-102656580D01*
X149518233Y-102656580D02*
X149545170Y-102737392D01*
X149545170Y-102737392D02*
X149545170Y-102845142D01*
X149545170Y-102845142D02*
X149491295Y-102952891D01*
X149491295Y-102952891D02*
X149356608Y-103087578D01*
X130455864Y-103410827D02*
X130375051Y-103437765D01*
X130375051Y-103437765D02*
X130294239Y-103518577D01*
X130294239Y-103518577D02*
X130240364Y-103626326D01*
X130240364Y-103626326D02*
X130240364Y-103734076D01*
X130240364Y-103734076D02*
X130267302Y-103814888D01*
X130267302Y-103814888D02*
X130348114Y-103949575D01*
X130348114Y-103949575D02*
X130428926Y-104030387D01*
X130428926Y-104030387D02*
X130563613Y-104111200D01*
X130563613Y-104111200D02*
X130644425Y-104138137D01*
X130644425Y-104138137D02*
X130752175Y-104138137D01*
X130752175Y-104138137D02*
X130859925Y-104084262D01*
X130859925Y-104084262D02*
X130913799Y-104030387D01*
X130913799Y-104030387D02*
X130967674Y-103922638D01*
X130967674Y-103922638D02*
X130967674Y-103868763D01*
X130967674Y-103868763D02*
X130779112Y-103680201D01*
X130779112Y-103680201D02*
X130671363Y-103787951D01*
X131263986Y-103680201D02*
X130698300Y-103114516D01*
X130698300Y-103114516D02*
X131587235Y-103356952D01*
X131587235Y-103356952D02*
X131021549Y-102791267D01*
X131856608Y-103087578D02*
X131290923Y-102521893D01*
X131290923Y-102521893D02*
X131425610Y-102387206D01*
X131425610Y-102387206D02*
X131533360Y-102333331D01*
X131533360Y-102333331D02*
X131641109Y-102333331D01*
X131641109Y-102333331D02*
X131721921Y-102360269D01*
X131721921Y-102360269D02*
X131856608Y-102441081D01*
X131856608Y-102441081D02*
X131937421Y-102521893D01*
X131937421Y-102521893D02*
X132018233Y-102656580D01*
X132018233Y-102656580D02*
X132045170Y-102737392D01*
X132045170Y-102737392D02*
X132045170Y-102845142D01*
X132045170Y-102845142D02*
X131991295Y-102952891D01*
X131991295Y-102952891D02*
X131856608Y-103087578D01*
X117955864Y-103410827D02*
X117875051Y-103437765D01*
X117875051Y-103437765D02*
X117794239Y-103518577D01*
X117794239Y-103518577D02*
X117740364Y-103626326D01*
X117740364Y-103626326D02*
X117740364Y-103734076D01*
X117740364Y-103734076D02*
X117767302Y-103814888D01*
X117767302Y-103814888D02*
X117848114Y-103949575D01*
X117848114Y-103949575D02*
X117928926Y-104030387D01*
X117928926Y-104030387D02*
X118063613Y-104111200D01*
X118063613Y-104111200D02*
X118144425Y-104138137D01*
X118144425Y-104138137D02*
X118252175Y-104138137D01*
X118252175Y-104138137D02*
X118359925Y-104084262D01*
X118359925Y-104084262D02*
X118413799Y-104030387D01*
X118413799Y-104030387D02*
X118467674Y-103922638D01*
X118467674Y-103922638D02*
X118467674Y-103868763D01*
X118467674Y-103868763D02*
X118279112Y-103680201D01*
X118279112Y-103680201D02*
X118171363Y-103787951D01*
X118763986Y-103680201D02*
X118198300Y-103114516D01*
X118198300Y-103114516D02*
X119087235Y-103356952D01*
X119087235Y-103356952D02*
X118521549Y-102791267D01*
X119356608Y-103087578D02*
X118790923Y-102521893D01*
X118790923Y-102521893D02*
X118925610Y-102387206D01*
X118925610Y-102387206D02*
X119033360Y-102333331D01*
X119033360Y-102333331D02*
X119141109Y-102333331D01*
X119141109Y-102333331D02*
X119221921Y-102360269D01*
X119221921Y-102360269D02*
X119356608Y-102441081D01*
X119356608Y-102441081D02*
X119437421Y-102521893D01*
X119437421Y-102521893D02*
X119518233Y-102656580D01*
X119518233Y-102656580D02*
X119545170Y-102737392D01*
X119545170Y-102737392D02*
X119545170Y-102845142D01*
X119545170Y-102845142D02*
X119491295Y-102952891D01*
X119491295Y-102952891D02*
X119356608Y-103087578D01*
X142955864Y-103410827D02*
X142875051Y-103437765D01*
X142875051Y-103437765D02*
X142794239Y-103518577D01*
X142794239Y-103518577D02*
X142740364Y-103626326D01*
X142740364Y-103626326D02*
X142740364Y-103734076D01*
X142740364Y-103734076D02*
X142767302Y-103814888D01*
X142767302Y-103814888D02*
X142848114Y-103949575D01*
X142848114Y-103949575D02*
X142928926Y-104030387D01*
X142928926Y-104030387D02*
X143063613Y-104111200D01*
X143063613Y-104111200D02*
X143144425Y-104138137D01*
X143144425Y-104138137D02*
X143252175Y-104138137D01*
X143252175Y-104138137D02*
X143359925Y-104084262D01*
X143359925Y-104084262D02*
X143413799Y-104030387D01*
X143413799Y-104030387D02*
X143467674Y-103922638D01*
X143467674Y-103922638D02*
X143467674Y-103868763D01*
X143467674Y-103868763D02*
X143279112Y-103680201D01*
X143279112Y-103680201D02*
X143171363Y-103787951D01*
X143763986Y-103680201D02*
X143198300Y-103114516D01*
X143198300Y-103114516D02*
X144087235Y-103356952D01*
X144087235Y-103356952D02*
X143521549Y-102791267D01*
X144356608Y-103087578D02*
X143790923Y-102521893D01*
X143790923Y-102521893D02*
X143925610Y-102387206D01*
X143925610Y-102387206D02*
X144033360Y-102333331D01*
X144033360Y-102333331D02*
X144141109Y-102333331D01*
X144141109Y-102333331D02*
X144221921Y-102360269D01*
X144221921Y-102360269D02*
X144356608Y-102441081D01*
X144356608Y-102441081D02*
X144437421Y-102521893D01*
X144437421Y-102521893D02*
X144518233Y-102656580D01*
X144518233Y-102656580D02*
X144545170Y-102737392D01*
X144545170Y-102737392D02*
X144545170Y-102845142D01*
X144545170Y-102845142D02*
X144491295Y-102952891D01*
X144491295Y-102952891D02*
X144356608Y-103087578D01*
X123037815Y-92495887D02*
X122472130Y-91930201D01*
X122741504Y-92199575D02*
X123064753Y-91876326D01*
X123361064Y-92172638D02*
X122795379Y-91606952D01*
X123576563Y-91903264D02*
X123684313Y-91849389D01*
X123684313Y-91849389D02*
X123819000Y-91714702D01*
X123819000Y-91714702D02*
X123845937Y-91633890D01*
X123845937Y-91633890D02*
X123845937Y-91580015D01*
X123845937Y-91580015D02*
X123819000Y-91499203D01*
X123819000Y-91499203D02*
X123765125Y-91445328D01*
X123765125Y-91445328D02*
X123684313Y-91418391D01*
X123684313Y-91418391D02*
X123630438Y-91418391D01*
X123630438Y-91418391D02*
X123549626Y-91445328D01*
X123549626Y-91445328D02*
X123414939Y-91526140D01*
X123414939Y-91526140D02*
X123334127Y-91553078D01*
X123334127Y-91553078D02*
X123280252Y-91553078D01*
X123280252Y-91553078D02*
X123199440Y-91526140D01*
X123199440Y-91526140D02*
X123145565Y-91472265D01*
X123145565Y-91472265D02*
X123118627Y-91391453D01*
X123118627Y-91391453D02*
X123118627Y-91337578D01*
X123118627Y-91337578D02*
X123145565Y-91256766D01*
X123145565Y-91256766D02*
X123280252Y-91122079D01*
X123280252Y-91122079D02*
X123388001Y-91068204D01*
X124007562Y-90987392D02*
X124276936Y-91256766D01*
X123522688Y-90879642D02*
X124007562Y-90987392D01*
X124007562Y-90987392D02*
X123899812Y-90502519D01*
X145295379Y-91660827D02*
X145214566Y-91687765D01*
X145214566Y-91687765D02*
X145133754Y-91768577D01*
X145133754Y-91768577D02*
X145079879Y-91876326D01*
X145079879Y-91876326D02*
X145079879Y-91984076D01*
X145079879Y-91984076D02*
X145106817Y-92064888D01*
X145106817Y-92064888D02*
X145187629Y-92199575D01*
X145187629Y-92199575D02*
X145268441Y-92280387D01*
X145268441Y-92280387D02*
X145403128Y-92361200D01*
X145403128Y-92361200D02*
X145483940Y-92388137D01*
X145483940Y-92388137D02*
X145591690Y-92388137D01*
X145591690Y-92388137D02*
X145699440Y-92334262D01*
X145699440Y-92334262D02*
X145753314Y-92280387D01*
X145753314Y-92280387D02*
X145807189Y-92172638D01*
X145807189Y-92172638D02*
X145807189Y-92118763D01*
X145807189Y-92118763D02*
X145618627Y-91930201D01*
X145618627Y-91930201D02*
X145510878Y-92037951D01*
X146426750Y-91606952D02*
X145968814Y-91526140D01*
X146103501Y-91930201D02*
X145537815Y-91364516D01*
X145537815Y-91364516D02*
X145753314Y-91149017D01*
X145753314Y-91149017D02*
X145834127Y-91122079D01*
X145834127Y-91122079D02*
X145888001Y-91122079D01*
X145888001Y-91122079D02*
X145968814Y-91149017D01*
X145968814Y-91149017D02*
X146049626Y-91229829D01*
X146049626Y-91229829D02*
X146076563Y-91310641D01*
X146076563Y-91310641D02*
X146076563Y-91364516D01*
X146076563Y-91364516D02*
X146049626Y-91445328D01*
X146049626Y-91445328D02*
X145834127Y-91660827D01*
X146669186Y-91364516D02*
X146103501Y-90798830D01*
X146103501Y-90798830D02*
X146992435Y-91041267D01*
X146992435Y-91041267D02*
X146426750Y-90475581D01*
X140590551Y-103761013D02*
X140698300Y-103707139D01*
X140698300Y-103707139D02*
X140752175Y-103707139D01*
X140752175Y-103707139D02*
X140832987Y-103734076D01*
X140832987Y-103734076D02*
X140913799Y-103814888D01*
X140913799Y-103814888D02*
X140940737Y-103895700D01*
X140940737Y-103895700D02*
X140940737Y-103949575D01*
X140940737Y-103949575D02*
X140913799Y-104030387D01*
X140913799Y-104030387D02*
X140698300Y-104245887D01*
X140698300Y-104245887D02*
X140132615Y-103680201D01*
X140132615Y-103680201D02*
X140321177Y-103491639D01*
X140321177Y-103491639D02*
X140401989Y-103464702D01*
X140401989Y-103464702D02*
X140455864Y-103464702D01*
X140455864Y-103464702D02*
X140536676Y-103491639D01*
X140536676Y-103491639D02*
X140590551Y-103545514D01*
X140590551Y-103545514D02*
X140617488Y-103626326D01*
X140617488Y-103626326D02*
X140617488Y-103680201D01*
X140617488Y-103680201D02*
X140590551Y-103761013D01*
X140590551Y-103761013D02*
X140401989Y-103949575D01*
X141533360Y-103410827D02*
X141263986Y-103680201D01*
X141263986Y-103680201D02*
X140698300Y-103114516D01*
X141156236Y-102656580D02*
X141614172Y-103114516D01*
X141614172Y-103114516D02*
X141694984Y-103141453D01*
X141694984Y-103141453D02*
X141748859Y-103141453D01*
X141748859Y-103141453D02*
X141829671Y-103114516D01*
X141829671Y-103114516D02*
X141937421Y-103006766D01*
X141937421Y-103006766D02*
X141964358Y-102925954D01*
X141964358Y-102925954D02*
X141964358Y-102872079D01*
X141964358Y-102872079D02*
X141937421Y-102791267D01*
X141937421Y-102791267D02*
X141479485Y-102333331D01*
X138037815Y-92495887D02*
X137472130Y-91930201D01*
X138361064Y-92172638D02*
X137795379Y-92091826D01*
X137795379Y-91606952D02*
X137795379Y-92253450D01*
X138307189Y-91633890D02*
X138495751Y-91445328D01*
X138872875Y-91660827D02*
X138603501Y-91930201D01*
X138603501Y-91930201D02*
X138037815Y-91364516D01*
X138037815Y-91364516D02*
X138307189Y-91095142D01*
X138953687Y-91041267D02*
X139223061Y-91310641D01*
X138468814Y-90933517D02*
X138953687Y-91041267D01*
X138953687Y-91041267D02*
X138845938Y-90556393D01*
X130295379Y-91660827D02*
X130214566Y-91687765D01*
X130214566Y-91687765D02*
X130133754Y-91768577D01*
X130133754Y-91768577D02*
X130079879Y-91876326D01*
X130079879Y-91876326D02*
X130079879Y-91984076D01*
X130079879Y-91984076D02*
X130106817Y-92064888D01*
X130106817Y-92064888D02*
X130187629Y-92199575D01*
X130187629Y-92199575D02*
X130268441Y-92280387D01*
X130268441Y-92280387D02*
X130403128Y-92361200D01*
X130403128Y-92361200D02*
X130483940Y-92388137D01*
X130483940Y-92388137D02*
X130591690Y-92388137D01*
X130591690Y-92388137D02*
X130699440Y-92334262D01*
X130699440Y-92334262D02*
X130753314Y-92280387D01*
X130753314Y-92280387D02*
X130807189Y-92172638D01*
X130807189Y-92172638D02*
X130807189Y-92118763D01*
X130807189Y-92118763D02*
X130618627Y-91930201D01*
X130618627Y-91930201D02*
X130510878Y-92037951D01*
X131103501Y-91930201D02*
X130537815Y-91364516D01*
X130537815Y-91364516D02*
X131426750Y-91606952D01*
X131426750Y-91606952D02*
X130861064Y-91041267D01*
X131696123Y-91337578D02*
X131130438Y-90771893D01*
X131130438Y-90771893D02*
X131265125Y-90637206D01*
X131265125Y-90637206D02*
X131372875Y-90583331D01*
X131372875Y-90583331D02*
X131480624Y-90583331D01*
X131480624Y-90583331D02*
X131561436Y-90610269D01*
X131561436Y-90610269D02*
X131696123Y-90691081D01*
X131696123Y-90691081D02*
X131776936Y-90771893D01*
X131776936Y-90771893D02*
X131857748Y-90906580D01*
X131857748Y-90906580D02*
X131884685Y-90987392D01*
X131884685Y-90987392D02*
X131884685Y-91095142D01*
X131884685Y-91095142D02*
X131830810Y-91202891D01*
X131830810Y-91202891D02*
X131696123Y-91337578D01*
X127391318Y-92011013D02*
X128145565Y-92388137D01*
X128145565Y-92388137D02*
X127768441Y-91633890D01*
X128468813Y-92011014D02*
X128576563Y-91957139D01*
X128576563Y-91957139D02*
X128711250Y-91822452D01*
X128711250Y-91822452D02*
X128738188Y-91741640D01*
X128738188Y-91741640D02*
X128738188Y-91687765D01*
X128738188Y-91687765D02*
X128711250Y-91606953D01*
X128711250Y-91606953D02*
X128657375Y-91553078D01*
X128657375Y-91553078D02*
X128576563Y-91526140D01*
X128576563Y-91526140D02*
X128522688Y-91526140D01*
X128522688Y-91526140D02*
X128441876Y-91553078D01*
X128441876Y-91553078D02*
X128307189Y-91633890D01*
X128307189Y-91633890D02*
X128226377Y-91660827D01*
X128226377Y-91660827D02*
X128172502Y-91660827D01*
X128172502Y-91660827D02*
X128091690Y-91633890D01*
X128091690Y-91633890D02*
X128037815Y-91580015D01*
X128037815Y-91580015D02*
X128010878Y-91499203D01*
X128010878Y-91499203D02*
X128010878Y-91445328D01*
X128010878Y-91445328D02*
X128037815Y-91364516D01*
X128037815Y-91364516D02*
X128172502Y-91229829D01*
X128172502Y-91229829D02*
X128280252Y-91175954D01*
X128899812Y-91095142D02*
X129169186Y-91364516D01*
X128414939Y-90987392D02*
X128899812Y-91095142D01*
X128899812Y-91095142D02*
X128792062Y-90610269D01*
X120537815Y-92495887D02*
X119972130Y-91930201D01*
X120807189Y-92226513D02*
X120241504Y-91660827D01*
X120241504Y-91660827D02*
X120376191Y-91526140D01*
X120376191Y-91526140D02*
X120483940Y-91472266D01*
X120483940Y-91472266D02*
X120591690Y-91472266D01*
X120591690Y-91472266D02*
X120672502Y-91499203D01*
X120672502Y-91499203D02*
X120807189Y-91580015D01*
X120807189Y-91580015D02*
X120888001Y-91660827D01*
X120888001Y-91660827D02*
X120968813Y-91795514D01*
X120968813Y-91795514D02*
X120995751Y-91876327D01*
X120995751Y-91876327D02*
X120995751Y-91984076D01*
X120995751Y-91984076D02*
X120941876Y-92091826D01*
X120941876Y-92091826D02*
X120807189Y-92226513D01*
X121669186Y-91364516D02*
X121345937Y-91687765D01*
X121507561Y-91526140D02*
X120941876Y-90960455D01*
X120941876Y-90960455D02*
X120968813Y-91095142D01*
X120968813Y-91095142D02*
X120968813Y-91202892D01*
X120968813Y-91202892D02*
X120941876Y-91283704D01*
X125295379Y-91660827D02*
X125214566Y-91687765D01*
X125214566Y-91687765D02*
X125133754Y-91768577D01*
X125133754Y-91768577D02*
X125079879Y-91876326D01*
X125079879Y-91876326D02*
X125079879Y-91984076D01*
X125079879Y-91984076D02*
X125106817Y-92064888D01*
X125106817Y-92064888D02*
X125187629Y-92199575D01*
X125187629Y-92199575D02*
X125268441Y-92280387D01*
X125268441Y-92280387D02*
X125403128Y-92361200D01*
X125403128Y-92361200D02*
X125483940Y-92388137D01*
X125483940Y-92388137D02*
X125591690Y-92388137D01*
X125591690Y-92388137D02*
X125699440Y-92334262D01*
X125699440Y-92334262D02*
X125753314Y-92280387D01*
X125753314Y-92280387D02*
X125807189Y-92172638D01*
X125807189Y-92172638D02*
X125807189Y-92118763D01*
X125807189Y-92118763D02*
X125618627Y-91930201D01*
X125618627Y-91930201D02*
X125510878Y-92037951D01*
X126103501Y-91930201D02*
X125537815Y-91364516D01*
X125537815Y-91364516D02*
X126426750Y-91606952D01*
X126426750Y-91606952D02*
X125861064Y-91041267D01*
X126696123Y-91337578D02*
X126130438Y-90771893D01*
X126130438Y-90771893D02*
X126265125Y-90637206D01*
X126265125Y-90637206D02*
X126372875Y-90583331D01*
X126372875Y-90583331D02*
X126480624Y-90583331D01*
X126480624Y-90583331D02*
X126561436Y-90610269D01*
X126561436Y-90610269D02*
X126696123Y-90691081D01*
X126696123Y-90691081D02*
X126776936Y-90771893D01*
X126776936Y-90771893D02*
X126857748Y-90906580D01*
X126857748Y-90906580D02*
X126884685Y-90987392D01*
X126884685Y-90987392D02*
X126884685Y-91095142D01*
X126884685Y-91095142D02*
X126830810Y-91202891D01*
X126830810Y-91202891D02*
X126696123Y-91337578D01*
X135698300Y-104245887D02*
X135132615Y-103680201D01*
X135967674Y-103976513D02*
X135401989Y-103410827D01*
X135401989Y-103410827D02*
X135536676Y-103276140D01*
X135536676Y-103276140D02*
X135644425Y-103222266D01*
X135644425Y-103222266D02*
X135752175Y-103222266D01*
X135752175Y-103222266D02*
X135832987Y-103249203D01*
X135832987Y-103249203D02*
X135967674Y-103330015D01*
X135967674Y-103330015D02*
X136048486Y-103410827D01*
X136048486Y-103410827D02*
X136129298Y-103545514D01*
X136129298Y-103545514D02*
X136156236Y-103626327D01*
X136156236Y-103626327D02*
X136156236Y-103734076D01*
X136156236Y-103734076D02*
X136102361Y-103841826D01*
X136102361Y-103841826D02*
X135967674Y-103976513D01*
X135994611Y-102925954D02*
X135994611Y-102872079D01*
X135994611Y-102872079D02*
X136021549Y-102791267D01*
X136021549Y-102791267D02*
X136156236Y-102656580D01*
X136156236Y-102656580D02*
X136237048Y-102629643D01*
X136237048Y-102629643D02*
X136290923Y-102629643D01*
X136290923Y-102629643D02*
X136371735Y-102656580D01*
X136371735Y-102656580D02*
X136425610Y-102710455D01*
X136425610Y-102710455D02*
X136479485Y-102818205D01*
X136479485Y-102818205D02*
X136479485Y-103464702D01*
X136479485Y-103464702D02*
X136829671Y-103114516D01*
X125455864Y-103410827D02*
X125375051Y-103437765D01*
X125375051Y-103437765D02*
X125294239Y-103518577D01*
X125294239Y-103518577D02*
X125240364Y-103626326D01*
X125240364Y-103626326D02*
X125240364Y-103734076D01*
X125240364Y-103734076D02*
X125267302Y-103814888D01*
X125267302Y-103814888D02*
X125348114Y-103949575D01*
X125348114Y-103949575D02*
X125428926Y-104030387D01*
X125428926Y-104030387D02*
X125563613Y-104111200D01*
X125563613Y-104111200D02*
X125644425Y-104138137D01*
X125644425Y-104138137D02*
X125752175Y-104138137D01*
X125752175Y-104138137D02*
X125859925Y-104084262D01*
X125859925Y-104084262D02*
X125913799Y-104030387D01*
X125913799Y-104030387D02*
X125967674Y-103922638D01*
X125967674Y-103922638D02*
X125967674Y-103868763D01*
X125967674Y-103868763D02*
X125779112Y-103680201D01*
X125779112Y-103680201D02*
X125671363Y-103787951D01*
X126263986Y-103680201D02*
X125698300Y-103114516D01*
X125698300Y-103114516D02*
X126587235Y-103356952D01*
X126587235Y-103356952D02*
X126021549Y-102791267D01*
X126856608Y-103087578D02*
X126290923Y-102521893D01*
X126290923Y-102521893D02*
X126425610Y-102387206D01*
X126425610Y-102387206D02*
X126533360Y-102333331D01*
X126533360Y-102333331D02*
X126641109Y-102333331D01*
X126641109Y-102333331D02*
X126721921Y-102360269D01*
X126721921Y-102360269D02*
X126856608Y-102441081D01*
X126856608Y-102441081D02*
X126937421Y-102521893D01*
X126937421Y-102521893D02*
X127018233Y-102656580D01*
X127018233Y-102656580D02*
X127045170Y-102737392D01*
X127045170Y-102737392D02*
X127045170Y-102845142D01*
X127045170Y-102845142D02*
X126991295Y-102952891D01*
X126991295Y-102952891D02*
X126856608Y-103087578D01*
X145455864Y-103410827D02*
X145375051Y-103437765D01*
X145375051Y-103437765D02*
X145294239Y-103518577D01*
X145294239Y-103518577D02*
X145240364Y-103626326D01*
X145240364Y-103626326D02*
X145240364Y-103734076D01*
X145240364Y-103734076D02*
X145267302Y-103814888D01*
X145267302Y-103814888D02*
X145348114Y-103949575D01*
X145348114Y-103949575D02*
X145428926Y-104030387D01*
X145428926Y-104030387D02*
X145563613Y-104111200D01*
X145563613Y-104111200D02*
X145644425Y-104138137D01*
X145644425Y-104138137D02*
X145752175Y-104138137D01*
X145752175Y-104138137D02*
X145859925Y-104084262D01*
X145859925Y-104084262D02*
X145913799Y-104030387D01*
X145913799Y-104030387D02*
X145967674Y-103922638D01*
X145967674Y-103922638D02*
X145967674Y-103868763D01*
X145967674Y-103868763D02*
X145779112Y-103680201D01*
X145779112Y-103680201D02*
X145671363Y-103787951D01*
X146587235Y-103356952D02*
X146129299Y-103276140D01*
X146263986Y-103680201D02*
X145698300Y-103114516D01*
X145698300Y-103114516D02*
X145913799Y-102899017D01*
X145913799Y-102899017D02*
X145994612Y-102872079D01*
X145994612Y-102872079D02*
X146048486Y-102872079D01*
X146048486Y-102872079D02*
X146129299Y-102899017D01*
X146129299Y-102899017D02*
X146210111Y-102979829D01*
X146210111Y-102979829D02*
X146237048Y-103060641D01*
X146237048Y-103060641D02*
X146237048Y-103114516D01*
X146237048Y-103114516D02*
X146210111Y-103195328D01*
X146210111Y-103195328D02*
X145994612Y-103410827D01*
X146829671Y-103114516D02*
X146263986Y-102548830D01*
X146263986Y-102548830D02*
X147152920Y-102791267D01*
X147152920Y-102791267D02*
X146587235Y-102225581D01*
X152795379Y-91660827D02*
X152714566Y-91687765D01*
X152714566Y-91687765D02*
X152633754Y-91768577D01*
X152633754Y-91768577D02*
X152579879Y-91876326D01*
X152579879Y-91876326D02*
X152579879Y-91984076D01*
X152579879Y-91984076D02*
X152606817Y-92064888D01*
X152606817Y-92064888D02*
X152687629Y-92199575D01*
X152687629Y-92199575D02*
X152768441Y-92280387D01*
X152768441Y-92280387D02*
X152903128Y-92361200D01*
X152903128Y-92361200D02*
X152983940Y-92388137D01*
X152983940Y-92388137D02*
X153091690Y-92388137D01*
X153091690Y-92388137D02*
X153199440Y-92334262D01*
X153199440Y-92334262D02*
X153253314Y-92280387D01*
X153253314Y-92280387D02*
X153307189Y-92172638D01*
X153307189Y-92172638D02*
X153307189Y-92118763D01*
X153307189Y-92118763D02*
X153118627Y-91930201D01*
X153118627Y-91930201D02*
X153010878Y-92037951D01*
X153603501Y-91930201D02*
X153037815Y-91364516D01*
X153037815Y-91364516D02*
X153926750Y-91606952D01*
X153926750Y-91606952D02*
X153361064Y-91041267D01*
X154196123Y-91337578D02*
X153630438Y-90771893D01*
X153630438Y-90771893D02*
X153765125Y-90637206D01*
X153765125Y-90637206D02*
X153872875Y-90583331D01*
X153872875Y-90583331D02*
X153980624Y-90583331D01*
X153980624Y-90583331D02*
X154061436Y-90610269D01*
X154061436Y-90610269D02*
X154196123Y-90691081D01*
X154196123Y-90691081D02*
X154276936Y-90771893D01*
X154276936Y-90771893D02*
X154357748Y-90906580D01*
X154357748Y-90906580D02*
X154384685Y-90987392D01*
X154384685Y-90987392D02*
X154384685Y-91095142D01*
X154384685Y-91095142D02*
X154330810Y-91202891D01*
X154330810Y-91202891D02*
X154196123Y-91337578D01*
X151021549Y-103922638D02*
X150563613Y-103841826D01*
X150698300Y-104245887D02*
X150132615Y-103680201D01*
X150132615Y-103680201D02*
X150348114Y-103464702D01*
X150348114Y-103464702D02*
X150428926Y-103437765D01*
X150428926Y-103437765D02*
X150482801Y-103437765D01*
X150482801Y-103437765D02*
X150563613Y-103464702D01*
X150563613Y-103464702D02*
X150644425Y-103545514D01*
X150644425Y-103545514D02*
X150671363Y-103626326D01*
X150671363Y-103626326D02*
X150671363Y-103680201D01*
X150671363Y-103680201D02*
X150644425Y-103761013D01*
X150644425Y-103761013D02*
X150428926Y-103976513D01*
X150967674Y-103383890D02*
X151156236Y-103195328D01*
X151533360Y-103410827D02*
X151263986Y-103680201D01*
X151263986Y-103680201D02*
X150698300Y-103114516D01*
X150698300Y-103114516D02*
X150967674Y-102845142D01*
X151775797Y-103168390D02*
X151210111Y-102602705D01*
X151210111Y-102602705D02*
X151344798Y-102468018D01*
X151344798Y-102468018D02*
X151452548Y-102414143D01*
X151452548Y-102414143D02*
X151560297Y-102414143D01*
X151560297Y-102414143D02*
X151641110Y-102441080D01*
X151641110Y-102441080D02*
X151775797Y-102521893D01*
X151775797Y-102521893D02*
X151856609Y-102602705D01*
X151856609Y-102602705D02*
X151937421Y-102737392D01*
X151937421Y-102737392D02*
X151964358Y-102818204D01*
X151964358Y-102818204D02*
X151964358Y-102925954D01*
X151964358Y-102925954D02*
X151910484Y-103033703D01*
X151910484Y-103033703D02*
X151775797Y-103168390D01*
X127551803Y-103761013D02*
X128306050Y-104138137D01*
X128306050Y-104138137D02*
X127928926Y-103383890D01*
X128629298Y-103761014D02*
X128737048Y-103707139D01*
X128737048Y-103707139D02*
X128871735Y-103572452D01*
X128871735Y-103572452D02*
X128898673Y-103491640D01*
X128898673Y-103491640D02*
X128898673Y-103437765D01*
X128898673Y-103437765D02*
X128871735Y-103356953D01*
X128871735Y-103356953D02*
X128817860Y-103303078D01*
X128817860Y-103303078D02*
X128737048Y-103276140D01*
X128737048Y-103276140D02*
X128683173Y-103276140D01*
X128683173Y-103276140D02*
X128602361Y-103303078D01*
X128602361Y-103303078D02*
X128467674Y-103383890D01*
X128467674Y-103383890D02*
X128386862Y-103410827D01*
X128386862Y-103410827D02*
X128332987Y-103410827D01*
X128332987Y-103410827D02*
X128252175Y-103383890D01*
X128252175Y-103383890D02*
X128198300Y-103330015D01*
X128198300Y-103330015D02*
X128171363Y-103249203D01*
X128171363Y-103249203D02*
X128171363Y-103195328D01*
X128171363Y-103195328D02*
X128198300Y-103114516D01*
X128198300Y-103114516D02*
X128332987Y-102979829D01*
X128332987Y-102979829D02*
X128440737Y-102925954D01*
X129060297Y-102845142D02*
X129329671Y-103114516D01*
X128575424Y-102737392D02*
X129060297Y-102845142D01*
X129060297Y-102845142D02*
X128952547Y-102360269D01*
X133037815Y-92495887D02*
X132472130Y-91930201D01*
X133307189Y-92226513D02*
X132741504Y-91660827D01*
X132741504Y-91660827D02*
X132876191Y-91526140D01*
X132876191Y-91526140D02*
X132983940Y-91472266D01*
X132983940Y-91472266D02*
X133091690Y-91472266D01*
X133091690Y-91472266D02*
X133172502Y-91499203D01*
X133172502Y-91499203D02*
X133307189Y-91580015D01*
X133307189Y-91580015D02*
X133388001Y-91660827D01*
X133388001Y-91660827D02*
X133468813Y-91795514D01*
X133468813Y-91795514D02*
X133495751Y-91876327D01*
X133495751Y-91876327D02*
X133495751Y-91984076D01*
X133495751Y-91984076D02*
X133441876Y-92091826D01*
X133441876Y-92091826D02*
X133307189Y-92226513D01*
X133253314Y-91149017D02*
X133603500Y-90798831D01*
X133603500Y-90798831D02*
X133630438Y-91202892D01*
X133630438Y-91202892D02*
X133711250Y-91122079D01*
X133711250Y-91122079D02*
X133792062Y-91095142D01*
X133792062Y-91095142D02*
X133845937Y-91095142D01*
X133845937Y-91095142D02*
X133926749Y-91122079D01*
X133926749Y-91122079D02*
X134061436Y-91256766D01*
X134061436Y-91256766D02*
X134088374Y-91337579D01*
X134088374Y-91337579D02*
X134088374Y-91391453D01*
X134088374Y-91391453D02*
X134061436Y-91472266D01*
X134061436Y-91472266D02*
X133899812Y-91633890D01*
X133899812Y-91633890D02*
X133819000Y-91660827D01*
X133819000Y-91660827D02*
X133765125Y-91660827D01*
X133198300Y-104245887D02*
X132632615Y-103680201D01*
X133467674Y-103976513D02*
X132901989Y-103410827D01*
X132901989Y-103410827D02*
X133036676Y-103276140D01*
X133036676Y-103276140D02*
X133144425Y-103222266D01*
X133144425Y-103222266D02*
X133252175Y-103222266D01*
X133252175Y-103222266D02*
X133332987Y-103249203D01*
X133332987Y-103249203D02*
X133467674Y-103330015D01*
X133467674Y-103330015D02*
X133548486Y-103410827D01*
X133548486Y-103410827D02*
X133629298Y-103545514D01*
X133629298Y-103545514D02*
X133656236Y-103626327D01*
X133656236Y-103626327D02*
X133656236Y-103734076D01*
X133656236Y-103734076D02*
X133602361Y-103841826D01*
X133602361Y-103841826D02*
X133467674Y-103976513D01*
X133413799Y-102899017D02*
X133763985Y-102548831D01*
X133763985Y-102548831D02*
X133790923Y-102952892D01*
X133790923Y-102952892D02*
X133871735Y-102872079D01*
X133871735Y-102872079D02*
X133952547Y-102845142D01*
X133952547Y-102845142D02*
X134006422Y-102845142D01*
X134006422Y-102845142D02*
X134087234Y-102872079D01*
X134087234Y-102872079D02*
X134221921Y-103006766D01*
X134221921Y-103006766D02*
X134248859Y-103087579D01*
X134248859Y-103087579D02*
X134248859Y-103141453D01*
X134248859Y-103141453D02*
X134221921Y-103222266D01*
X134221921Y-103222266D02*
X134060297Y-103383890D01*
X134060297Y-103383890D02*
X133979485Y-103410827D01*
X133979485Y-103410827D02*
X133925610Y-103410827D01*
X120698300Y-104245887D02*
X120132615Y-103680201D01*
X120967674Y-103976513D02*
X120401989Y-103410827D01*
X120401989Y-103410827D02*
X120536676Y-103276140D01*
X120536676Y-103276140D02*
X120644425Y-103222266D01*
X120644425Y-103222266D02*
X120752175Y-103222266D01*
X120752175Y-103222266D02*
X120832987Y-103249203D01*
X120832987Y-103249203D02*
X120967674Y-103330015D01*
X120967674Y-103330015D02*
X121048486Y-103410827D01*
X121048486Y-103410827D02*
X121129298Y-103545514D01*
X121129298Y-103545514D02*
X121156236Y-103626327D01*
X121156236Y-103626327D02*
X121156236Y-103734076D01*
X121156236Y-103734076D02*
X121102361Y-103841826D01*
X121102361Y-103841826D02*
X120967674Y-103976513D01*
X121829671Y-103114516D02*
X121506422Y-103437765D01*
X121668046Y-103276140D02*
X121102361Y-102710455D01*
X121102361Y-102710455D02*
X121129298Y-102845142D01*
X121129298Y-102845142D02*
X121129298Y-102952892D01*
X121129298Y-102952892D02*
X121102361Y-103033704D01*
X118037815Y-92495887D02*
X117472130Y-91930201D01*
X118307189Y-92226513D02*
X117741504Y-91660827D01*
X117741504Y-91660827D02*
X117876191Y-91526140D01*
X117876191Y-91526140D02*
X117983940Y-91472266D01*
X117983940Y-91472266D02*
X118091690Y-91472266D01*
X118091690Y-91472266D02*
X118172502Y-91499203D01*
X118172502Y-91499203D02*
X118307189Y-91580015D01*
X118307189Y-91580015D02*
X118388001Y-91660827D01*
X118388001Y-91660827D02*
X118468813Y-91795514D01*
X118468813Y-91795514D02*
X118495751Y-91876327D01*
X118495751Y-91876327D02*
X118495751Y-91984076D01*
X118495751Y-91984076D02*
X118441876Y-92091826D01*
X118441876Y-92091826D02*
X118307189Y-92226513D01*
X118414939Y-90987392D02*
X118468813Y-90933518D01*
X118468813Y-90933518D02*
X118549626Y-90906580D01*
X118549626Y-90906580D02*
X118603500Y-90906580D01*
X118603500Y-90906580D02*
X118684313Y-90933518D01*
X118684313Y-90933518D02*
X118819000Y-91014330D01*
X118819000Y-91014330D02*
X118953687Y-91149017D01*
X118953687Y-91149017D02*
X119034499Y-91283704D01*
X119034499Y-91283704D02*
X119061436Y-91364516D01*
X119061436Y-91364516D02*
X119061436Y-91418391D01*
X119061436Y-91418391D02*
X119034499Y-91499203D01*
X119034499Y-91499203D02*
X118980624Y-91553078D01*
X118980624Y-91553078D02*
X118899812Y-91580015D01*
X118899812Y-91580015D02*
X118845937Y-91580015D01*
X118845937Y-91580015D02*
X118765125Y-91553078D01*
X118765125Y-91553078D02*
X118630438Y-91472266D01*
X118630438Y-91472266D02*
X118495751Y-91337579D01*
X118495751Y-91337579D02*
X118414939Y-91202892D01*
X118414939Y-91202892D02*
X118388001Y-91122079D01*
X118388001Y-91122079D02*
X118388001Y-91068205D01*
X118388001Y-91068205D02*
X118414939Y-90987392D01*
X147795379Y-91660827D02*
X147714566Y-91687765D01*
X147714566Y-91687765D02*
X147633754Y-91768577D01*
X147633754Y-91768577D02*
X147579879Y-91876326D01*
X147579879Y-91876326D02*
X147579879Y-91984076D01*
X147579879Y-91984076D02*
X147606817Y-92064888D01*
X147606817Y-92064888D02*
X147687629Y-92199575D01*
X147687629Y-92199575D02*
X147768441Y-92280387D01*
X147768441Y-92280387D02*
X147903128Y-92361200D01*
X147903128Y-92361200D02*
X147983940Y-92388137D01*
X147983940Y-92388137D02*
X148091690Y-92388137D01*
X148091690Y-92388137D02*
X148199440Y-92334262D01*
X148199440Y-92334262D02*
X148253314Y-92280387D01*
X148253314Y-92280387D02*
X148307189Y-92172638D01*
X148307189Y-92172638D02*
X148307189Y-92118763D01*
X148307189Y-92118763D02*
X148118627Y-91930201D01*
X148118627Y-91930201D02*
X148010878Y-92037951D01*
X148603501Y-91930201D02*
X148037815Y-91364516D01*
X148037815Y-91364516D02*
X148926750Y-91606952D01*
X148926750Y-91606952D02*
X148361064Y-91041267D01*
X149196123Y-91337578D02*
X148630438Y-90771893D01*
X148630438Y-90771893D02*
X148765125Y-90637206D01*
X148765125Y-90637206D02*
X148872875Y-90583331D01*
X148872875Y-90583331D02*
X148980624Y-90583331D01*
X148980624Y-90583331D02*
X149061436Y-90610269D01*
X149061436Y-90610269D02*
X149196123Y-90691081D01*
X149196123Y-90691081D02*
X149276936Y-90771893D01*
X149276936Y-90771893D02*
X149357748Y-90906580D01*
X149357748Y-90906580D02*
X149384685Y-90987392D01*
X149384685Y-90987392D02*
X149384685Y-91095142D01*
X149384685Y-91095142D02*
X149330810Y-91202891D01*
X149330810Y-91202891D02*
X149196123Y-91337578D01*
X142795379Y-91660827D02*
X142714566Y-91687765D01*
X142714566Y-91687765D02*
X142633754Y-91768577D01*
X142633754Y-91768577D02*
X142579879Y-91876326D01*
X142579879Y-91876326D02*
X142579879Y-91984076D01*
X142579879Y-91984076D02*
X142606817Y-92064888D01*
X142606817Y-92064888D02*
X142687629Y-92199575D01*
X142687629Y-92199575D02*
X142768441Y-92280387D01*
X142768441Y-92280387D02*
X142903128Y-92361200D01*
X142903128Y-92361200D02*
X142983940Y-92388137D01*
X142983940Y-92388137D02*
X143091690Y-92388137D01*
X143091690Y-92388137D02*
X143199440Y-92334262D01*
X143199440Y-92334262D02*
X143253314Y-92280387D01*
X143253314Y-92280387D02*
X143307189Y-92172638D01*
X143307189Y-92172638D02*
X143307189Y-92118763D01*
X143307189Y-92118763D02*
X143118627Y-91930201D01*
X143118627Y-91930201D02*
X143010878Y-92037951D01*
X143603501Y-91930201D02*
X143037815Y-91364516D01*
X143037815Y-91364516D02*
X143926750Y-91606952D01*
X143926750Y-91606952D02*
X143361064Y-91041267D01*
X144196123Y-91337578D02*
X143630438Y-90771893D01*
X143630438Y-90771893D02*
X143765125Y-90637206D01*
X143765125Y-90637206D02*
X143872875Y-90583331D01*
X143872875Y-90583331D02*
X143980624Y-90583331D01*
X143980624Y-90583331D02*
X144061436Y-90610269D01*
X144061436Y-90610269D02*
X144196123Y-90691081D01*
X144196123Y-90691081D02*
X144276936Y-90771893D01*
X144276936Y-90771893D02*
X144357748Y-90906580D01*
X144357748Y-90906580D02*
X144384685Y-90987392D01*
X144384685Y-90987392D02*
X144384685Y-91095142D01*
X144384685Y-91095142D02*
X144330810Y-91202891D01*
X144330810Y-91202891D02*
X144196123Y-91337578D01*
D11*
X135511666Y-110934819D02*
X135511666Y-111649104D01*
X135511666Y-111649104D02*
X135464047Y-111791961D01*
X135464047Y-111791961D02*
X135368809Y-111887200D01*
X135368809Y-111887200D02*
X135225952Y-111934819D01*
X135225952Y-111934819D02*
X135130714Y-111934819D01*
X136416428Y-111268152D02*
X136416428Y-111934819D01*
X136178333Y-110887200D02*
X135940238Y-111601485D01*
X135940238Y-111601485D02*
X136559285Y-111601485D01*
D12*
%TO.C,J4*%
X120360000Y-112420000D02*
X151330000Y-112420000D01*
X120360000Y-121020000D02*
X120360000Y-112420000D01*
X139910000Y-111525662D02*
X140410000Y-111525662D01*
X140160000Y-111958675D02*
X139910000Y-111525662D01*
X140410000Y-111525662D02*
X140160000Y-111958675D01*
X151330000Y-112420000D02*
X151330000Y-121020000D01*
%TO.C,J3*%
X116760000Y-104866887D02*
X118090000Y-104866887D01*
X116760000Y-106196887D02*
X116760000Y-104866887D01*
X119360000Y-104866887D02*
X154980000Y-104866887D01*
X119360000Y-107526887D02*
X119360000Y-104866887D01*
X119360000Y-107526887D02*
X154980000Y-107526887D01*
X154980000Y-107526887D02*
X154980000Y-104866887D01*
D13*
%TO.C,REF\u002A\u002A*%
G36*
X133107975Y-95000000D02*
G01*
X130552926Y-97555049D01*
X129958500Y-96960623D01*
X132513549Y-94405574D01*
X133107975Y-95000000D01*
G37*
G36*
X134465629Y-95281565D02*
G01*
X133907584Y-95839609D01*
X132493549Y-94425574D01*
X133051594Y-93867529D01*
X134465629Y-95281565D01*
G37*
G36*
X139189454Y-94425575D02*
G01*
X137775420Y-95839609D01*
X137217376Y-95281565D01*
X138631410Y-93867531D01*
X139189454Y-94425575D01*
G37*
G36*
X141721500Y-96957479D02*
G01*
X141127076Y-97551903D01*
X138572027Y-94996854D01*
X139166451Y-94402429D01*
X141721500Y-96957479D01*
G37*
G36*
X139226742Y-97275087D02*
G01*
X135834840Y-100666989D01*
X132442938Y-97275087D01*
X133546133Y-97275087D01*
X135834838Y-99563791D01*
X138123544Y-97275087D01*
X135834838Y-94986382D01*
X133546133Y-97275087D01*
X132442938Y-97275087D01*
X132442936Y-97275086D01*
X135834838Y-93883183D01*
X139226742Y-97275087D01*
G37*
%TD*%
M02*
